%TF.GenerationSoftware,KiCad,Pcbnew,(6.0.11)*%
%TF.CreationDate,2023-06-03T19:27:43-07:00*%
%TF.ProjectId,stm32_PendCartBoard,73746d33-325f-4506-956e-644361727442,rev?*%
%TF.SameCoordinates,Original*%
%TF.FileFunction,Copper,L2,Bot*%
%TF.FilePolarity,Positive*%
%FSLAX46Y46*%
G04 Gerber Fmt 4.6, Leading zero omitted, Abs format (unit mm)*
G04 Created by KiCad (PCBNEW (6.0.11)) date 2023-06-03 19:27:43*
%MOMM*%
%LPD*%
G01*
G04 APERTURE LIST*
%TA.AperFunction,ComponentPad*%
%ADD10R,1.700000X1.700000*%
%TD*%
%TA.AperFunction,ComponentPad*%
%ADD11O,1.700000X1.700000*%
%TD*%
%TA.AperFunction,ComponentPad*%
%ADD12O,2.000000X1.450000*%
%TD*%
%TA.AperFunction,ComponentPad*%
%ADD13O,1.800000X1.150000*%
%TD*%
%TA.AperFunction,ViaPad*%
%ADD14C,0.800000*%
%TD*%
%TA.AperFunction,ViaPad*%
%ADD15C,0.700000*%
%TD*%
%TA.AperFunction,Conductor*%
%ADD16C,0.300000*%
%TD*%
%TA.AperFunction,Conductor*%
%ADD17C,0.500000*%
%TD*%
G04 APERTURE END LIST*
D10*
%TO.P,J7,1,Pin_1*%
%TO.N,Motor+*%
X119160000Y-54705000D03*
D11*
%TO.P,J7,2,Pin_2*%
%TO.N,GND*%
X119160000Y-52165000D03*
%TD*%
D10*
%TO.P,J6,1,Pin_1*%
%TO.N,+5V*%
X157700000Y-65140000D03*
D11*
%TO.P,J6,2,Pin_2*%
%TO.N,GND*%
X157700000Y-67680000D03*
%TD*%
D10*
%TO.P,J5,1,Pin_1*%
%TO.N,/SWCLK*%
X142065000Y-50260000D03*
D11*
%TO.P,J5,2,Pin_2*%
%TO.N,/SWDIO*%
X144605000Y-50260000D03*
%TD*%
D10*
%TO.P,J1,1,Pin_1*%
%TO.N,GND*%
X150895000Y-50260000D03*
D11*
%TO.P,J1,2,Pin_2*%
%TO.N,+3.3V*%
X148355000Y-50260000D03*
%TD*%
D12*
%TO.P,J3,6,Shield*%
%TO.N,unconnected-(J3-Pad6)*%
X155880000Y-53375000D03*
X155880000Y-60825000D03*
D13*
X159680000Y-60975000D03*
X159680000Y-53225000D03*
%TD*%
D10*
%TO.P,J8,1,Pin_1*%
%TO.N,GND*%
X123970000Y-74220000D03*
D11*
%TO.P,J8,2,Pin_2*%
%TO.N,USART1_TX*%
X126510000Y-74220000D03*
%TO.P,J8,3,Pin_3*%
%TO.N,USART1_RX*%
X129050000Y-74220000D03*
%TO.P,J8,4,Pin_4*%
%TO.N,+3.3V*%
X131590000Y-74220000D03*
%TD*%
D10*
%TO.P,J2,1,Pin_1*%
%TO.N,TIM4_CH1*%
X142980000Y-45000000D03*
D11*
%TO.P,J2,2,Pin_2*%
%TO.N,TIM4_CH2*%
X140440000Y-45000000D03*
%TO.P,J2,3,Pin_3*%
%TO.N,GPIO_INPUT1*%
X137900000Y-45000000D03*
%TO.P,J2,4,Pin_4*%
%TO.N,GPIO_INPUT2*%
X135360000Y-45000000D03*
%TD*%
D10*
%TO.P,J10,1,Pin_1*%
%TO.N,+5V*%
X123840000Y-45000000D03*
D11*
%TO.P,J10,2,Pin_2*%
X126380000Y-45000000D03*
%TO.P,J10,3,Pin_3*%
%TO.N,GND*%
X128920000Y-45000000D03*
%TO.P,J10,4,Pin_4*%
X131460000Y-45000000D03*
%TD*%
D10*
%TO.P,J4,1,Pin_1*%
%TO.N,Net-(J4-Pad1)*%
X112060000Y-66520000D03*
D11*
%TO.P,J4,2,Pin_2*%
%TO.N,Net-(J4-Pad2)*%
X112060000Y-63980000D03*
%TO.P,J4,3,Pin_3*%
%TO.N,Net-(J4-Pad3)*%
X112060000Y-61440000D03*
%TO.P,J4,4,Pin_4*%
%TO.N,Net-(J4-Pad4)*%
X112060000Y-58900000D03*
%TD*%
D10*
%TO.P,J9,1,Pin_1*%
%TO.N,+3.3V*%
X135420000Y-74240000D03*
D11*
%TO.P,J9,2,Pin_2*%
%TO.N,I2C2_SCL*%
X137960000Y-74240000D03*
%TO.P,J9,3,Pin_3*%
%TO.N,I2C2_SDA*%
X140500000Y-74240000D03*
%TO.P,J9,4,Pin_4*%
%TO.N,GND*%
X143040000Y-74240000D03*
%TD*%
D14*
%TO.N,GND*%
X137290000Y-68480000D03*
%TO.N,Net-(R2-Pad2)*%
X148449500Y-47760000D03*
X146950500Y-48020000D03*
%TO.N,GND*%
X124670000Y-53190000D03*
X122260000Y-53140000D03*
D15*
X124630000Y-62815500D03*
X117400000Y-64180000D03*
X135260000Y-50940000D03*
X130220000Y-54830000D03*
X135130000Y-59210000D03*
X152720000Y-67460000D03*
X150240000Y-65250000D03*
X117380000Y-64930000D03*
X131760000Y-51720000D03*
X140170000Y-61210000D03*
X121090000Y-71460000D03*
X130539105Y-61931695D03*
X150240000Y-66100000D03*
X135690000Y-55700000D03*
X152200000Y-47100000D03*
X148710000Y-68070000D03*
X134230000Y-50950000D03*
X127240000Y-58440000D03*
X151830000Y-67460000D03*
X154530000Y-67180000D03*
X143330000Y-52930000D03*
X143520000Y-56605499D03*
X133040000Y-52680000D03*
X118880000Y-71490000D03*
X117405000Y-60265000D03*
X142289500Y-52940000D03*
X153930000Y-55790000D03*
X143260000Y-62940000D03*
%TO.N,+3.3V*%
X131410000Y-68919500D03*
X144840000Y-58440000D03*
X144780000Y-56605499D03*
X121160000Y-64470000D03*
X131766728Y-65460500D03*
X121046316Y-66162805D03*
%TO.N,USART1_TX*%
X133630000Y-68359500D03*
X133460058Y-64615432D03*
%TO.N,USART1_RX*%
X134659558Y-65460500D03*
X134659558Y-68359500D03*
%TO.N,BOOT0*%
X140389872Y-47399372D03*
X137910500Y-47370000D03*
%TO.N,PWMB*%
X132910000Y-65460500D03*
X132590000Y-68359500D03*
%TO.N,AOUT2*%
X127500000Y-60215500D03*
X127720000Y-61614500D03*
%TD*%
D16*
%TO.N,Net-(R2-Pad2)*%
X148189500Y-48020000D02*
X148449500Y-47760000D01*
X146950500Y-48020000D02*
X148189500Y-48020000D01*
%TO.N,+3.3V*%
X121160000Y-64470000D02*
X121160000Y-66049121D01*
X121160000Y-66049121D02*
X121046316Y-66162805D01*
D17*
X144840000Y-58440000D02*
X144840000Y-56665499D01*
D16*
X131410000Y-68919500D02*
X131410000Y-65817228D01*
D17*
X144840000Y-56665499D02*
X144780000Y-56605499D01*
D16*
X131410000Y-65817228D02*
X131766728Y-65460500D01*
%TO.N,USART1_TX*%
X133630000Y-68359500D02*
X133630000Y-64785374D01*
X133630000Y-64785374D02*
X133460058Y-64615432D01*
%TO.N,USART1_RX*%
X134659558Y-68359500D02*
X134659558Y-65460500D01*
%TO.N,BOOT0*%
X140389872Y-47399372D02*
X137939872Y-47399372D01*
X137939872Y-47399372D02*
X137910500Y-47370000D01*
%TO.N,PWMB*%
X132910000Y-68050000D02*
X132899500Y-68050000D01*
X132899500Y-68050000D02*
X132590000Y-68359500D01*
X132910000Y-65460500D02*
X132910000Y-68050000D01*
%TO.N,AOUT2*%
X127720000Y-60435500D02*
X127500000Y-60215500D01*
X127720000Y-61614500D02*
X127720000Y-60435500D01*
%TD*%
%TA.AperFunction,Conductor*%
%TO.N,GND*%
G36*
X158485792Y-42302067D02*
G01*
X158504688Y-42305100D01*
X158515339Y-42303052D01*
X158525448Y-42302897D01*
X158538897Y-42301900D01*
X158732598Y-42310007D01*
X158800752Y-42312860D01*
X158814855Y-42314262D01*
X158834893Y-42317418D01*
X159100623Y-42359274D01*
X159114478Y-42362277D01*
X159393238Y-42439613D01*
X159406660Y-42444178D01*
X159540713Y-42498502D01*
X159674770Y-42552827D01*
X159687576Y-42558890D01*
X159941539Y-42697437D01*
X159953574Y-42704926D01*
X160071957Y-42788338D01*
X160190056Y-42871550D01*
X160201160Y-42880365D01*
X160417079Y-43072897D01*
X160427103Y-43082921D01*
X160519714Y-43186781D01*
X160619635Y-43298840D01*
X160628449Y-43309943D01*
X160781567Y-43527255D01*
X160795073Y-43546424D01*
X160802561Y-43558459D01*
X160913162Y-43761193D01*
X160941108Y-43812420D01*
X160947173Y-43825230D01*
X160980801Y-43908213D01*
X161055822Y-44093340D01*
X161060387Y-44106762D01*
X161137723Y-44385522D01*
X161140726Y-44399377D01*
X161185738Y-44685143D01*
X161187140Y-44699251D01*
X161198100Y-44961103D01*
X161197103Y-44974552D01*
X161196948Y-44984661D01*
X161194900Y-44995312D01*
X161196619Y-45006018D01*
X161197933Y-45014205D01*
X161199500Y-45033859D01*
X161199500Y-74964760D01*
X161197802Y-74985208D01*
X161194876Y-75002709D01*
X161196855Y-75013377D01*
X161196943Y-75023291D01*
X161197870Y-75036950D01*
X161186504Y-75274279D01*
X161185346Y-75298448D01*
X161183878Y-75312433D01*
X161137485Y-75597516D01*
X161137446Y-75597754D01*
X161134405Y-75611479D01*
X161055961Y-75889725D01*
X161051386Y-75903013D01*
X160941944Y-76170580D01*
X160935891Y-76183273D01*
X160800026Y-76430955D01*
X160796867Y-76436713D01*
X160789416Y-76448639D01*
X160622579Y-76684724D01*
X160613825Y-76695729D01*
X160421333Y-76911403D01*
X160411403Y-76921333D01*
X160211578Y-77099680D01*
X160195729Y-77113825D01*
X160184724Y-77122579D01*
X159948639Y-77289416D01*
X159936713Y-77296867D01*
X159683273Y-77435891D01*
X159670580Y-77441944D01*
X159403013Y-77551386D01*
X159389725Y-77555961D01*
X159111479Y-77634405D01*
X159097760Y-77637445D01*
X158821054Y-77682475D01*
X158812433Y-77683878D01*
X158798449Y-77685346D01*
X158536950Y-77697870D01*
X158523291Y-77696943D01*
X158513377Y-77696855D01*
X158502709Y-77694876D01*
X158492009Y-77696665D01*
X158492007Y-77696665D01*
X158485208Y-77697802D01*
X158464760Y-77699500D01*
X111538639Y-77699500D01*
X111516252Y-77697462D01*
X111512814Y-77696831D01*
X111512813Y-77696831D01*
X111502141Y-77694872D01*
X111491442Y-77696681D01*
X111481995Y-77696615D01*
X111467833Y-77697358D01*
X111207205Y-77681017D01*
X111193520Y-77679392D01*
X110954624Y-77637446D01*
X110909279Y-77629484D01*
X110895865Y-77626352D01*
X110793910Y-77596480D01*
X110618914Y-77545208D01*
X110605925Y-77540604D01*
X110517165Y-77503474D01*
X110339693Y-77429232D01*
X110327310Y-77423223D01*
X110075074Y-77282990D01*
X110063425Y-77275637D01*
X109828312Y-77108283D01*
X109817546Y-77099680D01*
X109602466Y-76907279D01*
X109592721Y-76897534D01*
X109400320Y-76682454D01*
X109391717Y-76671688D01*
X109224363Y-76436575D01*
X109217007Y-76424921D01*
X109203392Y-76400431D01*
X109076777Y-76172690D01*
X109070768Y-76160307D01*
X108959396Y-75894075D01*
X108954792Y-75881086D01*
X108897952Y-75687085D01*
X108873648Y-75604135D01*
X108870515Y-75590717D01*
X108866878Y-75570000D01*
X108826517Y-75340133D01*
X108820608Y-75306480D01*
X108818983Y-75292795D01*
X108802642Y-75032167D01*
X108803385Y-75018005D01*
X108803319Y-75008558D01*
X108805128Y-74997859D01*
X108802538Y-74983748D01*
X108800500Y-74961361D01*
X108800500Y-74933789D01*
X110095996Y-74933789D01*
X110099869Y-75036950D01*
X110104154Y-75151068D01*
X110104913Y-75171295D01*
X110105990Y-75176430D01*
X110105991Y-75176435D01*
X110152639Y-75398758D01*
X110153719Y-75403904D01*
X110155648Y-75408788D01*
X110155649Y-75408792D01*
X110165006Y-75432484D01*
X110241020Y-75624963D01*
X110243741Y-75629447D01*
X110243743Y-75629451D01*
X110311233Y-75740670D01*
X110364319Y-75828153D01*
X110520090Y-76007664D01*
X110703880Y-76158362D01*
X110708441Y-76160958D01*
X110708442Y-76160959D01*
X110905875Y-76273345D01*
X110905880Y-76273347D01*
X110910433Y-76275939D01*
X111133844Y-76357034D01*
X111367725Y-76399326D01*
X111392619Y-76400500D01*
X111559680Y-76400500D01*
X111562296Y-76400278D01*
X111562297Y-76400278D01*
X111731590Y-76385913D01*
X111736823Y-76385469D01*
X111966874Y-76325760D01*
X112183576Y-76228143D01*
X112380732Y-76095409D01*
X112552705Y-75931355D01*
X112694579Y-75740670D01*
X112721823Y-75687085D01*
X112799913Y-75533493D01*
X112799915Y-75533488D01*
X112802295Y-75528807D01*
X112806635Y-75514832D01*
X112871215Y-75306848D01*
X112872775Y-75301824D01*
X112886934Y-75194998D01*
X112897674Y-75113972D01*
X122620000Y-75113972D01*
X122620363Y-75120669D01*
X122625803Y-75170744D01*
X122629371Y-75185753D01*
X122673817Y-75304311D01*
X122682212Y-75319646D01*
X122757516Y-75420124D01*
X122769876Y-75432484D01*
X122870354Y-75507788D01*
X122885689Y-75516183D01*
X123004247Y-75560629D01*
X123019256Y-75564197D01*
X123069331Y-75569637D01*
X123076028Y-75570000D01*
X123702170Y-75570000D01*
X123717169Y-75565596D01*
X123718356Y-75564226D01*
X123720000Y-75556668D01*
X123720000Y-75552170D01*
X124220000Y-75552170D01*
X124224404Y-75567169D01*
X124225774Y-75568356D01*
X124233332Y-75570000D01*
X124863972Y-75570000D01*
X124870669Y-75569637D01*
X124920744Y-75564197D01*
X124935753Y-75560629D01*
X125054311Y-75516183D01*
X125069646Y-75507788D01*
X125170124Y-75432484D01*
X125182484Y-75420124D01*
X125257788Y-75319646D01*
X125266183Y-75304311D01*
X125310629Y-75185753D01*
X125314197Y-75170744D01*
X125319637Y-75120669D01*
X125320000Y-75113972D01*
X125320000Y-74920070D01*
X125339685Y-74853031D01*
X125392489Y-74807276D01*
X125461647Y-74797332D01*
X125525203Y-74826357D01*
X125545263Y-74848503D01*
X125563595Y-74874442D01*
X125601862Y-74928588D01*
X125631405Y-74970391D01*
X125635476Y-74974357D01*
X125635477Y-74974358D01*
X125659602Y-74997859D01*
X125782865Y-75117937D01*
X125787588Y-75121093D01*
X125787592Y-75121096D01*
X125858663Y-75168584D01*
X125958677Y-75235411D01*
X126152953Y-75318878D01*
X126216283Y-75333208D01*
X126353638Y-75364289D01*
X126353642Y-75364290D01*
X126359186Y-75365544D01*
X126485651Y-75370513D01*
X126564789Y-75373623D01*
X126564791Y-75373623D01*
X126570470Y-75373846D01*
X126576090Y-75373031D01*
X126576092Y-75373031D01*
X126774103Y-75344320D01*
X126774104Y-75344320D01*
X126779730Y-75343504D01*
X126871263Y-75312433D01*
X126974565Y-75277367D01*
X126974568Y-75277366D01*
X126979955Y-75275537D01*
X126984916Y-75272759D01*
X126984922Y-75272756D01*
X127123767Y-75194998D01*
X127164442Y-75172219D01*
X127171859Y-75166051D01*
X127322645Y-75040644D01*
X127327012Y-75037012D01*
X127378776Y-74974772D01*
X127458584Y-74878813D01*
X127458585Y-74878811D01*
X127462219Y-74874442D01*
X127508078Y-74792556D01*
X127562756Y-74694922D01*
X127562759Y-74694916D01*
X127565537Y-74689955D01*
X127574443Y-74663721D01*
X127631675Y-74495118D01*
X127633504Y-74489730D01*
X127634432Y-74483332D01*
X127657820Y-74322033D01*
X127686921Y-74258512D01*
X127740225Y-74224346D01*
X127820974Y-74224346D01*
X127874347Y-74258736D01*
X127903296Y-74322327D01*
X127904271Y-74331707D01*
X127908796Y-74400749D01*
X127960845Y-74605690D01*
X127963219Y-74610841D01*
X127963221Y-74610845D01*
X128010128Y-74712594D01*
X128049369Y-74797714D01*
X128067639Y-74823565D01*
X128141862Y-74928588D01*
X128171405Y-74970391D01*
X128175476Y-74974357D01*
X128175477Y-74974358D01*
X128199602Y-74997859D01*
X128322865Y-75117937D01*
X128327588Y-75121093D01*
X128327592Y-75121096D01*
X128398663Y-75168584D01*
X128498677Y-75235411D01*
X128692953Y-75318878D01*
X128756283Y-75333208D01*
X128893638Y-75364289D01*
X128893642Y-75364290D01*
X128899186Y-75365544D01*
X129025651Y-75370513D01*
X129104789Y-75373623D01*
X129104791Y-75373623D01*
X129110470Y-75373846D01*
X129116090Y-75373031D01*
X129116092Y-75373031D01*
X129314103Y-75344320D01*
X129314104Y-75344320D01*
X129319730Y-75343504D01*
X129411263Y-75312433D01*
X129514565Y-75277367D01*
X129514568Y-75277366D01*
X129519955Y-75275537D01*
X129524916Y-75272759D01*
X129524922Y-75272756D01*
X129663767Y-75194998D01*
X129704442Y-75172219D01*
X129711859Y-75166051D01*
X129862645Y-75040644D01*
X129867012Y-75037012D01*
X129918776Y-74974772D01*
X129998584Y-74878813D01*
X129998585Y-74878811D01*
X130002219Y-74874442D01*
X130048078Y-74792556D01*
X130102756Y-74694922D01*
X130102759Y-74694916D01*
X130105537Y-74689955D01*
X130114443Y-74663721D01*
X130171675Y-74495118D01*
X130173504Y-74489730D01*
X130174432Y-74483332D01*
X130197820Y-74322033D01*
X130226921Y-74258512D01*
X130280225Y-74224346D01*
X130360974Y-74224346D01*
X130414347Y-74258736D01*
X130443296Y-74322327D01*
X130444271Y-74331707D01*
X130448796Y-74400749D01*
X130500845Y-74605690D01*
X130503219Y-74610841D01*
X130503221Y-74610845D01*
X130550128Y-74712594D01*
X130589369Y-74797714D01*
X130607639Y-74823565D01*
X130681862Y-74928588D01*
X130711405Y-74970391D01*
X130715476Y-74974357D01*
X130715477Y-74974358D01*
X130739602Y-74997859D01*
X130862865Y-75117937D01*
X130867588Y-75121093D01*
X130867592Y-75121096D01*
X130938663Y-75168584D01*
X131038677Y-75235411D01*
X131232953Y-75318878D01*
X131296283Y-75333208D01*
X131433638Y-75364289D01*
X131433642Y-75364290D01*
X131439186Y-75365544D01*
X131565651Y-75370513D01*
X131644789Y-75373623D01*
X131644791Y-75373623D01*
X131650470Y-75373846D01*
X131656090Y-75373031D01*
X131656092Y-75373031D01*
X131854103Y-75344320D01*
X131854104Y-75344320D01*
X131859730Y-75343504D01*
X131951263Y-75312433D01*
X132054565Y-75277367D01*
X132054568Y-75277366D01*
X132059955Y-75275537D01*
X132064916Y-75272759D01*
X132064922Y-75272756D01*
X132203767Y-75194998D01*
X132244442Y-75172219D01*
X132251859Y-75166051D01*
X132289620Y-75134646D01*
X134269500Y-75134646D01*
X134272618Y-75160846D01*
X134318061Y-75263153D01*
X134397287Y-75342241D01*
X134407758Y-75346870D01*
X134407759Y-75346871D01*
X134491147Y-75383737D01*
X134491149Y-75383738D01*
X134499673Y-75387506D01*
X134525354Y-75390500D01*
X136314646Y-75390500D01*
X136318300Y-75390065D01*
X136318302Y-75390065D01*
X136323266Y-75389474D01*
X136340846Y-75387382D01*
X136443153Y-75341939D01*
X136522241Y-75262713D01*
X136526871Y-75252241D01*
X136563737Y-75168853D01*
X136563738Y-75168851D01*
X136567506Y-75160327D01*
X136570500Y-75134646D01*
X136570500Y-74420300D01*
X136590185Y-74353261D01*
X136642989Y-74307506D01*
X136712147Y-74297562D01*
X136775703Y-74326587D01*
X136813477Y-74385365D01*
X136818234Y-74412190D01*
X136818423Y-74415072D01*
X136818425Y-74415082D01*
X136818796Y-74420749D01*
X136870845Y-74625690D01*
X136873219Y-74630841D01*
X136873221Y-74630845D01*
X136910908Y-74712594D01*
X136959369Y-74817714D01*
X136962647Y-74822352D01*
X137070367Y-74974772D01*
X137081405Y-74990391D01*
X137085476Y-74994357D01*
X137085477Y-74994358D01*
X137114431Y-75022564D01*
X137232865Y-75137937D01*
X137237588Y-75141093D01*
X137237592Y-75141096D01*
X137308663Y-75188584D01*
X137408677Y-75255411D01*
X137602953Y-75338878D01*
X137638277Y-75346871D01*
X137803638Y-75384289D01*
X137803642Y-75384290D01*
X137809186Y-75385544D01*
X137935315Y-75390500D01*
X138014789Y-75393623D01*
X138014791Y-75393623D01*
X138020470Y-75393846D01*
X138026090Y-75393031D01*
X138026092Y-75393031D01*
X138224103Y-75364320D01*
X138224104Y-75364320D01*
X138229730Y-75363504D01*
X138248588Y-75357103D01*
X138424565Y-75297367D01*
X138424568Y-75297366D01*
X138429955Y-75295537D01*
X138434916Y-75292759D01*
X138434922Y-75292756D01*
X138542962Y-75232250D01*
X138614442Y-75192219D01*
X138633421Y-75176435D01*
X138772645Y-75060644D01*
X138777012Y-75057012D01*
X138826681Y-74997291D01*
X138908584Y-74898813D01*
X138908585Y-74898811D01*
X138912219Y-74894442D01*
X138958078Y-74812556D01*
X139012756Y-74714922D01*
X139012759Y-74714916D01*
X139015537Y-74709955D01*
X139017767Y-74703388D01*
X139081675Y-74515118D01*
X139083504Y-74509730D01*
X139085726Y-74494404D01*
X139107820Y-74342033D01*
X139136921Y-74278512D01*
X139190225Y-74244346D01*
X139270974Y-74244346D01*
X139324347Y-74278736D01*
X139353296Y-74342327D01*
X139354271Y-74351707D01*
X139358796Y-74420749D01*
X139410845Y-74625690D01*
X139413219Y-74630841D01*
X139413221Y-74630845D01*
X139450908Y-74712594D01*
X139499369Y-74817714D01*
X139502647Y-74822352D01*
X139610367Y-74974772D01*
X139621405Y-74990391D01*
X139625476Y-74994357D01*
X139625477Y-74994358D01*
X139654431Y-75022564D01*
X139772865Y-75137937D01*
X139777588Y-75141093D01*
X139777592Y-75141096D01*
X139848663Y-75188584D01*
X139948677Y-75255411D01*
X140142953Y-75338878D01*
X140178277Y-75346871D01*
X140343638Y-75384289D01*
X140343642Y-75384290D01*
X140349186Y-75385544D01*
X140475315Y-75390500D01*
X140554789Y-75393623D01*
X140554791Y-75393623D01*
X140560470Y-75393846D01*
X140566090Y-75393031D01*
X140566092Y-75393031D01*
X140764103Y-75364320D01*
X140764104Y-75364320D01*
X140769730Y-75363504D01*
X140788588Y-75357103D01*
X140964565Y-75297367D01*
X140964568Y-75297366D01*
X140969955Y-75295537D01*
X140974916Y-75292759D01*
X140974922Y-75292756D01*
X141082962Y-75232250D01*
X141154442Y-75192219D01*
X141173421Y-75176435D01*
X141312645Y-75060644D01*
X141317012Y-75057012D01*
X141366681Y-74997291D01*
X141448584Y-74898813D01*
X141448585Y-74898811D01*
X141452219Y-74894442D01*
X141554059Y-74712594D01*
X141603990Y-74663721D01*
X141672418Y-74649601D01*
X141737617Y-74674717D01*
X141774630Y-74720778D01*
X141864110Y-74912667D01*
X141869508Y-74922017D01*
X141998784Y-75106643D01*
X142005719Y-75114907D01*
X142165091Y-75274279D01*
X142173357Y-75281215D01*
X142357992Y-75410498D01*
X142367324Y-75415886D01*
X142571603Y-75511143D01*
X142581736Y-75514832D01*
X142772779Y-75566022D01*
X142786653Y-75565691D01*
X142790000Y-75557875D01*
X142790000Y-75552806D01*
X143290000Y-75552806D01*
X143293910Y-75566123D01*
X143302326Y-75567333D01*
X143498264Y-75514832D01*
X143508397Y-75511143D01*
X143712676Y-75415886D01*
X143722008Y-75410498D01*
X143906643Y-75281215D01*
X143914909Y-75274279D01*
X144074281Y-75114907D01*
X144081216Y-75106643D01*
X144202249Y-74933789D01*
X157095996Y-74933789D01*
X157099869Y-75036950D01*
X157104154Y-75151068D01*
X157104913Y-75171295D01*
X157105990Y-75176430D01*
X157105991Y-75176435D01*
X157152639Y-75398758D01*
X157153719Y-75403904D01*
X157155648Y-75408788D01*
X157155649Y-75408792D01*
X157165006Y-75432484D01*
X157241020Y-75624963D01*
X157243741Y-75629447D01*
X157243743Y-75629451D01*
X157311233Y-75740670D01*
X157364319Y-75828153D01*
X157520090Y-76007664D01*
X157703880Y-76158362D01*
X157708441Y-76160958D01*
X157708442Y-76160959D01*
X157905875Y-76273345D01*
X157905880Y-76273347D01*
X157910433Y-76275939D01*
X158133844Y-76357034D01*
X158367725Y-76399326D01*
X158392619Y-76400500D01*
X158559680Y-76400500D01*
X158562296Y-76400278D01*
X158562297Y-76400278D01*
X158731590Y-76385913D01*
X158736823Y-76385469D01*
X158966874Y-76325760D01*
X159183576Y-76228143D01*
X159380732Y-76095409D01*
X159552705Y-75931355D01*
X159694579Y-75740670D01*
X159721823Y-75687085D01*
X159799913Y-75533493D01*
X159799915Y-75533488D01*
X159802295Y-75528807D01*
X159806635Y-75514832D01*
X159871215Y-75306848D01*
X159872775Y-75301824D01*
X159886934Y-75194998D01*
X159903315Y-75071412D01*
X159903315Y-75071408D01*
X159904004Y-75066211D01*
X159895087Y-74828705D01*
X159888585Y-74797714D01*
X159847361Y-74601242D01*
X159847360Y-74601239D01*
X159846281Y-74596096D01*
X159809647Y-74503332D01*
X159779206Y-74426253D01*
X159758980Y-74375037D01*
X159732694Y-74331718D01*
X159638408Y-74176341D01*
X159635681Y-74171847D01*
X159512107Y-74029440D01*
X159483356Y-73996307D01*
X159483355Y-73996306D01*
X159479910Y-73992336D01*
X159296120Y-73841638D01*
X159284510Y-73835029D01*
X159094125Y-73726655D01*
X159094120Y-73726653D01*
X159089567Y-73724061D01*
X158866156Y-73642966D01*
X158632275Y-73600674D01*
X158607381Y-73599500D01*
X158440320Y-73599500D01*
X158437704Y-73599722D01*
X158437703Y-73599722D01*
X158426484Y-73600674D01*
X158263177Y-73614531D01*
X158033126Y-73674240D01*
X157816424Y-73771857D01*
X157619268Y-73904591D01*
X157447295Y-74068645D01*
X157305421Y-74259330D01*
X157303042Y-74264008D01*
X157303042Y-74264009D01*
X157220554Y-74426253D01*
X157197705Y-74471193D01*
X157196146Y-74476213D01*
X157196145Y-74476216D01*
X157149732Y-74625690D01*
X157127225Y-74698176D01*
X157126534Y-74703386D01*
X157126534Y-74703388D01*
X157098796Y-74912667D01*
X157095996Y-74933789D01*
X144202249Y-74933789D01*
X144210492Y-74922017D01*
X144215890Y-74912667D01*
X144311143Y-74708397D01*
X144314832Y-74698264D01*
X144366022Y-74507221D01*
X144365691Y-74493347D01*
X144357875Y-74490000D01*
X143307830Y-74490000D01*
X143292831Y-74494404D01*
X143291644Y-74495774D01*
X143290000Y-74503332D01*
X143290000Y-75552806D01*
X142790000Y-75552806D01*
X142790000Y-73972170D01*
X143290000Y-73972170D01*
X143294404Y-73987169D01*
X143295774Y-73988356D01*
X143303332Y-73990000D01*
X144352806Y-73990000D01*
X144366123Y-73986090D01*
X144367333Y-73977674D01*
X144314832Y-73781736D01*
X144311143Y-73771603D01*
X144215890Y-73567333D01*
X144210492Y-73557983D01*
X144081216Y-73373357D01*
X144074281Y-73365093D01*
X143914909Y-73205721D01*
X143906643Y-73198785D01*
X143722008Y-73069502D01*
X143712676Y-73064114D01*
X143508397Y-72968857D01*
X143498264Y-72965168D01*
X143307221Y-72913978D01*
X143293347Y-72914309D01*
X143290000Y-72922125D01*
X143290000Y-73972170D01*
X142790000Y-73972170D01*
X142790000Y-72927194D01*
X142786090Y-72913877D01*
X142777674Y-72912667D01*
X142581736Y-72965168D01*
X142571603Y-72968857D01*
X142367333Y-73064110D01*
X142357983Y-73069508D01*
X142173357Y-73198784D01*
X142165093Y-73205719D01*
X142005719Y-73365093D01*
X141998784Y-73373357D01*
X141869508Y-73557983D01*
X141864110Y-73567333D01*
X141772664Y-73763438D01*
X141726491Y-73815877D01*
X141659298Y-73835029D01*
X141592417Y-73814813D01*
X141549071Y-73765878D01*
X141485165Y-73636290D01*
X141358651Y-73466867D01*
X141354481Y-73463012D01*
X141354478Y-73463009D01*
X141248552Y-73365093D01*
X141203381Y-73323337D01*
X141197032Y-73319331D01*
X141029363Y-73213539D01*
X141029361Y-73213538D01*
X141024554Y-73210505D01*
X140828160Y-73132152D01*
X140822579Y-73131042D01*
X140822576Y-73131041D01*
X140686332Y-73103941D01*
X140620775Y-73090901D01*
X140615088Y-73090827D01*
X140615083Y-73090826D01*
X140415034Y-73088207D01*
X140415029Y-73088207D01*
X140409346Y-73088133D01*
X140403742Y-73089096D01*
X140403741Y-73089096D01*
X140206550Y-73122979D01*
X140206547Y-73122980D01*
X140200953Y-73123941D01*
X140002575Y-73197127D01*
X139997697Y-73200029D01*
X139997695Y-73200030D01*
X139825740Y-73302332D01*
X139825737Y-73302334D01*
X139820856Y-73305238D01*
X139661881Y-73444655D01*
X139658362Y-73449119D01*
X139658359Y-73449122D01*
X139640782Y-73471419D01*
X139530976Y-73610708D01*
X139432523Y-73797836D01*
X139430837Y-73803267D01*
X139430835Y-73803271D01*
X139400285Y-73901660D01*
X139369820Y-73999773D01*
X139352851Y-74143140D01*
X139325425Y-74207398D01*
X139270974Y-74244346D01*
X139190225Y-74244346D01*
X139190667Y-74244063D01*
X139138057Y-74212081D01*
X139107453Y-74149271D01*
X139106232Y-74139909D01*
X139096601Y-74035100D01*
X139096081Y-74029440D01*
X139038686Y-73825931D01*
X138945165Y-73636290D01*
X138818651Y-73466867D01*
X138814481Y-73463012D01*
X138814478Y-73463009D01*
X138708552Y-73365093D01*
X138663381Y-73323337D01*
X138657032Y-73319331D01*
X138489363Y-73213539D01*
X138489361Y-73213538D01*
X138484554Y-73210505D01*
X138288160Y-73132152D01*
X138282579Y-73131042D01*
X138282576Y-73131041D01*
X138146332Y-73103941D01*
X138080775Y-73090901D01*
X138075088Y-73090827D01*
X138075083Y-73090826D01*
X137875034Y-73088207D01*
X137875029Y-73088207D01*
X137869346Y-73088133D01*
X137863742Y-73089096D01*
X137863741Y-73089096D01*
X137666550Y-73122979D01*
X137666547Y-73122980D01*
X137660953Y-73123941D01*
X137462575Y-73197127D01*
X137457697Y-73200029D01*
X137457695Y-73200030D01*
X137285740Y-73302332D01*
X137285737Y-73302334D01*
X137280856Y-73305238D01*
X137121881Y-73444655D01*
X137118362Y-73449119D01*
X137118359Y-73449122D01*
X137100782Y-73471419D01*
X136990976Y-73610708D01*
X136892523Y-73797836D01*
X136890837Y-73803267D01*
X136890835Y-73803271D01*
X136860285Y-73901660D01*
X136829820Y-73999773D01*
X136829152Y-74005418D01*
X136829151Y-74005422D01*
X136817640Y-74102681D01*
X136790213Y-74166942D01*
X136732397Y-74206173D01*
X136662549Y-74207919D01*
X136602845Y-74171625D01*
X136572241Y-74108814D01*
X136570500Y-74088106D01*
X136570500Y-73345354D01*
X136567382Y-73319154D01*
X136521939Y-73216847D01*
X136442713Y-73137759D01*
X136432242Y-73133130D01*
X136432241Y-73133129D01*
X136348853Y-73096263D01*
X136348851Y-73096262D01*
X136340327Y-73092494D01*
X136314646Y-73089500D01*
X134525354Y-73089500D01*
X134521700Y-73089935D01*
X134521698Y-73089935D01*
X134516734Y-73090526D01*
X134499154Y-73092618D01*
X134396847Y-73138061D01*
X134317759Y-73217287D01*
X134313130Y-73227758D01*
X134313129Y-73227759D01*
X134278010Y-73307197D01*
X134272494Y-73319673D01*
X134269500Y-73345354D01*
X134269500Y-75134646D01*
X132289620Y-75134646D01*
X132402645Y-75040644D01*
X132407012Y-75037012D01*
X132458776Y-74974772D01*
X132538584Y-74878813D01*
X132538585Y-74878811D01*
X132542219Y-74874442D01*
X132588078Y-74792556D01*
X132642756Y-74694922D01*
X132642759Y-74694916D01*
X132645537Y-74689955D01*
X132654443Y-74663721D01*
X132711675Y-74495118D01*
X132713504Y-74489730D01*
X132715464Y-74476216D01*
X132723571Y-74420300D01*
X132743846Y-74280470D01*
X132745429Y-74220000D01*
X132726081Y-74009440D01*
X132668686Y-73805931D01*
X132662211Y-73792800D01*
X132627430Y-73722272D01*
X132575165Y-73616290D01*
X132448651Y-73446867D01*
X132444481Y-73443012D01*
X132444478Y-73443009D01*
X132342817Y-73349035D01*
X132293381Y-73303337D01*
X132239366Y-73269256D01*
X132119363Y-73193539D01*
X132119361Y-73193538D01*
X132114554Y-73190505D01*
X131918160Y-73112152D01*
X131912579Y-73111042D01*
X131912576Y-73111041D01*
X131797407Y-73088133D01*
X131710775Y-73070901D01*
X131705088Y-73070827D01*
X131705083Y-73070826D01*
X131505034Y-73068207D01*
X131505029Y-73068207D01*
X131499346Y-73068133D01*
X131493742Y-73069096D01*
X131493741Y-73069096D01*
X131296550Y-73102979D01*
X131296547Y-73102980D01*
X131290953Y-73103941D01*
X131092575Y-73177127D01*
X131087697Y-73180029D01*
X131087695Y-73180030D01*
X130915740Y-73282332D01*
X130915737Y-73282334D01*
X130910856Y-73285238D01*
X130751881Y-73424655D01*
X130748362Y-73429119D01*
X130748359Y-73429122D01*
X130730782Y-73451419D01*
X130620976Y-73590708D01*
X130522523Y-73777836D01*
X130520837Y-73783267D01*
X130520835Y-73783271D01*
X130482040Y-73908213D01*
X130459820Y-73979773D01*
X130442851Y-74123140D01*
X130415425Y-74187398D01*
X130360974Y-74224346D01*
X130280225Y-74224346D01*
X130280667Y-74224063D01*
X130228057Y-74192081D01*
X130197453Y-74129271D01*
X130196232Y-74119909D01*
X130186601Y-74015100D01*
X130186081Y-74009440D01*
X130128686Y-73805931D01*
X130122211Y-73792800D01*
X130087430Y-73722272D01*
X130035165Y-73616290D01*
X129908651Y-73446867D01*
X129904481Y-73443012D01*
X129904478Y-73443009D01*
X129802817Y-73349035D01*
X129753381Y-73303337D01*
X129699366Y-73269256D01*
X129579363Y-73193539D01*
X129579361Y-73193538D01*
X129574554Y-73190505D01*
X129378160Y-73112152D01*
X129372579Y-73111042D01*
X129372576Y-73111041D01*
X129257407Y-73088133D01*
X129170775Y-73070901D01*
X129165088Y-73070827D01*
X129165083Y-73070826D01*
X128965034Y-73068207D01*
X128965029Y-73068207D01*
X128959346Y-73068133D01*
X128953742Y-73069096D01*
X128953741Y-73069096D01*
X128756550Y-73102979D01*
X128756547Y-73102980D01*
X128750953Y-73103941D01*
X128552575Y-73177127D01*
X128547697Y-73180029D01*
X128547695Y-73180030D01*
X128375740Y-73282332D01*
X128375737Y-73282334D01*
X128370856Y-73285238D01*
X128211881Y-73424655D01*
X128208362Y-73429119D01*
X128208359Y-73429122D01*
X128190782Y-73451419D01*
X128080976Y-73590708D01*
X127982523Y-73777836D01*
X127980837Y-73783267D01*
X127980835Y-73783271D01*
X127942040Y-73908213D01*
X127919820Y-73979773D01*
X127902851Y-74123140D01*
X127875425Y-74187398D01*
X127820974Y-74224346D01*
X127740225Y-74224346D01*
X127740667Y-74224063D01*
X127688057Y-74192081D01*
X127657453Y-74129271D01*
X127656232Y-74119909D01*
X127646601Y-74015100D01*
X127646081Y-74009440D01*
X127588686Y-73805931D01*
X127582211Y-73792800D01*
X127547430Y-73722272D01*
X127495165Y-73616290D01*
X127368651Y-73446867D01*
X127364481Y-73443012D01*
X127364478Y-73443009D01*
X127262817Y-73349035D01*
X127213381Y-73303337D01*
X127159366Y-73269256D01*
X127039363Y-73193539D01*
X127039361Y-73193538D01*
X127034554Y-73190505D01*
X126838160Y-73112152D01*
X126832579Y-73111042D01*
X126832576Y-73111041D01*
X126717407Y-73088133D01*
X126630775Y-73070901D01*
X126625088Y-73070827D01*
X126625083Y-73070826D01*
X126425034Y-73068207D01*
X126425029Y-73068207D01*
X126419346Y-73068133D01*
X126413742Y-73069096D01*
X126413741Y-73069096D01*
X126216550Y-73102979D01*
X126216547Y-73102980D01*
X126210953Y-73103941D01*
X126012575Y-73177127D01*
X126007697Y-73180029D01*
X126007695Y-73180030D01*
X125835740Y-73282332D01*
X125835737Y-73282334D01*
X125830856Y-73285238D01*
X125671881Y-73424655D01*
X125541377Y-73590199D01*
X125484417Y-73630658D01*
X125414623Y-73633900D01*
X125354155Y-73598893D01*
X125322213Y-73536753D01*
X125320000Y-73513430D01*
X125320000Y-73326028D01*
X125319637Y-73319331D01*
X125314197Y-73269256D01*
X125310629Y-73254247D01*
X125266183Y-73135689D01*
X125257788Y-73120354D01*
X125182484Y-73019876D01*
X125170124Y-73007516D01*
X125069646Y-72932212D01*
X125054311Y-72923817D01*
X124935753Y-72879371D01*
X124920744Y-72875803D01*
X124870669Y-72870363D01*
X124863972Y-72870000D01*
X124237830Y-72870000D01*
X124222831Y-72874404D01*
X124221644Y-72875774D01*
X124220000Y-72883332D01*
X124220000Y-75552170D01*
X123720000Y-75552170D01*
X123720000Y-74487830D01*
X123715596Y-74472831D01*
X123714226Y-74471644D01*
X123706668Y-74470000D01*
X122637830Y-74470000D01*
X122622831Y-74474404D01*
X122621644Y-74475774D01*
X122620000Y-74483332D01*
X122620000Y-75113972D01*
X112897674Y-75113972D01*
X112903315Y-75071412D01*
X112903315Y-75071408D01*
X112904004Y-75066211D01*
X112895087Y-74828705D01*
X112888585Y-74797714D01*
X112847361Y-74601242D01*
X112847360Y-74601239D01*
X112846281Y-74596096D01*
X112809647Y-74503332D01*
X112779206Y-74426253D01*
X112758980Y-74375037D01*
X112732694Y-74331718D01*
X112638408Y-74176341D01*
X112635681Y-74171847D01*
X112512107Y-74029440D01*
X112483356Y-73996307D01*
X112483355Y-73996306D01*
X112479910Y-73992336D01*
X112430924Y-73952170D01*
X122620000Y-73952170D01*
X122624404Y-73967169D01*
X122625774Y-73968356D01*
X122633332Y-73970000D01*
X123702170Y-73970000D01*
X123717169Y-73965596D01*
X123718356Y-73964226D01*
X123720000Y-73956668D01*
X123720000Y-72887830D01*
X123715596Y-72872831D01*
X123714226Y-72871644D01*
X123706668Y-72870000D01*
X123076028Y-72870000D01*
X123069331Y-72870363D01*
X123019256Y-72875803D01*
X123004247Y-72879371D01*
X122885689Y-72923817D01*
X122870354Y-72932212D01*
X122769876Y-73007516D01*
X122757516Y-73019876D01*
X122682212Y-73120354D01*
X122673817Y-73135689D01*
X122629371Y-73254247D01*
X122625803Y-73269256D01*
X122620363Y-73319331D01*
X122620000Y-73326028D01*
X122620000Y-73952170D01*
X112430924Y-73952170D01*
X112296120Y-73841638D01*
X112284510Y-73835029D01*
X112094125Y-73726655D01*
X112094120Y-73726653D01*
X112089567Y-73724061D01*
X111866156Y-73642966D01*
X111632275Y-73600674D01*
X111607381Y-73599500D01*
X111440320Y-73599500D01*
X111437704Y-73599722D01*
X111437703Y-73599722D01*
X111426484Y-73600674D01*
X111263177Y-73614531D01*
X111033126Y-73674240D01*
X110816424Y-73771857D01*
X110619268Y-73904591D01*
X110447295Y-74068645D01*
X110305421Y-74259330D01*
X110303042Y-74264008D01*
X110303042Y-74264009D01*
X110220554Y-74426253D01*
X110197705Y-74471193D01*
X110196146Y-74476213D01*
X110196145Y-74476216D01*
X110149732Y-74625690D01*
X110127225Y-74698176D01*
X110126534Y-74703386D01*
X110126534Y-74703388D01*
X110098796Y-74912667D01*
X110095996Y-74933789D01*
X108800500Y-74933789D01*
X108800500Y-68912638D01*
X130754758Y-68912638D01*
X130755578Y-68920066D01*
X130755578Y-68920068D01*
X130765212Y-69007333D01*
X130772035Y-69069133D01*
X130774601Y-69076145D01*
X130774602Y-69076149D01*
X130779341Y-69089098D01*
X130826143Y-69216990D01*
X130913958Y-69347672D01*
X130936183Y-69367895D01*
X131024878Y-69448602D01*
X131024882Y-69448605D01*
X131030410Y-69453635D01*
X131168776Y-69528762D01*
X131271031Y-69555588D01*
X131313841Y-69566819D01*
X131313843Y-69566819D01*
X131321069Y-69568715D01*
X131398127Y-69569925D01*
X131471025Y-69571071D01*
X131471028Y-69571071D01*
X131478495Y-69571188D01*
X131485776Y-69569520D01*
X131485780Y-69569520D01*
X131624681Y-69537707D01*
X131631968Y-69536038D01*
X131772625Y-69465295D01*
X131778306Y-69460443D01*
X131778309Y-69460441D01*
X131886666Y-69367895D01*
X131886667Y-69367894D01*
X131892348Y-69363042D01*
X131903393Y-69347672D01*
X131923798Y-69319275D01*
X131984224Y-69235183D01*
X132042950Y-69089098D01*
X132055646Y-68999887D01*
X132084580Y-68936291D01*
X132143304Y-68898432D01*
X132213173Y-68898332D01*
X132237577Y-68908386D01*
X132288972Y-68936291D01*
X132348776Y-68968762D01*
X132440427Y-68992806D01*
X132493841Y-69006819D01*
X132493843Y-69006819D01*
X132501069Y-69008715D01*
X132578127Y-69009925D01*
X132651025Y-69011071D01*
X132651028Y-69011071D01*
X132658495Y-69011188D01*
X132665776Y-69009520D01*
X132665780Y-69009520D01*
X132804681Y-68977707D01*
X132811968Y-68976038D01*
X132952625Y-68905295D01*
X132958306Y-68900443D01*
X132958309Y-68900441D01*
X132991119Y-68872418D01*
X133029715Y-68839454D01*
X133093474Y-68810884D01*
X133162560Y-68821321D01*
X133193695Y-68842028D01*
X133250410Y-68893635D01*
X133256980Y-68897202D01*
X133256981Y-68897203D01*
X133328972Y-68936291D01*
X133388776Y-68968762D01*
X133480427Y-68992806D01*
X133533841Y-69006819D01*
X133533843Y-69006819D01*
X133541069Y-69008715D01*
X133618127Y-69009925D01*
X133691025Y-69011071D01*
X133691028Y-69011071D01*
X133698495Y-69011188D01*
X133705776Y-69009520D01*
X133705780Y-69009520D01*
X133844681Y-68977707D01*
X133851968Y-68976038D01*
X133992625Y-68905295D01*
X134064328Y-68844055D01*
X134128089Y-68815485D01*
X134197175Y-68825922D01*
X134228309Y-68846629D01*
X134279968Y-68893635D01*
X134286538Y-68897202D01*
X134286539Y-68897203D01*
X134358530Y-68936291D01*
X134418334Y-68968762D01*
X134509985Y-68992806D01*
X134563399Y-69006819D01*
X134563401Y-69006819D01*
X134570627Y-69008715D01*
X134647685Y-69009925D01*
X134720583Y-69011071D01*
X134720586Y-69011071D01*
X134728053Y-69011188D01*
X134735334Y-69009520D01*
X134735338Y-69009520D01*
X134874239Y-68977707D01*
X134881526Y-68976038D01*
X135022183Y-68905295D01*
X135027864Y-68900443D01*
X135027867Y-68900441D01*
X135136224Y-68807895D01*
X135136225Y-68807894D01*
X135141906Y-68803042D01*
X135152951Y-68787672D01*
X135180327Y-68749573D01*
X135233782Y-68675183D01*
X135292508Y-68529098D01*
X135293561Y-68521701D01*
X135314120Y-68377244D01*
X135314120Y-68377240D01*
X135314692Y-68373223D01*
X135314836Y-68359500D01*
X135295921Y-68203194D01*
X135240268Y-68055912D01*
X135236031Y-68049747D01*
X135162202Y-67942326D01*
X156372667Y-67942326D01*
X156425168Y-68138264D01*
X156428857Y-68148397D01*
X156524110Y-68352667D01*
X156529508Y-68362017D01*
X156658784Y-68546643D01*
X156665719Y-68554907D01*
X156825091Y-68714279D01*
X156833357Y-68721215D01*
X157017992Y-68850498D01*
X157027324Y-68855886D01*
X157231603Y-68951143D01*
X157241736Y-68954832D01*
X157432779Y-69006022D01*
X157446653Y-69005691D01*
X157450000Y-68997875D01*
X157450000Y-68992806D01*
X157950000Y-68992806D01*
X157953910Y-69006123D01*
X157962326Y-69007333D01*
X158158264Y-68954832D01*
X158168397Y-68951143D01*
X158372676Y-68855886D01*
X158382008Y-68850498D01*
X158566643Y-68721215D01*
X158574909Y-68714279D01*
X158734281Y-68554907D01*
X158741216Y-68546643D01*
X158870492Y-68362017D01*
X158875890Y-68352667D01*
X158971143Y-68148397D01*
X158974832Y-68138264D01*
X159026022Y-67947221D01*
X159025691Y-67933347D01*
X159017875Y-67930000D01*
X157967830Y-67930000D01*
X157952831Y-67934404D01*
X157951644Y-67935774D01*
X157950000Y-67943332D01*
X157950000Y-68992806D01*
X157450000Y-68992806D01*
X157450000Y-67947830D01*
X157445596Y-67932831D01*
X157444226Y-67931644D01*
X157436668Y-67930000D01*
X156387194Y-67930000D01*
X156373877Y-67933910D01*
X156372667Y-67942326D01*
X135162202Y-67942326D01*
X135155326Y-67932321D01*
X135155323Y-67932318D01*
X135151089Y-67926157D01*
X135145503Y-67921180D01*
X135141046Y-67916125D01*
X135111476Y-67852821D01*
X135110058Y-67834120D01*
X135110058Y-67412779D01*
X156373978Y-67412779D01*
X156374309Y-67426653D01*
X156382125Y-67430000D01*
X159012806Y-67430000D01*
X159026123Y-67426090D01*
X159027333Y-67417674D01*
X158974832Y-67221736D01*
X158971143Y-67211603D01*
X158875890Y-67007333D01*
X158870492Y-66997983D01*
X158741216Y-66813357D01*
X158734281Y-66805093D01*
X158574909Y-66645721D01*
X158566643Y-66638785D01*
X158391396Y-66516075D01*
X158347772Y-66461498D01*
X158340579Y-66391999D01*
X158372101Y-66329645D01*
X158432331Y-66294231D01*
X158462520Y-66290500D01*
X158594646Y-66290500D01*
X158598300Y-66290065D01*
X158598302Y-66290065D01*
X158603266Y-66289474D01*
X158620846Y-66287382D01*
X158723153Y-66241939D01*
X158802241Y-66162713D01*
X158806871Y-66152241D01*
X158843737Y-66068853D01*
X158843738Y-66068851D01*
X158847506Y-66060327D01*
X158850500Y-66034646D01*
X158850500Y-64245354D01*
X158847382Y-64219154D01*
X158801939Y-64116847D01*
X158722713Y-64037759D01*
X158712242Y-64033130D01*
X158712241Y-64033129D01*
X158628853Y-63996263D01*
X158628851Y-63996262D01*
X158620327Y-63992494D01*
X158594646Y-63989500D01*
X156805354Y-63989500D01*
X156801700Y-63989935D01*
X156801698Y-63989935D01*
X156796734Y-63990526D01*
X156779154Y-63992618D01*
X156676847Y-64038061D01*
X156597759Y-64117287D01*
X156593130Y-64127758D01*
X156593129Y-64127759D01*
X156566385Y-64188253D01*
X156552494Y-64219673D01*
X156549500Y-64245354D01*
X156549500Y-66034646D01*
X156552618Y-66060846D01*
X156598061Y-66163153D01*
X156677287Y-66242241D01*
X156687758Y-66246870D01*
X156687759Y-66246871D01*
X156771147Y-66283737D01*
X156771149Y-66283738D01*
X156779673Y-66287506D01*
X156805354Y-66290500D01*
X156937482Y-66290500D01*
X157004521Y-66310185D01*
X157050276Y-66362989D01*
X157060220Y-66432147D01*
X157031195Y-66495703D01*
X157008605Y-66516075D01*
X156833357Y-66638784D01*
X156825093Y-66645719D01*
X156665719Y-66805093D01*
X156658784Y-66813357D01*
X156529508Y-66997983D01*
X156524110Y-67007333D01*
X156428857Y-67211603D01*
X156425168Y-67221736D01*
X156373978Y-67412779D01*
X135110058Y-67412779D01*
X135110058Y-65985695D01*
X135129743Y-65918656D01*
X135139314Y-65906256D01*
X135141906Y-65904042D01*
X135233782Y-65776183D01*
X135292508Y-65630098D01*
X135293691Y-65621788D01*
X135314120Y-65478244D01*
X135314120Y-65478240D01*
X135314692Y-65474223D01*
X135314836Y-65460500D01*
X135310643Y-65425847D01*
X135296820Y-65311619D01*
X135296819Y-65311615D01*
X135295921Y-65304194D01*
X135267074Y-65227853D01*
X135242912Y-65163908D01*
X135242910Y-65163905D01*
X135240268Y-65156912D01*
X135218709Y-65125544D01*
X135155326Y-65033321D01*
X135155323Y-65033318D01*
X135151089Y-65027157D01*
X135078402Y-64962395D01*
X135039117Y-64927393D01*
X135039116Y-64927392D01*
X135033534Y-64922419D01*
X134894389Y-64848745D01*
X134741686Y-64810389D01*
X134659887Y-64809961D01*
X134591716Y-64809604D01*
X134591715Y-64809604D01*
X134584242Y-64809565D01*
X134576979Y-64811309D01*
X134576976Y-64811309D01*
X134529247Y-64822768D01*
X134431146Y-64846320D01*
X134291237Y-64918532D01*
X134285605Y-64923445D01*
X134279419Y-64927649D01*
X134276913Y-64923961D01*
X134236076Y-64946260D01*
X134166384Y-64941276D01*
X134110451Y-64899404D01*
X134086034Y-64833940D01*
X134089943Y-64793003D01*
X134090223Y-64791958D01*
X134093008Y-64785030D01*
X134113706Y-64639598D01*
X134114620Y-64633176D01*
X134114620Y-64633172D01*
X134115192Y-64629155D01*
X134115336Y-64615432D01*
X134108913Y-64562352D01*
X134097320Y-64466551D01*
X134097319Y-64466547D01*
X134096421Y-64459126D01*
X134040768Y-64311844D01*
X133997539Y-64248946D01*
X133955826Y-64188253D01*
X133955823Y-64188250D01*
X133951589Y-64182089D01*
X133890611Y-64127759D01*
X133839617Y-64082325D01*
X133839616Y-64082324D01*
X133834034Y-64077351D01*
X133694889Y-64003677D01*
X133542186Y-63965321D01*
X133460387Y-63964893D01*
X133392216Y-63964536D01*
X133392215Y-63964536D01*
X133384742Y-63964497D01*
X133377479Y-63966241D01*
X133377476Y-63966241D01*
X133320167Y-63980000D01*
X133231646Y-64001252D01*
X133091737Y-64073464D01*
X132973092Y-64176965D01*
X132882559Y-64305780D01*
X132825367Y-64452471D01*
X132804816Y-64608570D01*
X132805636Y-64615998D01*
X132805636Y-64616000D01*
X132815208Y-64702700D01*
X132802999Y-64771495D01*
X132755535Y-64822768D01*
X132720903Y-64836881D01*
X132681588Y-64846320D01*
X132541679Y-64918532D01*
X132536048Y-64923445D01*
X132536047Y-64923445D01*
X132453799Y-64995195D01*
X132423034Y-65022033D01*
X132421745Y-65020556D01*
X132370857Y-65051911D01*
X132301000Y-65050585D01*
X132255698Y-65024875D01*
X132146287Y-64927393D01*
X132146286Y-64927392D01*
X132140704Y-64922419D01*
X132001559Y-64848745D01*
X131848856Y-64810389D01*
X131767057Y-64809961D01*
X131698886Y-64809604D01*
X131698885Y-64809604D01*
X131691412Y-64809565D01*
X131684149Y-64811309D01*
X131684146Y-64811309D01*
X131636417Y-64822768D01*
X131538316Y-64846320D01*
X131398407Y-64918532D01*
X131279762Y-65022033D01*
X131189229Y-65150848D01*
X131132037Y-65297539D01*
X131116819Y-65413129D01*
X131113949Y-65434930D01*
X131082190Y-65501966D01*
X131077890Y-65505356D01*
X131056039Y-65536973D01*
X131044510Y-65553654D01*
X131042281Y-65556774D01*
X131007366Y-65604044D01*
X131004973Y-65610860D01*
X131000869Y-65616797D01*
X130994470Y-65637030D01*
X130983175Y-65672744D01*
X130981943Y-65676437D01*
X130965552Y-65723112D01*
X130965551Y-65723116D01*
X130962481Y-65731859D01*
X130962202Y-65738963D01*
X130962153Y-65739214D01*
X130960020Y-65745958D01*
X130959500Y-65752565D01*
X130959500Y-65805296D01*
X130959404Y-65810165D01*
X130957162Y-65867222D01*
X130959040Y-65874306D01*
X130959500Y-65882666D01*
X130959500Y-68394277D01*
X130939815Y-68461316D01*
X130928204Y-68476523D01*
X130923034Y-68481033D01*
X130832501Y-68609848D01*
X130775309Y-68756539D01*
X130754758Y-68912638D01*
X108800500Y-68912638D01*
X108800500Y-63949754D01*
X110904967Y-63949754D01*
X110905338Y-63955416D01*
X110905338Y-63955420D01*
X110910450Y-64033414D01*
X110918796Y-64160749D01*
X110970845Y-64365690D01*
X110973219Y-64370841D01*
X110973221Y-64370845D01*
X111025259Y-64483723D01*
X111059369Y-64557714D01*
X111181405Y-64730391D01*
X111332865Y-64877937D01*
X111337588Y-64881093D01*
X111337592Y-64881096D01*
X111394202Y-64918921D01*
X111508677Y-64995411D01*
X111702953Y-65078878D01*
X111904829Y-65124558D01*
X111965871Y-65158552D01*
X111998844Y-65220152D01*
X111993279Y-65289800D01*
X111950943Y-65345383D01*
X111885277Y-65369253D01*
X111877462Y-65369500D01*
X111165354Y-65369500D01*
X111161700Y-65369935D01*
X111161698Y-65369935D01*
X111156734Y-65370526D01*
X111139154Y-65372618D01*
X111036847Y-65418061D01*
X110957759Y-65497287D01*
X110953130Y-65507758D01*
X110953129Y-65507759D01*
X110940214Y-65536973D01*
X110912494Y-65599673D01*
X110909500Y-65625354D01*
X110909500Y-67414646D01*
X110912618Y-67440846D01*
X110958061Y-67543153D01*
X111037287Y-67622241D01*
X111047758Y-67626870D01*
X111047759Y-67626871D01*
X111131147Y-67663737D01*
X111131149Y-67663738D01*
X111139673Y-67667506D01*
X111165354Y-67670500D01*
X112954646Y-67670500D01*
X112958300Y-67670065D01*
X112958302Y-67670065D01*
X112963266Y-67669474D01*
X112980846Y-67667382D01*
X113083153Y-67621939D01*
X113162241Y-67542713D01*
X113207506Y-67440327D01*
X113210500Y-67414646D01*
X113210500Y-66155943D01*
X120391074Y-66155943D01*
X120391894Y-66163371D01*
X120391894Y-66163373D01*
X120393790Y-66180549D01*
X120408351Y-66312438D01*
X120410917Y-66319450D01*
X120410918Y-66319454D01*
X120415657Y-66332403D01*
X120462459Y-66460295D01*
X120550274Y-66590977D01*
X120572499Y-66611200D01*
X120661194Y-66691907D01*
X120661198Y-66691910D01*
X120666726Y-66696940D01*
X120805092Y-66772067D01*
X120907347Y-66798893D01*
X120950157Y-66810124D01*
X120950159Y-66810124D01*
X120957385Y-66812020D01*
X121034443Y-66813230D01*
X121107341Y-66814376D01*
X121107344Y-66814376D01*
X121114811Y-66814493D01*
X121122092Y-66812825D01*
X121122096Y-66812825D01*
X121260997Y-66781012D01*
X121268284Y-66779343D01*
X121408941Y-66708600D01*
X121414622Y-66703748D01*
X121414625Y-66703746D01*
X121522982Y-66611200D01*
X121522983Y-66611199D01*
X121528664Y-66606347D01*
X121539709Y-66590977D01*
X121593531Y-66516075D01*
X121620540Y-66478488D01*
X121679266Y-66332403D01*
X121681109Y-66319454D01*
X121700878Y-66180549D01*
X121700878Y-66180545D01*
X121701450Y-66176528D01*
X121701506Y-66171240D01*
X121701551Y-66166869D01*
X121701594Y-66162805D01*
X121690809Y-66073679D01*
X121683578Y-66013924D01*
X121683577Y-66013920D01*
X121682679Y-66006499D01*
X121627026Y-65859217D01*
X121624293Y-65855240D01*
X121610500Y-65799087D01*
X121610500Y-64995195D01*
X121630185Y-64928156D01*
X121639756Y-64915756D01*
X121642348Y-64913542D01*
X121734224Y-64785683D01*
X121792950Y-64639598D01*
X121794390Y-64629479D01*
X121814562Y-64487744D01*
X121814562Y-64487740D01*
X121815134Y-64483723D01*
X121815278Y-64470000D01*
X121803279Y-64370845D01*
X121797262Y-64321119D01*
X121797261Y-64321115D01*
X121796363Y-64313694D01*
X121764334Y-64228932D01*
X121743354Y-64173408D01*
X121743352Y-64173405D01*
X121740710Y-64166412D01*
X121732337Y-64154229D01*
X121655768Y-64042821D01*
X121655765Y-64042818D01*
X121651531Y-64036657D01*
X121572498Y-63966241D01*
X121539559Y-63936893D01*
X121539558Y-63936892D01*
X121533976Y-63931919D01*
X121394831Y-63858245D01*
X121242128Y-63819889D01*
X121160329Y-63819461D01*
X121092158Y-63819104D01*
X121092157Y-63819104D01*
X121084684Y-63819065D01*
X121077421Y-63820809D01*
X121077418Y-63820809D01*
X121008136Y-63837443D01*
X120931588Y-63855820D01*
X120791679Y-63928032D01*
X120786048Y-63932945D01*
X120786047Y-63932945D01*
X120736281Y-63976359D01*
X120673034Y-64031533D01*
X120582501Y-64160348D01*
X120525309Y-64307039D01*
X120504758Y-64463138D01*
X120505578Y-64470566D01*
X120505578Y-64470568D01*
X120507474Y-64487744D01*
X120522035Y-64619633D01*
X120524601Y-64626645D01*
X120524602Y-64626649D01*
X120529341Y-64639598D01*
X120576143Y-64767490D01*
X120580314Y-64773697D01*
X120647694Y-64873968D01*
X120663958Y-64898172D01*
X120669488Y-64903204D01*
X120674372Y-64908862D01*
X120673272Y-64909811D01*
X120705290Y-64962395D01*
X120709500Y-64994432D01*
X120709500Y-65536973D01*
X120689815Y-65604012D01*
X120667015Y-65630415D01*
X120618493Y-65672744D01*
X120559350Y-65724338D01*
X120468817Y-65853153D01*
X120466101Y-65860118D01*
X120466101Y-65860119D01*
X120448976Y-65904042D01*
X120411625Y-65999844D01*
X120391074Y-66155943D01*
X113210500Y-66155943D01*
X113210500Y-65625354D01*
X113209963Y-65620837D01*
X113208481Y-65608390D01*
X113207382Y-65599154D01*
X113161939Y-65496847D01*
X113082713Y-65417759D01*
X113072242Y-65413130D01*
X113072241Y-65413129D01*
X112988853Y-65376263D01*
X112988851Y-65376262D01*
X112980327Y-65372494D01*
X112954646Y-65369500D01*
X112214562Y-65369500D01*
X112147523Y-65349815D01*
X112101768Y-65297011D01*
X112091824Y-65227853D01*
X112120849Y-65164297D01*
X112179627Y-65126523D01*
X112196769Y-65122783D01*
X112324102Y-65104320D01*
X112329730Y-65103504D01*
X112481719Y-65051911D01*
X112524565Y-65037367D01*
X112524568Y-65037366D01*
X112529955Y-65035537D01*
X112534916Y-65032759D01*
X112534922Y-65032756D01*
X112689370Y-64946260D01*
X112714442Y-64932219D01*
X112719328Y-64928156D01*
X112872645Y-64800644D01*
X112877012Y-64797012D01*
X112907404Y-64760469D01*
X113008584Y-64638813D01*
X113008585Y-64638811D01*
X113012219Y-64634442D01*
X113058078Y-64552556D01*
X113112756Y-64454922D01*
X113112759Y-64454916D01*
X113115537Y-64449955D01*
X113146009Y-64360189D01*
X113181675Y-64255118D01*
X113183504Y-64249730D01*
X113213846Y-64040470D01*
X113215429Y-63980000D01*
X113196081Y-63769440D01*
X113138686Y-63565931D01*
X113045165Y-63376290D01*
X112918651Y-63206867D01*
X112914481Y-63203012D01*
X112914478Y-63203009D01*
X112850319Y-63143702D01*
X112763381Y-63063337D01*
X112584554Y-62950505D01*
X112388160Y-62872152D01*
X112382579Y-62871042D01*
X112382576Y-62871041D01*
X112186355Y-62832011D01*
X112186356Y-62832011D01*
X112180775Y-62830901D01*
X112180744Y-62830901D01*
X112117828Y-62805019D01*
X112077841Y-62747723D01*
X112075178Y-62677904D01*
X112110684Y-62617729D01*
X112177606Y-62585562D01*
X112324103Y-62564320D01*
X112324104Y-62564320D01*
X112329730Y-62563504D01*
X112408890Y-62536633D01*
X112524565Y-62497367D01*
X112524568Y-62497366D01*
X112529955Y-62495537D01*
X112534916Y-62492759D01*
X112534922Y-62492756D01*
X112641530Y-62433052D01*
X112714442Y-62392219D01*
X112868953Y-62263715D01*
X112872645Y-62260644D01*
X112877012Y-62257012D01*
X112907631Y-62220196D01*
X113008584Y-62098813D01*
X113008585Y-62098811D01*
X113012219Y-62094442D01*
X113104209Y-61930183D01*
X113112756Y-61914922D01*
X113112759Y-61914916D01*
X113115537Y-61909955D01*
X113135843Y-61850137D01*
X113181675Y-61715118D01*
X113183504Y-61709730D01*
X113213846Y-61500470D01*
X113215429Y-61440000D01*
X113196081Y-61229440D01*
X113138686Y-61025931D01*
X113045165Y-60836290D01*
X112918651Y-60666867D01*
X112914481Y-60663012D01*
X112914478Y-60663009D01*
X112804724Y-60561554D01*
X112763381Y-60523337D01*
X112730090Y-60502332D01*
X112589363Y-60413539D01*
X112589361Y-60413538D01*
X112584554Y-60410505D01*
X112388160Y-60332152D01*
X112382579Y-60331042D01*
X112382576Y-60331041D01*
X112186355Y-60292011D01*
X112186356Y-60292011D01*
X112180775Y-60290901D01*
X112180744Y-60290901D01*
X112117828Y-60265019D01*
X112078480Y-60208638D01*
X126844758Y-60208638D01*
X126845578Y-60216066D01*
X126845578Y-60216068D01*
X126852431Y-60278138D01*
X126862035Y-60365133D01*
X126864601Y-60372145D01*
X126864602Y-60372149D01*
X126886312Y-60431472D01*
X126916143Y-60512990D01*
X127003958Y-60643672D01*
X127029449Y-60666867D01*
X127114878Y-60744602D01*
X127114882Y-60744605D01*
X127120410Y-60749635D01*
X127126980Y-60753202D01*
X127126981Y-60753203D01*
X127204668Y-60795384D01*
X127254191Y-60844672D01*
X127269500Y-60904357D01*
X127269500Y-61089277D01*
X127249815Y-61156316D01*
X127238204Y-61171523D01*
X127233034Y-61176033D01*
X127142501Y-61304848D01*
X127085309Y-61451539D01*
X127064758Y-61607638D01*
X127065578Y-61615066D01*
X127065578Y-61615068D01*
X127071848Y-61671862D01*
X127082035Y-61764133D01*
X127084601Y-61771145D01*
X127084602Y-61771149D01*
X127113116Y-61849065D01*
X127136143Y-61911990D01*
X127223958Y-62042672D01*
X127246183Y-62062895D01*
X127334878Y-62143602D01*
X127334882Y-62143605D01*
X127340410Y-62148635D01*
X127346980Y-62152202D01*
X127346981Y-62152203D01*
X127424621Y-62194358D01*
X127478776Y-62223762D01*
X127581031Y-62250588D01*
X127623841Y-62261819D01*
X127623843Y-62261819D01*
X127631069Y-62263715D01*
X127708127Y-62264925D01*
X127781025Y-62266071D01*
X127781028Y-62266071D01*
X127788495Y-62266188D01*
X127795776Y-62264520D01*
X127795780Y-62264520D01*
X127934681Y-62232707D01*
X127941968Y-62231038D01*
X128082625Y-62160295D01*
X128088306Y-62155443D01*
X128088309Y-62155441D01*
X128196666Y-62062895D01*
X128196667Y-62062894D01*
X128202348Y-62058042D01*
X128213393Y-62042672D01*
X128235033Y-62012556D01*
X128294224Y-61930183D01*
X128352950Y-61784098D01*
X128354793Y-61771149D01*
X128374562Y-61632244D01*
X128374562Y-61632240D01*
X128375134Y-61628223D01*
X128375278Y-61614500D01*
X128373551Y-61600227D01*
X128357262Y-61465619D01*
X128357261Y-61465615D01*
X128356363Y-61458194D01*
X128336603Y-61405901D01*
X128303354Y-61317908D01*
X128303352Y-61317905D01*
X128300710Y-61310912D01*
X128248606Y-61235101D01*
X128215768Y-61187321D01*
X128215765Y-61187318D01*
X128211531Y-61181157D01*
X128205945Y-61176180D01*
X128201488Y-61171125D01*
X128171918Y-61107821D01*
X128170500Y-61089120D01*
X128170500Y-60817806D01*
X154574563Y-60817806D01*
X154575112Y-60823839D01*
X154575112Y-60823843D01*
X154584395Y-60925840D01*
X154592790Y-61018089D01*
X154594501Y-61023902D01*
X154594501Y-61023903D01*
X154619575Y-61109096D01*
X154649572Y-61211018D01*
X154742746Y-61389243D01*
X154829249Y-61496831D01*
X154864137Y-61540222D01*
X154868763Y-61545976D01*
X155022823Y-61675248D01*
X155199058Y-61772134D01*
X155204840Y-61773968D01*
X155204842Y-61773969D01*
X155384976Y-61831111D01*
X155384978Y-61831111D01*
X155390755Y-61832944D01*
X155445287Y-61839061D01*
X155543815Y-61850113D01*
X155543821Y-61850113D01*
X155547268Y-61850500D01*
X156205606Y-61850500D01*
X156208621Y-61850204D01*
X156208629Y-61850204D01*
X156349115Y-61836429D01*
X156349117Y-61836429D01*
X156355151Y-61835837D01*
X156547679Y-61777710D01*
X156560019Y-61771149D01*
X156719891Y-61686143D01*
X156719892Y-61686143D01*
X156725249Y-61683294D01*
X156881099Y-61556186D01*
X157009292Y-61401227D01*
X157016203Y-61388446D01*
X157102059Y-61229658D01*
X157102060Y-61229656D01*
X157104945Y-61224320D01*
X157164415Y-61032203D01*
X157175594Y-60925840D01*
X158475711Y-60925840D01*
X158485667Y-61115801D01*
X158536181Y-61299193D01*
X158539313Y-61305133D01*
X158620013Y-61458194D01*
X158624898Y-61467460D01*
X158629229Y-61472585D01*
X158629231Y-61472588D01*
X158737094Y-61600227D01*
X158747678Y-61612751D01*
X158765338Y-61626253D01*
X158893456Y-61724207D01*
X158893459Y-61724209D01*
X158898793Y-61728287D01*
X158904882Y-61731126D01*
X158904883Y-61731127D01*
X159065109Y-61805841D01*
X159071193Y-61808678D01*
X159077738Y-61810141D01*
X159077741Y-61810142D01*
X159169890Y-61830740D01*
X159256834Y-61850174D01*
X159262665Y-61850500D01*
X160052517Y-61850500D01*
X160194109Y-61835118D01*
X160374396Y-61774445D01*
X160537447Y-61676474D01*
X160664649Y-61556186D01*
X160670781Y-61550387D01*
X160675658Y-61545775D01*
X160725396Y-61472588D01*
X160778804Y-61394000D01*
X160778806Y-61393997D01*
X160782578Y-61388446D01*
X160785070Y-61382216D01*
X160785072Y-61382212D01*
X160850727Y-61218062D01*
X160853221Y-61211827D01*
X160854318Y-61205202D01*
X160883192Y-61030788D01*
X160883192Y-61030786D01*
X160884289Y-61024160D01*
X160874333Y-60834199D01*
X160823819Y-60650807D01*
X160754429Y-60519197D01*
X160738234Y-60488480D01*
X160738233Y-60488479D01*
X160735102Y-60482540D01*
X160724170Y-60469603D01*
X160616655Y-60342376D01*
X160616653Y-60342374D01*
X160612322Y-60337249D01*
X160548081Y-60288133D01*
X160466544Y-60225793D01*
X160466541Y-60225791D01*
X160461207Y-60221713D01*
X160449102Y-60216068D01*
X160294891Y-60144159D01*
X160288807Y-60141322D01*
X160282262Y-60139859D01*
X160282259Y-60139858D01*
X160170522Y-60114882D01*
X160103166Y-60099826D01*
X160097335Y-60099500D01*
X159307483Y-60099500D01*
X159165891Y-60114882D01*
X158985604Y-60175555D01*
X158822553Y-60273526D01*
X158684342Y-60404225D01*
X158680569Y-60409777D01*
X158680568Y-60409778D01*
X158600771Y-60527197D01*
X158577422Y-60561554D01*
X158574930Y-60567784D01*
X158574928Y-60567788D01*
X158533479Y-60671419D01*
X158506779Y-60738173D01*
X158505683Y-60744796D01*
X158505682Y-60744798D01*
X158491954Y-60827726D01*
X158475711Y-60925840D01*
X157175594Y-60925840D01*
X157185437Y-60832194D01*
X157183941Y-60815747D01*
X157169519Y-60657280D01*
X157167210Y-60631911D01*
X157110428Y-60438982D01*
X157107617Y-60433606D01*
X157105346Y-60427984D01*
X157106705Y-60427435D01*
X157094512Y-60366039D01*
X157120113Y-60301029D01*
X157169618Y-60265100D01*
X157169029Y-60263928D01*
X157313820Y-60191106D01*
X157313822Y-60191105D01*
X157320498Y-60187747D01*
X157326180Y-60182894D01*
X157326183Y-60182892D01*
X157443741Y-60082487D01*
X157449423Y-60077634D01*
X157548361Y-59939947D01*
X157611601Y-59782634D01*
X157612654Y-59775237D01*
X157634918Y-59618800D01*
X157634918Y-59618794D01*
X157635490Y-59614778D01*
X157635645Y-59600000D01*
X157615276Y-59431680D01*
X157591952Y-59369955D01*
X157557989Y-59280073D01*
X157557987Y-59280070D01*
X157555345Y-59273077D01*
X157546657Y-59260436D01*
X157463549Y-59139513D01*
X157463546Y-59139510D01*
X157459312Y-59133349D01*
X157369332Y-59053179D01*
X157338303Y-59025533D01*
X157338301Y-59025532D01*
X157332721Y-59020560D01*
X157318347Y-59012949D01*
X157245039Y-58974135D01*
X157182881Y-58941224D01*
X157018441Y-58899919D01*
X156932248Y-58899468D01*
X156856368Y-58899070D01*
X156856367Y-58899070D01*
X156848895Y-58899031D01*
X156829643Y-58903653D01*
X156691295Y-58936868D01*
X156691293Y-58936869D01*
X156684032Y-58938612D01*
X156677399Y-58942035D01*
X156677395Y-58942037D01*
X156615207Y-58974135D01*
X156533369Y-59016375D01*
X156527737Y-59021288D01*
X156447036Y-59091688D01*
X156405604Y-59127831D01*
X156308113Y-59266547D01*
X156246524Y-59424513D01*
X156245548Y-59431923D01*
X156245548Y-59431925D01*
X156235459Y-59508562D01*
X156224394Y-59592611D01*
X156225214Y-59600039D01*
X156225214Y-59600041D01*
X156232043Y-59661893D01*
X156219834Y-59730687D01*
X156172370Y-59781960D01*
X156108792Y-59799500D01*
X155554394Y-59799500D01*
X155551379Y-59799796D01*
X155551371Y-59799796D01*
X155410885Y-59813571D01*
X155410883Y-59813571D01*
X155404849Y-59814163D01*
X155212321Y-59872290D01*
X155206970Y-59875135D01*
X155206968Y-59875136D01*
X155098116Y-59933014D01*
X155034751Y-59966706D01*
X155030049Y-59970541D01*
X154920418Y-60059954D01*
X154878901Y-60093814D01*
X154750708Y-60248773D01*
X154747822Y-60254110D01*
X154747821Y-60254112D01*
X154661620Y-60413539D01*
X154655055Y-60425680D01*
X154595585Y-60617797D01*
X154574563Y-60817806D01*
X128170500Y-60817806D01*
X128170500Y-60469603D01*
X128171359Y-60455029D01*
X128174275Y-60430395D01*
X128174275Y-60430392D01*
X128175364Y-60421190D01*
X128168668Y-60384526D01*
X128164824Y-60363478D01*
X128164184Y-60359636D01*
X128158817Y-60323941D01*
X128155449Y-60301538D01*
X128155403Y-60301442D01*
X128151646Y-60253728D01*
X128152352Y-60248773D01*
X128155134Y-60229223D01*
X128155278Y-60215500D01*
X128146302Y-60141322D01*
X128137262Y-60066619D01*
X128137261Y-60066615D01*
X128136363Y-60059194D01*
X128101415Y-59966706D01*
X128083354Y-59918908D01*
X128083352Y-59918905D01*
X128080710Y-59911912D01*
X128072337Y-59899729D01*
X127995768Y-59788321D01*
X127995765Y-59788318D01*
X127991531Y-59782157D01*
X127873976Y-59677419D01*
X127734831Y-59603745D01*
X127582128Y-59565389D01*
X127500329Y-59564961D01*
X127432158Y-59564604D01*
X127432157Y-59564604D01*
X127424684Y-59564565D01*
X127417421Y-59566309D01*
X127417418Y-59566309D01*
X127348136Y-59582942D01*
X127271588Y-59601320D01*
X127131679Y-59673532D01*
X127013034Y-59777033D01*
X126922501Y-59905848D01*
X126919785Y-59912813D01*
X126919785Y-59912814D01*
X126917897Y-59917657D01*
X126865309Y-60052539D01*
X126844758Y-60208638D01*
X112078480Y-60208638D01*
X112077841Y-60207723D01*
X112075178Y-60137904D01*
X112110684Y-60077729D01*
X112177606Y-60045562D01*
X112324103Y-60024320D01*
X112324104Y-60024320D01*
X112329730Y-60023504D01*
X112408890Y-59996633D01*
X112524565Y-59957367D01*
X112524568Y-59957366D01*
X112529955Y-59955537D01*
X112534916Y-59952759D01*
X112534922Y-59952756D01*
X112673521Y-59875136D01*
X112714442Y-59852219D01*
X112771599Y-59804683D01*
X112872645Y-59720644D01*
X112877012Y-59717012D01*
X112922854Y-59661893D01*
X113008584Y-59558813D01*
X113008585Y-59558811D01*
X113012219Y-59554442D01*
X113080832Y-59431925D01*
X113112756Y-59374922D01*
X113112759Y-59374916D01*
X113115537Y-59369955D01*
X113146009Y-59280189D01*
X113181675Y-59175118D01*
X113183504Y-59169730D01*
X113213846Y-58960470D01*
X113215429Y-58900000D01*
X113196081Y-58689440D01*
X113138686Y-58485931D01*
X113045165Y-58296290D01*
X112918651Y-58126867D01*
X112914481Y-58123012D01*
X112914478Y-58123009D01*
X112838435Y-58052716D01*
X112763381Y-57983337D01*
X112584554Y-57870505D01*
X112388160Y-57792152D01*
X112382579Y-57791042D01*
X112382576Y-57791041D01*
X112284467Y-57771526D01*
X112180775Y-57750901D01*
X112175088Y-57750827D01*
X112175083Y-57750826D01*
X111975034Y-57748207D01*
X111975029Y-57748207D01*
X111969346Y-57748133D01*
X111963742Y-57749096D01*
X111963741Y-57749096D01*
X111766550Y-57782979D01*
X111766547Y-57782980D01*
X111760953Y-57783941D01*
X111562575Y-57857127D01*
X111557697Y-57860029D01*
X111557695Y-57860030D01*
X111385740Y-57962332D01*
X111385737Y-57962334D01*
X111380856Y-57965238D01*
X111221881Y-58104655D01*
X111218362Y-58109119D01*
X111218359Y-58109122D01*
X111159731Y-58183492D01*
X111090976Y-58270708D01*
X110992523Y-58457836D01*
X110990837Y-58463267D01*
X110990835Y-58463271D01*
X110945400Y-58609598D01*
X110929820Y-58659773D01*
X110929152Y-58665418D01*
X110929151Y-58665422D01*
X110905889Y-58861965D01*
X110904967Y-58869754D01*
X110905338Y-58875416D01*
X110905338Y-58875420D01*
X110910674Y-58956831D01*
X110918796Y-59080749D01*
X110970845Y-59285690D01*
X110973219Y-59290841D01*
X110973221Y-59290845D01*
X111011981Y-59374922D01*
X111059369Y-59477714D01*
X111062647Y-59482352D01*
X111159079Y-59618800D01*
X111181405Y-59650391D01*
X111332865Y-59797937D01*
X111337588Y-59801093D01*
X111337592Y-59801096D01*
X111408663Y-59848584D01*
X111508677Y-59915411D01*
X111702953Y-59998878D01*
X111766283Y-60013208D01*
X111903638Y-60044289D01*
X111903642Y-60044290D01*
X111909186Y-60045544D01*
X111928328Y-60046296D01*
X111994543Y-60068596D01*
X112038190Y-60123156D01*
X112045412Y-60192651D01*
X112013914Y-60255018D01*
X111953699Y-60290457D01*
X111944460Y-60292409D01*
X111766550Y-60322979D01*
X111766547Y-60322980D01*
X111760953Y-60323941D01*
X111562575Y-60397127D01*
X111557697Y-60400029D01*
X111557695Y-60400030D01*
X111385740Y-60502332D01*
X111385737Y-60502334D01*
X111380856Y-60505238D01*
X111221881Y-60644655D01*
X111218362Y-60649119D01*
X111218359Y-60649122D01*
X111200782Y-60671419D01*
X111090976Y-60810708D01*
X110992523Y-60997836D01*
X110990837Y-61003267D01*
X110990835Y-61003271D01*
X110964130Y-61089277D01*
X110929820Y-61199773D01*
X110929152Y-61205418D01*
X110929151Y-61205422D01*
X110918819Y-61292720D01*
X110904967Y-61409754D01*
X110905338Y-61415416D01*
X110905338Y-61415420D01*
X110908360Y-61461520D01*
X110918796Y-61620749D01*
X110970845Y-61825690D01*
X110973219Y-61830841D01*
X110973221Y-61830845D01*
X111056991Y-62012556D01*
X111059369Y-62017714D01*
X111062647Y-62022352D01*
X111156705Y-62155441D01*
X111181405Y-62190391D01*
X111185476Y-62194357D01*
X111185477Y-62194358D01*
X111245310Y-62252645D01*
X111332865Y-62337937D01*
X111337588Y-62341093D01*
X111337592Y-62341096D01*
X111408663Y-62388584D01*
X111508677Y-62455411D01*
X111702953Y-62538878D01*
X111766283Y-62553208D01*
X111903638Y-62584289D01*
X111903642Y-62584290D01*
X111909186Y-62585544D01*
X111928328Y-62586296D01*
X111994543Y-62608596D01*
X112038190Y-62663156D01*
X112045412Y-62732651D01*
X112013914Y-62795018D01*
X111953699Y-62830457D01*
X111944460Y-62832409D01*
X111766550Y-62862979D01*
X111766547Y-62862980D01*
X111760953Y-62863941D01*
X111562575Y-62937127D01*
X111557697Y-62940029D01*
X111557695Y-62940030D01*
X111385740Y-63042332D01*
X111385737Y-63042334D01*
X111380856Y-63045238D01*
X111221881Y-63184655D01*
X111218362Y-63189119D01*
X111218359Y-63189122D01*
X111200782Y-63211419D01*
X111090976Y-63350708D01*
X110992523Y-63537836D01*
X110929820Y-63739773D01*
X110929152Y-63745418D01*
X110929151Y-63745422D01*
X110915798Y-63858245D01*
X110904967Y-63949754D01*
X108800500Y-63949754D01*
X108800500Y-56598637D01*
X144124758Y-56598637D01*
X144125578Y-56606065D01*
X144125578Y-56606067D01*
X144127474Y-56623243D01*
X144142035Y-56755132D01*
X144196143Y-56902989D01*
X144200313Y-56909194D01*
X144268422Y-57010551D01*
X144289500Y-57079711D01*
X144289500Y-58052716D01*
X144269164Y-58117019D01*
X144270331Y-58117645D01*
X144267004Y-58123850D01*
X144266952Y-58124014D01*
X144266800Y-58124230D01*
X144266798Y-58124235D01*
X144262501Y-58130348D01*
X144205309Y-58277039D01*
X144184758Y-58433138D01*
X144185578Y-58440566D01*
X144185578Y-58440568D01*
X144190586Y-58485931D01*
X144202035Y-58589633D01*
X144204601Y-58596645D01*
X144204602Y-58596649D01*
X144229770Y-58665422D01*
X144256143Y-58737490D01*
X144343958Y-58868172D01*
X144380849Y-58901740D01*
X144454878Y-58969102D01*
X144454882Y-58969105D01*
X144460410Y-58974135D01*
X144466980Y-58977702D01*
X144466981Y-58977703D01*
X144555073Y-59025533D01*
X144598776Y-59049262D01*
X144697201Y-59075083D01*
X144743841Y-59087319D01*
X144743843Y-59087319D01*
X144751069Y-59089215D01*
X144828127Y-59090425D01*
X144901025Y-59091571D01*
X144901028Y-59091571D01*
X144908495Y-59091688D01*
X144915776Y-59090020D01*
X144915780Y-59090020D01*
X145054681Y-59058207D01*
X145061968Y-59056538D01*
X145202625Y-58985795D01*
X145208306Y-58980943D01*
X145208309Y-58980941D01*
X145316666Y-58888395D01*
X145316667Y-58888394D01*
X145322348Y-58883542D01*
X145333393Y-58868172D01*
X145353798Y-58839775D01*
X145414224Y-58755683D01*
X145472950Y-58609598D01*
X145474793Y-58596649D01*
X145494562Y-58457744D01*
X145494562Y-58457740D01*
X145495134Y-58453723D01*
X145495278Y-58440000D01*
X145478505Y-58301393D01*
X145477262Y-58291119D01*
X145477261Y-58291115D01*
X145476363Y-58283694D01*
X145420710Y-58136412D01*
X145416476Y-58130251D01*
X145416473Y-58130246D01*
X145412310Y-58124190D01*
X145390500Y-58053954D01*
X145390500Y-56854935D01*
X145399448Y-56808684D01*
X145410164Y-56782029D01*
X145410165Y-56782024D01*
X145412950Y-56775097D01*
X145414793Y-56762148D01*
X145434562Y-56623243D01*
X145434562Y-56623239D01*
X145435134Y-56619222D01*
X145435278Y-56605499D01*
X145416363Y-56449193D01*
X145360710Y-56301911D01*
X145352337Y-56289728D01*
X145275768Y-56178320D01*
X145275765Y-56178317D01*
X145271531Y-56172156D01*
X145153976Y-56067418D01*
X145014831Y-55993744D01*
X144862128Y-55955388D01*
X144780329Y-55954960D01*
X144712158Y-55954603D01*
X144712157Y-55954603D01*
X144704684Y-55954564D01*
X144697421Y-55956308D01*
X144697418Y-55956308D01*
X144628136Y-55972941D01*
X144551588Y-55991319D01*
X144411679Y-56063531D01*
X144293034Y-56167032D01*
X144202501Y-56295847D01*
X144145309Y-56442538D01*
X144124758Y-56598637D01*
X108800500Y-56598637D01*
X108800500Y-52427326D01*
X117832667Y-52427326D01*
X117885168Y-52623264D01*
X117888857Y-52633397D01*
X117984110Y-52837667D01*
X117989508Y-52847017D01*
X118118784Y-53031643D01*
X118125719Y-53039907D01*
X118285091Y-53199279D01*
X118293357Y-53206215D01*
X118468604Y-53328925D01*
X118512228Y-53383502D01*
X118519421Y-53453001D01*
X118487899Y-53515355D01*
X118427669Y-53550769D01*
X118397480Y-53554500D01*
X118265354Y-53554500D01*
X118261700Y-53554935D01*
X118261698Y-53554935D01*
X118260035Y-53555133D01*
X118239154Y-53557618D01*
X118136847Y-53603061D01*
X118057759Y-53682287D01*
X118053130Y-53692758D01*
X118053129Y-53692759D01*
X118016802Y-53774929D01*
X118012494Y-53784673D01*
X118009500Y-53810354D01*
X118009500Y-55599646D01*
X118012618Y-55625846D01*
X118058061Y-55728153D01*
X118137287Y-55807241D01*
X118147758Y-55811870D01*
X118147759Y-55811871D01*
X118231147Y-55848737D01*
X118231149Y-55848738D01*
X118239673Y-55852506D01*
X118265354Y-55855500D01*
X120054646Y-55855500D01*
X120058300Y-55855065D01*
X120058302Y-55855065D01*
X120063266Y-55854474D01*
X120080846Y-55852382D01*
X120183153Y-55806939D01*
X120262241Y-55727713D01*
X120307506Y-55625327D01*
X120310500Y-55599646D01*
X120310500Y-53810354D01*
X120307382Y-53784154D01*
X120261939Y-53681847D01*
X120182713Y-53602759D01*
X120172242Y-53598130D01*
X120172241Y-53598129D01*
X120088853Y-53561263D01*
X120088851Y-53561262D01*
X120080327Y-53557494D01*
X120054646Y-53554500D01*
X119922520Y-53554500D01*
X119855481Y-53534815D01*
X119809726Y-53482011D01*
X119799782Y-53412853D01*
X119820354Y-53367806D01*
X154574563Y-53367806D01*
X154575112Y-53373839D01*
X154575112Y-53373843D01*
X154583119Y-53461827D01*
X154592790Y-53568089D01*
X154649572Y-53761018D01*
X154742746Y-53939243D01*
X154868763Y-54095976D01*
X155022823Y-54225248D01*
X155199058Y-54322134D01*
X155204840Y-54323968D01*
X155204842Y-54323969D01*
X155384976Y-54381111D01*
X155384978Y-54381111D01*
X155390755Y-54382944D01*
X155445287Y-54389061D01*
X155543815Y-54400113D01*
X155543821Y-54400113D01*
X155547268Y-54400500D01*
X156108291Y-54400500D01*
X156175330Y-54420185D01*
X156221085Y-54472989D01*
X156231230Y-54540685D01*
X156224394Y-54592611D01*
X156225214Y-54600039D01*
X156225214Y-54600041D01*
X156226841Y-54614778D01*
X156242999Y-54761135D01*
X156245565Y-54768147D01*
X156245566Y-54768151D01*
X156298697Y-54913336D01*
X156301266Y-54920356D01*
X156305433Y-54926558D01*
X156305435Y-54926561D01*
X156318510Y-54946018D01*
X156395830Y-55061083D01*
X156401360Y-55066115D01*
X156515702Y-55170159D01*
X156515706Y-55170162D01*
X156521233Y-55175191D01*
X156670235Y-55256092D01*
X156765585Y-55281107D01*
X156827005Y-55297220D01*
X156827007Y-55297220D01*
X156834233Y-55299116D01*
X156917178Y-55300419D01*
X156996290Y-55301662D01*
X156996293Y-55301662D01*
X157003760Y-55301779D01*
X157126209Y-55273735D01*
X157161738Y-55265598D01*
X157161739Y-55265598D01*
X157169029Y-55263928D01*
X157244111Y-55226166D01*
X157313820Y-55191106D01*
X157313822Y-55191105D01*
X157320498Y-55187747D01*
X157326180Y-55182894D01*
X157326183Y-55182892D01*
X157443741Y-55082487D01*
X157449423Y-55077634D01*
X157548361Y-54939947D01*
X157611601Y-54782634D01*
X157635490Y-54614778D01*
X157635645Y-54600000D01*
X157615276Y-54431680D01*
X157596168Y-54381111D01*
X157557989Y-54280073D01*
X157557987Y-54280070D01*
X157555345Y-54273077D01*
X157522473Y-54225248D01*
X157463549Y-54139513D01*
X157463546Y-54139510D01*
X157459312Y-54133349D01*
X157375504Y-54058678D01*
X157338303Y-54025533D01*
X157338301Y-54025532D01*
X157332721Y-54020560D01*
X157245176Y-53974207D01*
X157189484Y-53944720D01*
X157189483Y-53944720D01*
X157182881Y-53941224D01*
X157175636Y-53939404D01*
X157173919Y-53938745D01*
X157118387Y-53896343D01*
X157094595Y-53830648D01*
X157103788Y-53776459D01*
X157104945Y-53774320D01*
X157164415Y-53582203D01*
X157185437Y-53382194D01*
X157184535Y-53372274D01*
X157169422Y-53206215D01*
X157167210Y-53181911D01*
X157165423Y-53175840D01*
X158475711Y-53175840D01*
X158485667Y-53365801D01*
X158536181Y-53549193D01*
X158624898Y-53717460D01*
X158629229Y-53722585D01*
X158629231Y-53722588D01*
X158706510Y-53814035D01*
X158747678Y-53862751D01*
X158753012Y-53866829D01*
X158893456Y-53974207D01*
X158893459Y-53974209D01*
X158898793Y-53978287D01*
X158904882Y-53981126D01*
X158904883Y-53981127D01*
X159065109Y-54055841D01*
X159071193Y-54058678D01*
X159077738Y-54060141D01*
X159077741Y-54060142D01*
X159169890Y-54080740D01*
X159256834Y-54100174D01*
X159262665Y-54100500D01*
X160052517Y-54100500D01*
X160194109Y-54085118D01*
X160374396Y-54024445D01*
X160537447Y-53926474D01*
X160638781Y-53830648D01*
X160670781Y-53800387D01*
X160675658Y-53795775D01*
X160690239Y-53774320D01*
X160778804Y-53644000D01*
X160778806Y-53643997D01*
X160782578Y-53638446D01*
X160785070Y-53632216D01*
X160785072Y-53632212D01*
X160850727Y-53468062D01*
X160853221Y-53461827D01*
X160867787Y-53373843D01*
X160883192Y-53280788D01*
X160883192Y-53280786D01*
X160884289Y-53274160D01*
X160874333Y-53084199D01*
X160823819Y-52900807D01*
X160735102Y-52732540D01*
X160665457Y-52650125D01*
X160616655Y-52592376D01*
X160616653Y-52592374D01*
X160612322Y-52587249D01*
X160526756Y-52521829D01*
X160466544Y-52475793D01*
X160466541Y-52475791D01*
X160461207Y-52471713D01*
X160369643Y-52429016D01*
X160294891Y-52394159D01*
X160288807Y-52391322D01*
X160282262Y-52389859D01*
X160282259Y-52389858D01*
X160170522Y-52364882D01*
X160103166Y-52349826D01*
X160097335Y-52349500D01*
X159307483Y-52349500D01*
X159165891Y-52364882D01*
X158985604Y-52425555D01*
X158822553Y-52523526D01*
X158817676Y-52528138D01*
X158690406Y-52648491D01*
X158684342Y-52654225D01*
X158680569Y-52659777D01*
X158680568Y-52659778D01*
X158582480Y-52804112D01*
X158577422Y-52811554D01*
X158574930Y-52817784D01*
X158574928Y-52817788D01*
X158544099Y-52894867D01*
X158506779Y-52988173D01*
X158505683Y-52994796D01*
X158505682Y-52994798D01*
X158477043Y-53167797D01*
X158475711Y-53175840D01*
X157165423Y-53175840D01*
X157163473Y-53169212D01*
X157112141Y-52994802D01*
X157112141Y-52994801D01*
X157110428Y-52988982D01*
X157017254Y-52810757D01*
X156923081Y-52693630D01*
X156895037Y-52658750D01*
X156895036Y-52658749D01*
X156891237Y-52654024D01*
X156737177Y-52524752D01*
X156560942Y-52427866D01*
X156555160Y-52426032D01*
X156555158Y-52426031D01*
X156375024Y-52368889D01*
X156375022Y-52368889D01*
X156369245Y-52367056D01*
X156314713Y-52360939D01*
X156216185Y-52349887D01*
X156216179Y-52349887D01*
X156212732Y-52349500D01*
X155554394Y-52349500D01*
X155551379Y-52349796D01*
X155551371Y-52349796D01*
X155410885Y-52363571D01*
X155410883Y-52363571D01*
X155404849Y-52364163D01*
X155212321Y-52422290D01*
X155206970Y-52425135D01*
X155206968Y-52425136D01*
X155124711Y-52468873D01*
X155034751Y-52516706D01*
X155030049Y-52520541D01*
X154891674Y-52633397D01*
X154878901Y-52643814D01*
X154750708Y-52798773D01*
X154747822Y-52804110D01*
X154747821Y-52804112D01*
X154692039Y-52907280D01*
X154655055Y-52975680D01*
X154595585Y-53167797D01*
X154574563Y-53367806D01*
X119820354Y-53367806D01*
X119828807Y-53349297D01*
X119851396Y-53328925D01*
X120026643Y-53206215D01*
X120034909Y-53199279D01*
X120194281Y-53039907D01*
X120201216Y-53031643D01*
X120330492Y-52847017D01*
X120335890Y-52837667D01*
X120431143Y-52633397D01*
X120434832Y-52623264D01*
X120486022Y-52432221D01*
X120485691Y-52418347D01*
X120477875Y-52415000D01*
X117847194Y-52415000D01*
X117833877Y-52418910D01*
X117832667Y-52427326D01*
X108800500Y-52427326D01*
X108800500Y-51897779D01*
X117833978Y-51897779D01*
X117834309Y-51911653D01*
X117842125Y-51915000D01*
X118892170Y-51915000D01*
X118907169Y-51910596D01*
X118908356Y-51909226D01*
X118910000Y-51901668D01*
X118910000Y-51897170D01*
X119410000Y-51897170D01*
X119414404Y-51912169D01*
X119415774Y-51913356D01*
X119423332Y-51915000D01*
X120472806Y-51915000D01*
X120486123Y-51911090D01*
X120487333Y-51902674D01*
X120434832Y-51706736D01*
X120431143Y-51696603D01*
X120335890Y-51492333D01*
X120330492Y-51482983D01*
X120201216Y-51298357D01*
X120194281Y-51290093D01*
X120058834Y-51154646D01*
X140914500Y-51154646D01*
X140917618Y-51180846D01*
X140963061Y-51283153D01*
X141042287Y-51362241D01*
X141052758Y-51366870D01*
X141052759Y-51366871D01*
X141136147Y-51403737D01*
X141136149Y-51403738D01*
X141144673Y-51407506D01*
X141170354Y-51410500D01*
X142959646Y-51410500D01*
X142963300Y-51410065D01*
X142963302Y-51410065D01*
X142968266Y-51409474D01*
X142985846Y-51407382D01*
X143088153Y-51361939D01*
X143167241Y-51282713D01*
X143212506Y-51180327D01*
X143215500Y-51154646D01*
X143215500Y-50440300D01*
X143235185Y-50373261D01*
X143287989Y-50327506D01*
X143357147Y-50317562D01*
X143420703Y-50346587D01*
X143458477Y-50405365D01*
X143463234Y-50432190D01*
X143463423Y-50435072D01*
X143463425Y-50435082D01*
X143463796Y-50440749D01*
X143515845Y-50645690D01*
X143518219Y-50650841D01*
X143518221Y-50650845D01*
X143556981Y-50734922D01*
X143604369Y-50837714D01*
X143616998Y-50855583D01*
X143715176Y-50994502D01*
X143726405Y-51010391D01*
X143877865Y-51157937D01*
X143882588Y-51161093D01*
X143882592Y-51161096D01*
X143953663Y-51208584D01*
X144053677Y-51275411D01*
X144247953Y-51358878D01*
X144283277Y-51366871D01*
X144448638Y-51404289D01*
X144448642Y-51404290D01*
X144454186Y-51405544D01*
X144580315Y-51410500D01*
X144659789Y-51413623D01*
X144659791Y-51413623D01*
X144665470Y-51413846D01*
X144671090Y-51413031D01*
X144671092Y-51413031D01*
X144869103Y-51384320D01*
X144869104Y-51384320D01*
X144874730Y-51383504D01*
X144893588Y-51377103D01*
X145069565Y-51317367D01*
X145069568Y-51317366D01*
X145074955Y-51315537D01*
X145079916Y-51312759D01*
X145079922Y-51312756D01*
X145235275Y-51225753D01*
X145259442Y-51212219D01*
X145297165Y-51180846D01*
X145417645Y-51080644D01*
X145422012Y-51077012D01*
X145425644Y-51072645D01*
X145553584Y-50918813D01*
X145553585Y-50918811D01*
X145557219Y-50914442D01*
X145603078Y-50832556D01*
X145657756Y-50734922D01*
X145657759Y-50734916D01*
X145660537Y-50729955D01*
X145691009Y-50640189D01*
X145726675Y-50535118D01*
X145728504Y-50529730D01*
X145758846Y-50320470D01*
X145760429Y-50260000D01*
X145757650Y-50229754D01*
X147199967Y-50229754D01*
X147200338Y-50235416D01*
X147200338Y-50235420D01*
X147201949Y-50260000D01*
X147213796Y-50440749D01*
X147265845Y-50645690D01*
X147268219Y-50650841D01*
X147268221Y-50650845D01*
X147306981Y-50734922D01*
X147354369Y-50837714D01*
X147366998Y-50855583D01*
X147465176Y-50994502D01*
X147476405Y-51010391D01*
X147627865Y-51157937D01*
X147632588Y-51161093D01*
X147632592Y-51161096D01*
X147703663Y-51208584D01*
X147803677Y-51275411D01*
X147997953Y-51358878D01*
X148033277Y-51366871D01*
X148198638Y-51404289D01*
X148198642Y-51404290D01*
X148204186Y-51405544D01*
X148330315Y-51410500D01*
X148409789Y-51413623D01*
X148409791Y-51413623D01*
X148415470Y-51413846D01*
X148421090Y-51413031D01*
X148421092Y-51413031D01*
X148619103Y-51384320D01*
X148619104Y-51384320D01*
X148624730Y-51383504D01*
X148643588Y-51377103D01*
X148819565Y-51317367D01*
X148819568Y-51317366D01*
X148824955Y-51315537D01*
X148829916Y-51312759D01*
X148829922Y-51312756D01*
X148985275Y-51225753D01*
X149009442Y-51212219D01*
X149047165Y-51180846D01*
X149167645Y-51080644D01*
X149172012Y-51077012D01*
X149175644Y-51072645D01*
X149303584Y-50918813D01*
X149303585Y-50918811D01*
X149307219Y-50914442D01*
X149312812Y-50904455D01*
X149362743Y-50855583D01*
X149431171Y-50841464D01*
X149496370Y-50866581D01*
X149537640Y-50922960D01*
X149545000Y-50965046D01*
X149545000Y-51153972D01*
X149545363Y-51160669D01*
X149550803Y-51210744D01*
X149554371Y-51225753D01*
X149598817Y-51344311D01*
X149607212Y-51359646D01*
X149682516Y-51460124D01*
X149694876Y-51472484D01*
X149795354Y-51547788D01*
X149810689Y-51556183D01*
X149929247Y-51600629D01*
X149944256Y-51604197D01*
X149994331Y-51609637D01*
X150001028Y-51610000D01*
X150627170Y-51610000D01*
X150642169Y-51605596D01*
X150643356Y-51604226D01*
X150645000Y-51596668D01*
X150645000Y-51592170D01*
X151145000Y-51592170D01*
X151149404Y-51607169D01*
X151150774Y-51608356D01*
X151158332Y-51610000D01*
X151788972Y-51610000D01*
X151795669Y-51609637D01*
X151845744Y-51604197D01*
X151860753Y-51600629D01*
X151979311Y-51556183D01*
X151994646Y-51547788D01*
X152095124Y-51472484D01*
X152107484Y-51460124D01*
X152182788Y-51359646D01*
X152191183Y-51344311D01*
X152235629Y-51225753D01*
X152239197Y-51210744D01*
X152244637Y-51160669D01*
X152245000Y-51153972D01*
X152245000Y-50527830D01*
X152240596Y-50512831D01*
X152239226Y-50511644D01*
X152231668Y-50510000D01*
X151162830Y-50510000D01*
X151147831Y-50514404D01*
X151146644Y-50515774D01*
X151145000Y-50523332D01*
X151145000Y-51592170D01*
X150645000Y-51592170D01*
X150645000Y-49992170D01*
X151145000Y-49992170D01*
X151149404Y-50007169D01*
X151150774Y-50008356D01*
X151158332Y-50010000D01*
X152227170Y-50010000D01*
X152242169Y-50005596D01*
X152243356Y-50004226D01*
X152245000Y-49996668D01*
X152245000Y-49366028D01*
X152244637Y-49359331D01*
X152239197Y-49309256D01*
X152235629Y-49294247D01*
X152191183Y-49175689D01*
X152182788Y-49160354D01*
X152107484Y-49059876D01*
X152095124Y-49047516D01*
X151994646Y-48972212D01*
X151979311Y-48963817D01*
X151860753Y-48919371D01*
X151845744Y-48915803D01*
X151795669Y-48910363D01*
X151788972Y-48910000D01*
X151162830Y-48910000D01*
X151147831Y-48914404D01*
X151146644Y-48915774D01*
X151145000Y-48923332D01*
X151145000Y-49992170D01*
X150645000Y-49992170D01*
X150645000Y-48927830D01*
X150640596Y-48912831D01*
X150639226Y-48911644D01*
X150631668Y-48910000D01*
X150001028Y-48910000D01*
X149994331Y-48910363D01*
X149944256Y-48915803D01*
X149929247Y-48919371D01*
X149810689Y-48963817D01*
X149795354Y-48972212D01*
X149694876Y-49047516D01*
X149682516Y-49059876D01*
X149607212Y-49160354D01*
X149598817Y-49175689D01*
X149554371Y-49294247D01*
X149550803Y-49309256D01*
X149545363Y-49359331D01*
X149545000Y-49366028D01*
X149545000Y-49557295D01*
X149525315Y-49624334D01*
X149472511Y-49670089D01*
X149403353Y-49680033D01*
X149339797Y-49651008D01*
X149321645Y-49631487D01*
X149217056Y-49491426D01*
X149217050Y-49491419D01*
X149213651Y-49486867D01*
X149209481Y-49483012D01*
X149209478Y-49483009D01*
X149145319Y-49423702D01*
X149058381Y-49343337D01*
X149052574Y-49339673D01*
X148884363Y-49233539D01*
X148884361Y-49233538D01*
X148879554Y-49230505D01*
X148683160Y-49152152D01*
X148677579Y-49151042D01*
X148677576Y-49151041D01*
X148579467Y-49131526D01*
X148475775Y-49110901D01*
X148470088Y-49110827D01*
X148470083Y-49110826D01*
X148270034Y-49108207D01*
X148270029Y-49108207D01*
X148264346Y-49108133D01*
X148258742Y-49109096D01*
X148258741Y-49109096D01*
X148061550Y-49142979D01*
X148061547Y-49142980D01*
X148055953Y-49143941D01*
X147857575Y-49217127D01*
X147852697Y-49220029D01*
X147852695Y-49220030D01*
X147680740Y-49322332D01*
X147680737Y-49322334D01*
X147675856Y-49325238D01*
X147516881Y-49464655D01*
X147513362Y-49469119D01*
X147513359Y-49469122D01*
X147454731Y-49543492D01*
X147385976Y-49630708D01*
X147287523Y-49817836D01*
X147224820Y-50019773D01*
X147224152Y-50025418D01*
X147224151Y-50025422D01*
X147214365Y-50108106D01*
X147199967Y-50229754D01*
X145757650Y-50229754D01*
X145741081Y-50049440D01*
X145683686Y-49845931D01*
X145590165Y-49656290D01*
X145463651Y-49486867D01*
X145459481Y-49483012D01*
X145459478Y-49483009D01*
X145395319Y-49423702D01*
X145308381Y-49343337D01*
X145302574Y-49339673D01*
X145134363Y-49233539D01*
X145134361Y-49233538D01*
X145129554Y-49230505D01*
X144933160Y-49152152D01*
X144927579Y-49151042D01*
X144927576Y-49151041D01*
X144829467Y-49131526D01*
X144725775Y-49110901D01*
X144720088Y-49110827D01*
X144720083Y-49110826D01*
X144520034Y-49108207D01*
X144520029Y-49108207D01*
X144514346Y-49108133D01*
X144508742Y-49109096D01*
X144508741Y-49109096D01*
X144311550Y-49142979D01*
X144311547Y-49142980D01*
X144305953Y-49143941D01*
X144107575Y-49217127D01*
X144102697Y-49220029D01*
X144102695Y-49220030D01*
X143930740Y-49322332D01*
X143930737Y-49322334D01*
X143925856Y-49325238D01*
X143766881Y-49464655D01*
X143763362Y-49469119D01*
X143763359Y-49469122D01*
X143704731Y-49543492D01*
X143635976Y-49630708D01*
X143537523Y-49817836D01*
X143474820Y-50019773D01*
X143474152Y-50025418D01*
X143474151Y-50025422D01*
X143462640Y-50122681D01*
X143435213Y-50186942D01*
X143377397Y-50226173D01*
X143307549Y-50227919D01*
X143247845Y-50191625D01*
X143217241Y-50128814D01*
X143215500Y-50108106D01*
X143215500Y-49365354D01*
X143212382Y-49339154D01*
X143166939Y-49236847D01*
X143087713Y-49157759D01*
X143077242Y-49153130D01*
X143077241Y-49153129D01*
X142993853Y-49116263D01*
X142993851Y-49116262D01*
X142985327Y-49112494D01*
X142959646Y-49109500D01*
X141170354Y-49109500D01*
X141166700Y-49109935D01*
X141166698Y-49109935D01*
X141161734Y-49110526D01*
X141144154Y-49112618D01*
X141041847Y-49158061D01*
X140962759Y-49237287D01*
X140958130Y-49247758D01*
X140958129Y-49247759D01*
X140923876Y-49325238D01*
X140917494Y-49339673D01*
X140914500Y-49365354D01*
X140914500Y-51154646D01*
X120058834Y-51154646D01*
X120034909Y-51130721D01*
X120026643Y-51123785D01*
X119842008Y-50994502D01*
X119832676Y-50989114D01*
X119628397Y-50893857D01*
X119618264Y-50890168D01*
X119427221Y-50838978D01*
X119413347Y-50839309D01*
X119410000Y-50847125D01*
X119410000Y-51897170D01*
X118910000Y-51897170D01*
X118910000Y-50852194D01*
X118906090Y-50838877D01*
X118897674Y-50837667D01*
X118701736Y-50890168D01*
X118691603Y-50893857D01*
X118487333Y-50989110D01*
X118477983Y-50994508D01*
X118293357Y-51123784D01*
X118285093Y-51130719D01*
X118125719Y-51290093D01*
X118118784Y-51298357D01*
X117989508Y-51482983D01*
X117984110Y-51492333D01*
X117888857Y-51696603D01*
X117885168Y-51706736D01*
X117833978Y-51897779D01*
X108800500Y-51897779D01*
X108800500Y-47363138D01*
X137255258Y-47363138D01*
X137256078Y-47370566D01*
X137256078Y-47370568D01*
X137263805Y-47440560D01*
X137272535Y-47519633D01*
X137275101Y-47526645D01*
X137275102Y-47526649D01*
X137296340Y-47584683D01*
X137326643Y-47667490D01*
X137330814Y-47673697D01*
X137401441Y-47778800D01*
X137414458Y-47798172D01*
X137456958Y-47836844D01*
X137525378Y-47899102D01*
X137525382Y-47899105D01*
X137530910Y-47904135D01*
X137537480Y-47907702D01*
X137537481Y-47907703D01*
X137614579Y-47949564D01*
X137669276Y-47979262D01*
X137767643Y-48005068D01*
X137814341Y-48017319D01*
X137814343Y-48017319D01*
X137821569Y-48019215D01*
X137898627Y-48020425D01*
X137971525Y-48021571D01*
X137971528Y-48021571D01*
X137978995Y-48021688D01*
X137986276Y-48020020D01*
X137986280Y-48020020D01*
X138125181Y-47988207D01*
X138132468Y-47986538D01*
X138273125Y-47915795D01*
X138278806Y-47910943D01*
X138278809Y-47910941D01*
X138315525Y-47879582D01*
X138379287Y-47851011D01*
X138396057Y-47849872D01*
X139870397Y-47849872D01*
X139937436Y-47869557D01*
X139953850Y-47882158D01*
X140004750Y-47928474D01*
X140004754Y-47928477D01*
X140010282Y-47933507D01*
X140016852Y-47937074D01*
X140016853Y-47937075D01*
X140101766Y-47983179D01*
X140148648Y-48008634D01*
X140250903Y-48035460D01*
X140293713Y-48046691D01*
X140293715Y-48046691D01*
X140300941Y-48048587D01*
X140377999Y-48049797D01*
X140450897Y-48050943D01*
X140450900Y-48050943D01*
X140458367Y-48051060D01*
X140465648Y-48049392D01*
X140465652Y-48049392D01*
X140604553Y-48017579D01*
X140611840Y-48015910D01*
X140618399Y-48012611D01*
X146244894Y-48012611D01*
X146245714Y-48020039D01*
X146245714Y-48020041D01*
X146249126Y-48050943D01*
X146263499Y-48181135D01*
X146266065Y-48188147D01*
X146266066Y-48188151D01*
X146319197Y-48333336D01*
X146321766Y-48340356D01*
X146325933Y-48346558D01*
X146325935Y-48346561D01*
X146375666Y-48420568D01*
X146416330Y-48481083D01*
X146421860Y-48486115D01*
X146536202Y-48590159D01*
X146536206Y-48590162D01*
X146541733Y-48595191D01*
X146690735Y-48676092D01*
X146786085Y-48701107D01*
X146847505Y-48717220D01*
X146847507Y-48717220D01*
X146854733Y-48719116D01*
X146937678Y-48720419D01*
X147016790Y-48721662D01*
X147016793Y-48721662D01*
X147024260Y-48721779D01*
X147146709Y-48693735D01*
X147182238Y-48685598D01*
X147182239Y-48685598D01*
X147189529Y-48683928D01*
X147264611Y-48646166D01*
X147334320Y-48611106D01*
X147334322Y-48611105D01*
X147340998Y-48607747D01*
X147346680Y-48602894D01*
X147346683Y-48602892D01*
X147466907Y-48500210D01*
X147530668Y-48471639D01*
X147547439Y-48470500D01*
X148155397Y-48470500D01*
X148169971Y-48471359D01*
X148194605Y-48474275D01*
X148194608Y-48474275D01*
X148203810Y-48475364D01*
X148240475Y-48468668D01*
X148261522Y-48464824D01*
X148265364Y-48464184D01*
X148299072Y-48459116D01*
X148310672Y-48457372D01*
X148345938Y-48457142D01*
X148346504Y-48457220D01*
X148353733Y-48459116D01*
X148438496Y-48460447D01*
X148515790Y-48461662D01*
X148515793Y-48461662D01*
X148523260Y-48461779D01*
X148645709Y-48433735D01*
X148681238Y-48425598D01*
X148681239Y-48425598D01*
X148688529Y-48423928D01*
X148763611Y-48386166D01*
X148833320Y-48351106D01*
X148833322Y-48351105D01*
X148839998Y-48347747D01*
X148845680Y-48342894D01*
X148845683Y-48342892D01*
X148963241Y-48242487D01*
X148968923Y-48237634D01*
X149067861Y-48099947D01*
X149131101Y-47942634D01*
X149132400Y-47933507D01*
X149154418Y-47778800D01*
X149154418Y-47778794D01*
X149154990Y-47774778D01*
X149155145Y-47760000D01*
X149148867Y-47708122D01*
X149135675Y-47599105D01*
X149135674Y-47599101D01*
X149134776Y-47591680D01*
X149118207Y-47547831D01*
X149077489Y-47440073D01*
X149077487Y-47440070D01*
X149074845Y-47433077D01*
X149048908Y-47395339D01*
X148983049Y-47299513D01*
X148983046Y-47299510D01*
X148978812Y-47293349D01*
X148890263Y-47214454D01*
X148857803Y-47185533D01*
X148857801Y-47185532D01*
X148852221Y-47180560D01*
X148837847Y-47172949D01*
X148708989Y-47104723D01*
X148702381Y-47101224D01*
X148537941Y-47059919D01*
X148451748Y-47059468D01*
X148375868Y-47059070D01*
X148375867Y-47059070D01*
X148368395Y-47059031D01*
X148346735Y-47064231D01*
X148210795Y-47096868D01*
X148210793Y-47096869D01*
X148203532Y-47098612D01*
X148196899Y-47102035D01*
X148196895Y-47102037D01*
X148129965Y-47136583D01*
X148052869Y-47176375D01*
X148047237Y-47181288D01*
X147967908Y-47250491D01*
X147925104Y-47287831D01*
X147827613Y-47426547D01*
X147824899Y-47433509D01*
X147824898Y-47433510D01*
X147802661Y-47490544D01*
X147759969Y-47545853D01*
X147687132Y-47569500D01*
X147545167Y-47569500D01*
X147478128Y-47549815D01*
X147462678Y-47538083D01*
X147358803Y-47445533D01*
X147358801Y-47445532D01*
X147353221Y-47440560D01*
X147338847Y-47432949D01*
X147267813Y-47395339D01*
X147203381Y-47361224D01*
X147038941Y-47319919D01*
X146952748Y-47319468D01*
X146876868Y-47319070D01*
X146876867Y-47319070D01*
X146869395Y-47319031D01*
X146847735Y-47324231D01*
X146711795Y-47356868D01*
X146711793Y-47356869D01*
X146704532Y-47358612D01*
X146697899Y-47362035D01*
X146697895Y-47362037D01*
X146633375Y-47395339D01*
X146553869Y-47436375D01*
X146548237Y-47441288D01*
X146491774Y-47490544D01*
X146426104Y-47547831D01*
X146328613Y-47686547D01*
X146267024Y-47844513D01*
X146244894Y-48012611D01*
X140618399Y-48012611D01*
X140752497Y-47945167D01*
X140758178Y-47940315D01*
X140758181Y-47940313D01*
X140866538Y-47847767D01*
X140866539Y-47847766D01*
X140872220Y-47842914D01*
X140964096Y-47715055D01*
X141022822Y-47568970D01*
X141025548Y-47549815D01*
X141044434Y-47417116D01*
X141044434Y-47417112D01*
X141045006Y-47413095D01*
X141045150Y-47399372D01*
X141040218Y-47358612D01*
X141027134Y-47250491D01*
X141027133Y-47250487D01*
X141026235Y-47243066D01*
X140970582Y-47095784D01*
X140946521Y-47060775D01*
X140885640Y-46972193D01*
X140885637Y-46972190D01*
X140881403Y-46966029D01*
X140763848Y-46861291D01*
X140624703Y-46787617D01*
X140507767Y-46758245D01*
X140479250Y-46751082D01*
X140472000Y-46749261D01*
X140390201Y-46748833D01*
X140322030Y-46748476D01*
X140322029Y-46748476D01*
X140314556Y-46748437D01*
X140307293Y-46750181D01*
X140307290Y-46750181D01*
X140259128Y-46761744D01*
X140161460Y-46785192D01*
X140021551Y-46857404D01*
X140015920Y-46862317D01*
X140015919Y-46862317D01*
X139951729Y-46918314D01*
X139888270Y-46947550D01*
X139870214Y-46948872D01*
X138462968Y-46948872D01*
X138395929Y-46929187D01*
X138380479Y-46917455D01*
X138290059Y-46836893D01*
X138290058Y-46836892D01*
X138284476Y-46831919D01*
X138145331Y-46758245D01*
X137992628Y-46719889D01*
X137910829Y-46719461D01*
X137842658Y-46719104D01*
X137842657Y-46719104D01*
X137835184Y-46719065D01*
X137827921Y-46720809D01*
X137827918Y-46720809D01*
X137758636Y-46737442D01*
X137682088Y-46755820D01*
X137542179Y-46828032D01*
X137536548Y-46832945D01*
X137536547Y-46832945D01*
X137498352Y-46866265D01*
X137423534Y-46931533D01*
X137333001Y-47060348D01*
X137275809Y-47207039D01*
X137255258Y-47363138D01*
X108800500Y-47363138D01*
X108800500Y-45037095D01*
X108802380Y-45015587D01*
X108803254Y-45010625D01*
X108805136Y-44999939D01*
X108803250Y-44989255D01*
X108803248Y-44979607D01*
X108802419Y-44965656D01*
X108804203Y-44933789D01*
X110095996Y-44933789D01*
X110104913Y-45171295D01*
X110105990Y-45176430D01*
X110105991Y-45176435D01*
X110148743Y-45380189D01*
X110153719Y-45403904D01*
X110155648Y-45408788D01*
X110155649Y-45408792D01*
X110184078Y-45480778D01*
X110241020Y-45624963D01*
X110243741Y-45629447D01*
X110243743Y-45629451D01*
X110311233Y-45740670D01*
X110364319Y-45828153D01*
X110520090Y-46007664D01*
X110622686Y-46091787D01*
X110694292Y-46150500D01*
X110703880Y-46158362D01*
X110708441Y-46160958D01*
X110708442Y-46160959D01*
X110905875Y-46273345D01*
X110905880Y-46273347D01*
X110910433Y-46275939D01*
X111133844Y-46357034D01*
X111367725Y-46399326D01*
X111392619Y-46400500D01*
X111559680Y-46400500D01*
X111562296Y-46400278D01*
X111562297Y-46400278D01*
X111731590Y-46385913D01*
X111736823Y-46385469D01*
X111966874Y-46325760D01*
X112183576Y-46228143D01*
X112380732Y-46095409D01*
X112552705Y-45931355D01*
X112580017Y-45894646D01*
X122689500Y-45894646D01*
X122692618Y-45920846D01*
X122738061Y-46023153D01*
X122817287Y-46102241D01*
X122827758Y-46106870D01*
X122827759Y-46106871D01*
X122911147Y-46143737D01*
X122911149Y-46143738D01*
X122919673Y-46147506D01*
X122945354Y-46150500D01*
X124734646Y-46150500D01*
X124738300Y-46150065D01*
X124738302Y-46150065D01*
X124743266Y-46149474D01*
X124760846Y-46147382D01*
X124863153Y-46101939D01*
X124942241Y-46022713D01*
X124947422Y-46010995D01*
X124983737Y-45928853D01*
X124983738Y-45928851D01*
X124987506Y-45920327D01*
X124990500Y-45894646D01*
X124990500Y-45180300D01*
X125010185Y-45113261D01*
X125062989Y-45067506D01*
X125132147Y-45057562D01*
X125195703Y-45086587D01*
X125233477Y-45145365D01*
X125238234Y-45172190D01*
X125238423Y-45175072D01*
X125238425Y-45175082D01*
X125238796Y-45180749D01*
X125290845Y-45385690D01*
X125293219Y-45390841D01*
X125293221Y-45390845D01*
X125358983Y-45533493D01*
X125379369Y-45577714D01*
X125382647Y-45582352D01*
X125497510Y-45744879D01*
X125501405Y-45750391D01*
X125652865Y-45897937D01*
X125657588Y-45901093D01*
X125657592Y-45901096D01*
X125702878Y-45931355D01*
X125828677Y-46015411D01*
X126022953Y-46098878D01*
X126058277Y-46106871D01*
X126223638Y-46144289D01*
X126223642Y-46144290D01*
X126229186Y-46145544D01*
X126355315Y-46150500D01*
X126434789Y-46153623D01*
X126434791Y-46153623D01*
X126440470Y-46153846D01*
X126446090Y-46153031D01*
X126446092Y-46153031D01*
X126644103Y-46124320D01*
X126644104Y-46124320D01*
X126649730Y-46123504D01*
X126668588Y-46117103D01*
X126844565Y-46057367D01*
X126844568Y-46057366D01*
X126849955Y-46055537D01*
X126854916Y-46052759D01*
X126854922Y-46052756D01*
X126961530Y-45993052D01*
X127034442Y-45952219D01*
X127059529Y-45931355D01*
X127192645Y-45820644D01*
X127197012Y-45817012D01*
X127200644Y-45812645D01*
X127328584Y-45658813D01*
X127328585Y-45658811D01*
X127332219Y-45654442D01*
X127434059Y-45472594D01*
X127483990Y-45423721D01*
X127552418Y-45409601D01*
X127617617Y-45434717D01*
X127654630Y-45480778D01*
X127744110Y-45672667D01*
X127749508Y-45682017D01*
X127878784Y-45866643D01*
X127885719Y-45874907D01*
X128045091Y-46034279D01*
X128053357Y-46041215D01*
X128237992Y-46170498D01*
X128247324Y-46175886D01*
X128451603Y-46271143D01*
X128461736Y-46274832D01*
X128652779Y-46326022D01*
X128666653Y-46325691D01*
X128670000Y-46317875D01*
X128670000Y-46312806D01*
X129170000Y-46312806D01*
X129173910Y-46326123D01*
X129182326Y-46327333D01*
X129378264Y-46274832D01*
X129388397Y-46271143D01*
X129592676Y-46175886D01*
X129602008Y-46170498D01*
X129786643Y-46041215D01*
X129794909Y-46034279D01*
X129954281Y-45874907D01*
X129961211Y-45866648D01*
X130088425Y-45684968D01*
X130143002Y-45641344D01*
X130212501Y-45634151D01*
X130274855Y-45665673D01*
X130291575Y-45684968D01*
X130418789Y-45866648D01*
X130425719Y-45874907D01*
X130585091Y-46034279D01*
X130593357Y-46041215D01*
X130777992Y-46170498D01*
X130787324Y-46175886D01*
X130991603Y-46271143D01*
X131001736Y-46274832D01*
X131192779Y-46326022D01*
X131206653Y-46325691D01*
X131210000Y-46317875D01*
X131210000Y-46312806D01*
X131710000Y-46312806D01*
X131713910Y-46326123D01*
X131722326Y-46327333D01*
X131918264Y-46274832D01*
X131928397Y-46271143D01*
X132132676Y-46175886D01*
X132142008Y-46170498D01*
X132326643Y-46041215D01*
X132334909Y-46034279D01*
X132494281Y-45874907D01*
X132501216Y-45866643D01*
X132630492Y-45682017D01*
X132635890Y-45672667D01*
X132731143Y-45468397D01*
X132734832Y-45458264D01*
X132786022Y-45267221D01*
X132785691Y-45253347D01*
X132777875Y-45250000D01*
X131727830Y-45250000D01*
X131712831Y-45254404D01*
X131711644Y-45255774D01*
X131710000Y-45263332D01*
X131710000Y-46312806D01*
X131210000Y-46312806D01*
X131210000Y-45267830D01*
X131205596Y-45252831D01*
X131204226Y-45251644D01*
X131196668Y-45250000D01*
X129187830Y-45250000D01*
X129172831Y-45254404D01*
X129171644Y-45255774D01*
X129170000Y-45263332D01*
X129170000Y-46312806D01*
X128670000Y-46312806D01*
X128670000Y-44969754D01*
X134204967Y-44969754D01*
X134205338Y-44975416D01*
X134205338Y-44975420D01*
X134209488Y-45038736D01*
X134218796Y-45180749D01*
X134270845Y-45385690D01*
X134273219Y-45390841D01*
X134273221Y-45390845D01*
X134338983Y-45533493D01*
X134359369Y-45577714D01*
X134362647Y-45582352D01*
X134477510Y-45744879D01*
X134481405Y-45750391D01*
X134632865Y-45897937D01*
X134637588Y-45901093D01*
X134637592Y-45901096D01*
X134682878Y-45931355D01*
X134808677Y-46015411D01*
X135002953Y-46098878D01*
X135038277Y-46106871D01*
X135203638Y-46144289D01*
X135203642Y-46144290D01*
X135209186Y-46145544D01*
X135335315Y-46150500D01*
X135414789Y-46153623D01*
X135414791Y-46153623D01*
X135420470Y-46153846D01*
X135426090Y-46153031D01*
X135426092Y-46153031D01*
X135624103Y-46124320D01*
X135624104Y-46124320D01*
X135629730Y-46123504D01*
X135648588Y-46117103D01*
X135824565Y-46057367D01*
X135824568Y-46057366D01*
X135829955Y-46055537D01*
X135834916Y-46052759D01*
X135834922Y-46052756D01*
X135941530Y-45993052D01*
X136014442Y-45952219D01*
X136039529Y-45931355D01*
X136172645Y-45820644D01*
X136177012Y-45817012D01*
X136180644Y-45812645D01*
X136308584Y-45658813D01*
X136308585Y-45658811D01*
X136312219Y-45654442D01*
X136379954Y-45533493D01*
X136412756Y-45474922D01*
X136412759Y-45474916D01*
X136415537Y-45469955D01*
X136431232Y-45423721D01*
X136481675Y-45275118D01*
X136483504Y-45269730D01*
X136485726Y-45254404D01*
X136507820Y-45102033D01*
X136536921Y-45038512D01*
X136590225Y-45004346D01*
X136670974Y-45004346D01*
X136724347Y-45038736D01*
X136753296Y-45102327D01*
X136754271Y-45111707D01*
X136758796Y-45180749D01*
X136810845Y-45385690D01*
X136813219Y-45390841D01*
X136813221Y-45390845D01*
X136878983Y-45533493D01*
X136899369Y-45577714D01*
X136902647Y-45582352D01*
X137017510Y-45744879D01*
X137021405Y-45750391D01*
X137172865Y-45897937D01*
X137177588Y-45901093D01*
X137177592Y-45901096D01*
X137222878Y-45931355D01*
X137348677Y-46015411D01*
X137542953Y-46098878D01*
X137578277Y-46106871D01*
X137743638Y-46144289D01*
X137743642Y-46144290D01*
X137749186Y-46145544D01*
X137875315Y-46150500D01*
X137954789Y-46153623D01*
X137954791Y-46153623D01*
X137960470Y-46153846D01*
X137966090Y-46153031D01*
X137966092Y-46153031D01*
X138164103Y-46124320D01*
X138164104Y-46124320D01*
X138169730Y-46123504D01*
X138188588Y-46117103D01*
X138364565Y-46057367D01*
X138364568Y-46057366D01*
X138369955Y-46055537D01*
X138374916Y-46052759D01*
X138374922Y-46052756D01*
X138481530Y-45993052D01*
X138554442Y-45952219D01*
X138579529Y-45931355D01*
X138712645Y-45820644D01*
X138717012Y-45817012D01*
X138720644Y-45812645D01*
X138848584Y-45658813D01*
X138848585Y-45658811D01*
X138852219Y-45654442D01*
X138919954Y-45533493D01*
X138952756Y-45474922D01*
X138952759Y-45474916D01*
X138955537Y-45469955D01*
X138971232Y-45423721D01*
X139021675Y-45275118D01*
X139023504Y-45269730D01*
X139025726Y-45254404D01*
X139047820Y-45102033D01*
X139076921Y-45038512D01*
X139130225Y-45004346D01*
X139210974Y-45004346D01*
X139264347Y-45038736D01*
X139293296Y-45102327D01*
X139294271Y-45111707D01*
X139298796Y-45180749D01*
X139350845Y-45385690D01*
X139353219Y-45390841D01*
X139353221Y-45390845D01*
X139418983Y-45533493D01*
X139439369Y-45577714D01*
X139442647Y-45582352D01*
X139557510Y-45744879D01*
X139561405Y-45750391D01*
X139712865Y-45897937D01*
X139717588Y-45901093D01*
X139717592Y-45901096D01*
X139762878Y-45931355D01*
X139888677Y-46015411D01*
X140082953Y-46098878D01*
X140118277Y-46106871D01*
X140283638Y-46144289D01*
X140283642Y-46144290D01*
X140289186Y-46145544D01*
X140415315Y-46150500D01*
X140494789Y-46153623D01*
X140494791Y-46153623D01*
X140500470Y-46153846D01*
X140506090Y-46153031D01*
X140506092Y-46153031D01*
X140704103Y-46124320D01*
X140704104Y-46124320D01*
X140709730Y-46123504D01*
X140728588Y-46117103D01*
X140904565Y-46057367D01*
X140904568Y-46057366D01*
X140909955Y-46055537D01*
X140914916Y-46052759D01*
X140914922Y-46052756D01*
X141021530Y-45993052D01*
X141094442Y-45952219D01*
X141119529Y-45931355D01*
X141252645Y-45820644D01*
X141257012Y-45817012D01*
X141260644Y-45812645D01*
X141388584Y-45658813D01*
X141388585Y-45658811D01*
X141392219Y-45654442D01*
X141459954Y-45533493D01*
X141492756Y-45474922D01*
X141492759Y-45474916D01*
X141495537Y-45469955D01*
X141511232Y-45423721D01*
X141561675Y-45275118D01*
X141563504Y-45269730D01*
X141576471Y-45180300D01*
X141582783Y-45136769D01*
X141611884Y-45073248D01*
X141670707Y-45035543D01*
X141740577Y-45035627D01*
X141799310Y-45073471D01*
X141828259Y-45137061D01*
X141829500Y-45154562D01*
X141829500Y-45894646D01*
X141832618Y-45920846D01*
X141878061Y-46023153D01*
X141957287Y-46102241D01*
X141967758Y-46106870D01*
X141967759Y-46106871D01*
X142051147Y-46143737D01*
X142051149Y-46143738D01*
X142059673Y-46147506D01*
X142085354Y-46150500D01*
X143874646Y-46150500D01*
X143878300Y-46150065D01*
X143878302Y-46150065D01*
X143883266Y-46149474D01*
X143900846Y-46147382D01*
X144003153Y-46101939D01*
X144082241Y-46022713D01*
X144087422Y-46010995D01*
X144123737Y-45928853D01*
X144123738Y-45928851D01*
X144127506Y-45920327D01*
X144130500Y-45894646D01*
X144130500Y-44933789D01*
X157095996Y-44933789D01*
X157104913Y-45171295D01*
X157105990Y-45176430D01*
X157105991Y-45176435D01*
X157148743Y-45380189D01*
X157153719Y-45403904D01*
X157155648Y-45408788D01*
X157155649Y-45408792D01*
X157184078Y-45480778D01*
X157241020Y-45624963D01*
X157243741Y-45629447D01*
X157243743Y-45629451D01*
X157311233Y-45740670D01*
X157364319Y-45828153D01*
X157520090Y-46007664D01*
X157622686Y-46091787D01*
X157694292Y-46150500D01*
X157703880Y-46158362D01*
X157708441Y-46160958D01*
X157708442Y-46160959D01*
X157905875Y-46273345D01*
X157905880Y-46273347D01*
X157910433Y-46275939D01*
X158133844Y-46357034D01*
X158367725Y-46399326D01*
X158392619Y-46400500D01*
X158559680Y-46400500D01*
X158562296Y-46400278D01*
X158562297Y-46400278D01*
X158731590Y-46385913D01*
X158736823Y-46385469D01*
X158966874Y-46325760D01*
X159183576Y-46228143D01*
X159380732Y-46095409D01*
X159552705Y-45931355D01*
X159694579Y-45740670D01*
X159736197Y-45658813D01*
X159799913Y-45533493D01*
X159799915Y-45533488D01*
X159802295Y-45528807D01*
X159817209Y-45480778D01*
X159871215Y-45306848D01*
X159872775Y-45301824D01*
X159877281Y-45267830D01*
X159903315Y-45071412D01*
X159903315Y-45071408D01*
X159904004Y-45066211D01*
X159896363Y-44862681D01*
X159895284Y-44833949D01*
X159895284Y-44833948D01*
X159895087Y-44828705D01*
X159888037Y-44795101D01*
X159847361Y-44601242D01*
X159847360Y-44601239D01*
X159846281Y-44596096D01*
X159840254Y-44580833D01*
X159796954Y-44471193D01*
X159758980Y-44375037D01*
X159753640Y-44366236D01*
X159638408Y-44176341D01*
X159635681Y-44171847D01*
X159479910Y-43992336D01*
X159306216Y-43849916D01*
X159300179Y-43844966D01*
X159300178Y-43844965D01*
X159296120Y-43841638D01*
X159273216Y-43828600D01*
X159094125Y-43726655D01*
X159094120Y-43726653D01*
X159089567Y-43724061D01*
X158866156Y-43642966D01*
X158632275Y-43600674D01*
X158607381Y-43599500D01*
X158440320Y-43599500D01*
X158437704Y-43599722D01*
X158437703Y-43599722D01*
X158426484Y-43600674D01*
X158263177Y-43614531D01*
X158033126Y-43674240D01*
X157816424Y-43771857D01*
X157619268Y-43904591D01*
X157447295Y-44068645D01*
X157305421Y-44259330D01*
X157303042Y-44264008D01*
X157303042Y-44264009D01*
X157231603Y-44404521D01*
X157197705Y-44471193D01*
X157196146Y-44476213D01*
X157196145Y-44476216D01*
X157131272Y-44685143D01*
X157127225Y-44698176D01*
X157126534Y-44703386D01*
X157126534Y-44703388D01*
X157096904Y-44926942D01*
X157095996Y-44933789D01*
X144130500Y-44933789D01*
X144130500Y-44105354D01*
X144127382Y-44079154D01*
X144081939Y-43976847D01*
X144040882Y-43935862D01*
X147695497Y-43935862D01*
X147725134Y-44108340D01*
X147793654Y-44269373D01*
X147797921Y-44275171D01*
X147797922Y-44275173D01*
X147889327Y-44399377D01*
X147897383Y-44410324D01*
X147902874Y-44414989D01*
X147902875Y-44414990D01*
X148025261Y-44518965D01*
X148025264Y-44518967D01*
X148030755Y-44523632D01*
X148037172Y-44526909D01*
X148037174Y-44526910D01*
X148046365Y-44531603D01*
X148186616Y-44603219D01*
X148193612Y-44604931D01*
X148193615Y-44604932D01*
X148264763Y-44622341D01*
X148356606Y-44644815D01*
X148362114Y-44645157D01*
X148362116Y-44645157D01*
X148365744Y-44645382D01*
X148365748Y-44645382D01*
X148367648Y-44645500D01*
X148493822Y-44645500D01*
X148623828Y-44630343D01*
X148630595Y-44627887D01*
X148630598Y-44627886D01*
X148781557Y-44573090D01*
X148781558Y-44573089D01*
X148788331Y-44570631D01*
X148934685Y-44474677D01*
X148939637Y-44469449D01*
X148939640Y-44469447D01*
X149050087Y-44352857D01*
X149050089Y-44352855D01*
X149055040Y-44347628D01*
X149058656Y-44341403D01*
X149058658Y-44341400D01*
X149139322Y-44202525D01*
X149142939Y-44196298D01*
X149193667Y-44028807D01*
X149199433Y-43935862D01*
X150695497Y-43935862D01*
X150725134Y-44108340D01*
X150793654Y-44269373D01*
X150797921Y-44275171D01*
X150797922Y-44275173D01*
X150889327Y-44399377D01*
X150897383Y-44410324D01*
X150902874Y-44414989D01*
X150902875Y-44414990D01*
X151025261Y-44518965D01*
X151025264Y-44518967D01*
X151030755Y-44523632D01*
X151037172Y-44526909D01*
X151037174Y-44526910D01*
X151046365Y-44531603D01*
X151186616Y-44603219D01*
X151193612Y-44604931D01*
X151193615Y-44604932D01*
X151264763Y-44622341D01*
X151356606Y-44644815D01*
X151362114Y-44645157D01*
X151362116Y-44645157D01*
X151365744Y-44645382D01*
X151365748Y-44645382D01*
X151367648Y-44645500D01*
X151493822Y-44645500D01*
X151623828Y-44630343D01*
X151630595Y-44627887D01*
X151630598Y-44627886D01*
X151781557Y-44573090D01*
X151781558Y-44573089D01*
X151788331Y-44570631D01*
X151934685Y-44474677D01*
X151939637Y-44469449D01*
X151939640Y-44469447D01*
X152050087Y-44352857D01*
X152050089Y-44352855D01*
X152055040Y-44347628D01*
X152058656Y-44341403D01*
X152058658Y-44341400D01*
X152139322Y-44202525D01*
X152142939Y-44196298D01*
X152193667Y-44028807D01*
X152202014Y-43894262D01*
X152204057Y-43861332D01*
X152204057Y-43861329D01*
X152204503Y-43854138D01*
X152174866Y-43681660D01*
X152171555Y-43673877D01*
X152109166Y-43527255D01*
X152106346Y-43520627D01*
X152053340Y-43448600D01*
X152006888Y-43385479D01*
X152006886Y-43385477D01*
X152002617Y-43379676D01*
X151997125Y-43375010D01*
X151874739Y-43271035D01*
X151874736Y-43271033D01*
X151869245Y-43266368D01*
X151862828Y-43263091D01*
X151862826Y-43263090D01*
X151772388Y-43216910D01*
X151713384Y-43186781D01*
X151706388Y-43185069D01*
X151706385Y-43185068D01*
X151635237Y-43167659D01*
X151543394Y-43145185D01*
X151537886Y-43144843D01*
X151537884Y-43144843D01*
X151534256Y-43144618D01*
X151534252Y-43144618D01*
X151532352Y-43144500D01*
X151406178Y-43144500D01*
X151276172Y-43159657D01*
X151269405Y-43162113D01*
X151269402Y-43162114D01*
X151118443Y-43216910D01*
X151111669Y-43219369D01*
X151039984Y-43266368D01*
X150990456Y-43298840D01*
X150965315Y-43315323D01*
X150960363Y-43320551D01*
X150960360Y-43320553D01*
X150898855Y-43385479D01*
X150844960Y-43442372D01*
X150841344Y-43448597D01*
X150841342Y-43448600D01*
X150802875Y-43514827D01*
X150757061Y-43593702D01*
X150706333Y-43761193D01*
X150703155Y-43812420D01*
X150698209Y-43892152D01*
X150695497Y-43935862D01*
X149199433Y-43935862D01*
X149202014Y-43894262D01*
X149204057Y-43861332D01*
X149204057Y-43861329D01*
X149204503Y-43854138D01*
X149174866Y-43681660D01*
X149171555Y-43673877D01*
X149109166Y-43527255D01*
X149106346Y-43520627D01*
X149053340Y-43448600D01*
X149006888Y-43385479D01*
X149006886Y-43385477D01*
X149002617Y-43379676D01*
X148997125Y-43375010D01*
X148874739Y-43271035D01*
X148874736Y-43271033D01*
X148869245Y-43266368D01*
X148862828Y-43263091D01*
X148862826Y-43263090D01*
X148772388Y-43216910D01*
X148713384Y-43186781D01*
X148706388Y-43185069D01*
X148706385Y-43185068D01*
X148635237Y-43167659D01*
X148543394Y-43145185D01*
X148537886Y-43144843D01*
X148537884Y-43144843D01*
X148534256Y-43144618D01*
X148534252Y-43144618D01*
X148532352Y-43144500D01*
X148406178Y-43144500D01*
X148276172Y-43159657D01*
X148269405Y-43162113D01*
X148269402Y-43162114D01*
X148118443Y-43216910D01*
X148111669Y-43219369D01*
X148039984Y-43266368D01*
X147990456Y-43298840D01*
X147965315Y-43315323D01*
X147960363Y-43320551D01*
X147960360Y-43320553D01*
X147898855Y-43385479D01*
X147844960Y-43442372D01*
X147841344Y-43448597D01*
X147841342Y-43448600D01*
X147802875Y-43514827D01*
X147757061Y-43593702D01*
X147706333Y-43761193D01*
X147703155Y-43812420D01*
X147698209Y-43892152D01*
X147695497Y-43935862D01*
X144040882Y-43935862D01*
X144002713Y-43897759D01*
X143992242Y-43893130D01*
X143992241Y-43893129D01*
X143908853Y-43856263D01*
X143908851Y-43856262D01*
X143900327Y-43852494D01*
X143874646Y-43849500D01*
X142085354Y-43849500D01*
X142081700Y-43849935D01*
X142081698Y-43849935D01*
X142076734Y-43850526D01*
X142059154Y-43852618D01*
X141956847Y-43898061D01*
X141877759Y-43977287D01*
X141873130Y-43987758D01*
X141873129Y-43987759D01*
X141838876Y-44065238D01*
X141832494Y-44079673D01*
X141829500Y-44105354D01*
X141829500Y-44842727D01*
X141809815Y-44909766D01*
X141757011Y-44955521D01*
X141687853Y-44965465D01*
X141624297Y-44936440D01*
X141586523Y-44877662D01*
X141582020Y-44854073D01*
X141576601Y-44795101D01*
X141576601Y-44795100D01*
X141576081Y-44789440D01*
X141518686Y-44585931D01*
X141512354Y-44573090D01*
X141489580Y-44526910D01*
X141425165Y-44396290D01*
X141298651Y-44226867D01*
X141294481Y-44223012D01*
X141294478Y-44223009D01*
X141188552Y-44125093D01*
X141143381Y-44083337D01*
X141137574Y-44079673D01*
X140969363Y-43973539D01*
X140969361Y-43973538D01*
X140964554Y-43970505D01*
X140768160Y-43892152D01*
X140762579Y-43891042D01*
X140762576Y-43891041D01*
X140664467Y-43871526D01*
X140560775Y-43850901D01*
X140555088Y-43850827D01*
X140555083Y-43850826D01*
X140355034Y-43848207D01*
X140355029Y-43848207D01*
X140349346Y-43848133D01*
X140343742Y-43849096D01*
X140343741Y-43849096D01*
X140146550Y-43882979D01*
X140146547Y-43882980D01*
X140140953Y-43883941D01*
X139942575Y-43957127D01*
X139937697Y-43960029D01*
X139937695Y-43960030D01*
X139765740Y-44062332D01*
X139765737Y-44062334D01*
X139760856Y-44065238D01*
X139601881Y-44204655D01*
X139598362Y-44209119D01*
X139598359Y-44209122D01*
X139580782Y-44231419D01*
X139470976Y-44370708D01*
X139372523Y-44557836D01*
X139370837Y-44563267D01*
X139370835Y-44563271D01*
X139327328Y-44703388D01*
X139309820Y-44759773D01*
X139292851Y-44903140D01*
X139265425Y-44967398D01*
X139210974Y-45004346D01*
X139130225Y-45004346D01*
X139130667Y-45004063D01*
X139078057Y-44972081D01*
X139047453Y-44909271D01*
X139046232Y-44899909D01*
X139036601Y-44795100D01*
X139036081Y-44789440D01*
X138978686Y-44585931D01*
X138972354Y-44573090D01*
X138949580Y-44526910D01*
X138885165Y-44396290D01*
X138758651Y-44226867D01*
X138754481Y-44223012D01*
X138754478Y-44223009D01*
X138648552Y-44125093D01*
X138603381Y-44083337D01*
X138597574Y-44079673D01*
X138429363Y-43973539D01*
X138429361Y-43973538D01*
X138424554Y-43970505D01*
X138228160Y-43892152D01*
X138222579Y-43891042D01*
X138222576Y-43891041D01*
X138124467Y-43871526D01*
X138020775Y-43850901D01*
X138015088Y-43850827D01*
X138015083Y-43850826D01*
X137815034Y-43848207D01*
X137815029Y-43848207D01*
X137809346Y-43848133D01*
X137803742Y-43849096D01*
X137803741Y-43849096D01*
X137606550Y-43882979D01*
X137606547Y-43882980D01*
X137600953Y-43883941D01*
X137402575Y-43957127D01*
X137397697Y-43960029D01*
X137397695Y-43960030D01*
X137225740Y-44062332D01*
X137225737Y-44062334D01*
X137220856Y-44065238D01*
X137061881Y-44204655D01*
X137058362Y-44209119D01*
X137058359Y-44209122D01*
X137040782Y-44231419D01*
X136930976Y-44370708D01*
X136832523Y-44557836D01*
X136830837Y-44563267D01*
X136830835Y-44563271D01*
X136787328Y-44703388D01*
X136769820Y-44759773D01*
X136752851Y-44903140D01*
X136725425Y-44967398D01*
X136670974Y-45004346D01*
X136590225Y-45004346D01*
X136590667Y-45004063D01*
X136538057Y-44972081D01*
X136507453Y-44909271D01*
X136506232Y-44899909D01*
X136496601Y-44795100D01*
X136496081Y-44789440D01*
X136438686Y-44585931D01*
X136432354Y-44573090D01*
X136409580Y-44526910D01*
X136345165Y-44396290D01*
X136218651Y-44226867D01*
X136214481Y-44223012D01*
X136214478Y-44223009D01*
X136108552Y-44125093D01*
X136063381Y-44083337D01*
X136057574Y-44079673D01*
X135889363Y-43973539D01*
X135889361Y-43973538D01*
X135884554Y-43970505D01*
X135688160Y-43892152D01*
X135682579Y-43891042D01*
X135682576Y-43891041D01*
X135584467Y-43871526D01*
X135480775Y-43850901D01*
X135475088Y-43850827D01*
X135475083Y-43850826D01*
X135275034Y-43848207D01*
X135275029Y-43848207D01*
X135269346Y-43848133D01*
X135263742Y-43849096D01*
X135263741Y-43849096D01*
X135066550Y-43882979D01*
X135066547Y-43882980D01*
X135060953Y-43883941D01*
X134862575Y-43957127D01*
X134857697Y-43960029D01*
X134857695Y-43960030D01*
X134685740Y-44062332D01*
X134685737Y-44062334D01*
X134680856Y-44065238D01*
X134521881Y-44204655D01*
X134518362Y-44209119D01*
X134518359Y-44209122D01*
X134500782Y-44231419D01*
X134390976Y-44370708D01*
X134292523Y-44557836D01*
X134290837Y-44563267D01*
X134290835Y-44563271D01*
X134247328Y-44703388D01*
X134229820Y-44759773D01*
X134229152Y-44765418D01*
X134229151Y-44765422D01*
X134219365Y-44848106D01*
X134204967Y-44969754D01*
X128670000Y-44969754D01*
X128670000Y-44732170D01*
X129170000Y-44732170D01*
X129174404Y-44747169D01*
X129175774Y-44748356D01*
X129183332Y-44750000D01*
X131192170Y-44750000D01*
X131207169Y-44745596D01*
X131208356Y-44744226D01*
X131210000Y-44736668D01*
X131210000Y-44732170D01*
X131710000Y-44732170D01*
X131714404Y-44747169D01*
X131715774Y-44748356D01*
X131723332Y-44750000D01*
X132772806Y-44750000D01*
X132786123Y-44746090D01*
X132787333Y-44737674D01*
X132734832Y-44541736D01*
X132731143Y-44531603D01*
X132635890Y-44327333D01*
X132630492Y-44317983D01*
X132501216Y-44133357D01*
X132494281Y-44125093D01*
X132334909Y-43965721D01*
X132326643Y-43958785D01*
X132142008Y-43829502D01*
X132132676Y-43824114D01*
X131928397Y-43728857D01*
X131918264Y-43725168D01*
X131727221Y-43673978D01*
X131713347Y-43674309D01*
X131710000Y-43682125D01*
X131710000Y-44732170D01*
X131210000Y-44732170D01*
X131210000Y-43687194D01*
X131206090Y-43673877D01*
X131197674Y-43672667D01*
X131001736Y-43725168D01*
X130991603Y-43728857D01*
X130787333Y-43824110D01*
X130777983Y-43829508D01*
X130593357Y-43958784D01*
X130585093Y-43965719D01*
X130425719Y-44125093D01*
X130418789Y-44133352D01*
X130291575Y-44315032D01*
X130236998Y-44358656D01*
X130167499Y-44365849D01*
X130105145Y-44334327D01*
X130088425Y-44315032D01*
X129961211Y-44133352D01*
X129954281Y-44125093D01*
X129794909Y-43965721D01*
X129786643Y-43958785D01*
X129602008Y-43829502D01*
X129592676Y-43824114D01*
X129388397Y-43728857D01*
X129378264Y-43725168D01*
X129187221Y-43673978D01*
X129173347Y-43674309D01*
X129170000Y-43682125D01*
X129170000Y-44732170D01*
X128670000Y-44732170D01*
X128670000Y-43687194D01*
X128666090Y-43673877D01*
X128657674Y-43672667D01*
X128461736Y-43725168D01*
X128451603Y-43728857D01*
X128247333Y-43824110D01*
X128237983Y-43829508D01*
X128053357Y-43958784D01*
X128045093Y-43965719D01*
X127885719Y-44125093D01*
X127878784Y-44133357D01*
X127749508Y-44317983D01*
X127744110Y-44327333D01*
X127652664Y-44523438D01*
X127606491Y-44575877D01*
X127539298Y-44595029D01*
X127472417Y-44574813D01*
X127429071Y-44525878D01*
X127365165Y-44396290D01*
X127238651Y-44226867D01*
X127234481Y-44223012D01*
X127234478Y-44223009D01*
X127128552Y-44125093D01*
X127083381Y-44083337D01*
X127077574Y-44079673D01*
X126909363Y-43973539D01*
X126909361Y-43973538D01*
X126904554Y-43970505D01*
X126708160Y-43892152D01*
X126702579Y-43891042D01*
X126702576Y-43891041D01*
X126604467Y-43871526D01*
X126500775Y-43850901D01*
X126495088Y-43850827D01*
X126495083Y-43850826D01*
X126295034Y-43848207D01*
X126295029Y-43848207D01*
X126289346Y-43848133D01*
X126283742Y-43849096D01*
X126283741Y-43849096D01*
X126086550Y-43882979D01*
X126086547Y-43882980D01*
X126080953Y-43883941D01*
X125882575Y-43957127D01*
X125877697Y-43960029D01*
X125877695Y-43960030D01*
X125705740Y-44062332D01*
X125705737Y-44062334D01*
X125700856Y-44065238D01*
X125541881Y-44204655D01*
X125538362Y-44209119D01*
X125538359Y-44209122D01*
X125520782Y-44231419D01*
X125410976Y-44370708D01*
X125312523Y-44557836D01*
X125310837Y-44563267D01*
X125310835Y-44563271D01*
X125267328Y-44703388D01*
X125249820Y-44759773D01*
X125249152Y-44765418D01*
X125249151Y-44765422D01*
X125237640Y-44862681D01*
X125210213Y-44926942D01*
X125152397Y-44966173D01*
X125082549Y-44967919D01*
X125022845Y-44931625D01*
X124992241Y-44868814D01*
X124990500Y-44848106D01*
X124990500Y-44105354D01*
X124987382Y-44079154D01*
X124941939Y-43976847D01*
X124862713Y-43897759D01*
X124852242Y-43893130D01*
X124852241Y-43893129D01*
X124768853Y-43856263D01*
X124768851Y-43856262D01*
X124760327Y-43852494D01*
X124734646Y-43849500D01*
X122945354Y-43849500D01*
X122941700Y-43849935D01*
X122941698Y-43849935D01*
X122936734Y-43850526D01*
X122919154Y-43852618D01*
X122816847Y-43898061D01*
X122737759Y-43977287D01*
X122733130Y-43987758D01*
X122733129Y-43987759D01*
X122698876Y-44065238D01*
X122692494Y-44079673D01*
X122689500Y-44105354D01*
X122689500Y-45894646D01*
X112580017Y-45894646D01*
X112694579Y-45740670D01*
X112736197Y-45658813D01*
X112799913Y-45533493D01*
X112799915Y-45533488D01*
X112802295Y-45528807D01*
X112817209Y-45480778D01*
X112871215Y-45306848D01*
X112872775Y-45301824D01*
X112877281Y-45267830D01*
X112903315Y-45071412D01*
X112903315Y-45071408D01*
X112904004Y-45066211D01*
X112896363Y-44862681D01*
X112895284Y-44833949D01*
X112895284Y-44833948D01*
X112895087Y-44828705D01*
X112888037Y-44795101D01*
X112847361Y-44601242D01*
X112847360Y-44601239D01*
X112846281Y-44596096D01*
X112840254Y-44580833D01*
X112796954Y-44471193D01*
X112758980Y-44375037D01*
X112753640Y-44366236D01*
X112638408Y-44176341D01*
X112635681Y-44171847D01*
X112479910Y-43992336D01*
X112306216Y-43849916D01*
X112300179Y-43844966D01*
X112300178Y-43844965D01*
X112296120Y-43841638D01*
X112273216Y-43828600D01*
X112094125Y-43726655D01*
X112094120Y-43726653D01*
X112089567Y-43724061D01*
X111866156Y-43642966D01*
X111632275Y-43600674D01*
X111607381Y-43599500D01*
X111440320Y-43599500D01*
X111437704Y-43599722D01*
X111437703Y-43599722D01*
X111426484Y-43600674D01*
X111263177Y-43614531D01*
X111033126Y-43674240D01*
X110816424Y-43771857D01*
X110619268Y-43904591D01*
X110447295Y-44068645D01*
X110305421Y-44259330D01*
X110303042Y-44264008D01*
X110303042Y-44264009D01*
X110231603Y-44404521D01*
X110197705Y-44471193D01*
X110196146Y-44476213D01*
X110196145Y-44476216D01*
X110131272Y-44685143D01*
X110127225Y-44698176D01*
X110126534Y-44703386D01*
X110126534Y-44703388D01*
X110096904Y-44926942D01*
X110095996Y-44933789D01*
X108804203Y-44933789D01*
X108817029Y-44704633D01*
X108818584Y-44690812D01*
X108847754Y-44518965D01*
X108866916Y-44406075D01*
X108870005Y-44392533D01*
X108949922Y-44115000D01*
X108954514Y-44101872D01*
X109065012Y-43835031D01*
X109071046Y-43822499D01*
X109073173Y-43818651D01*
X109185237Y-43615851D01*
X109210723Y-43569730D01*
X109218122Y-43557952D01*
X109344604Y-43379676D01*
X109385240Y-43322400D01*
X109393909Y-43311530D01*
X109586350Y-43096184D01*
X109596184Y-43086350D01*
X109811530Y-42893909D01*
X109822400Y-42885240D01*
X110057952Y-42718122D01*
X110069730Y-42710723D01*
X110196115Y-42640884D01*
X110322504Y-42571044D01*
X110335031Y-42565012D01*
X110601872Y-42454514D01*
X110615000Y-42449922D01*
X110644213Y-42441510D01*
X110892533Y-42370005D01*
X110906075Y-42366916D01*
X111048446Y-42342750D01*
X111190812Y-42318584D01*
X111204633Y-42317029D01*
X111465656Y-42302419D01*
X111479607Y-42303248D01*
X111489255Y-42303250D01*
X111499939Y-42305136D01*
X111510625Y-42303254D01*
X111515587Y-42302380D01*
X111537095Y-42300500D01*
X158466141Y-42300500D01*
X158485792Y-42302067D01*
G37*
%TD.AperFunction*%
%TD*%
M02*
