%TF.GenerationSoftware,KiCad,Pcbnew,(6.0.11)*%
%TF.CreationDate,2023-06-03T19:27:43-07:00*%
%TF.ProjectId,stm32_PendCartBoard,73746d33-325f-4506-956e-644361727442,rev?*%
%TF.SameCoordinates,Original*%
%TF.FileFunction,Legend,Bot*%
%TF.FilePolarity,Positive*%
%FSLAX46Y46*%
G04 Gerber Fmt 4.6, Leading zero omitted, Abs format (unit mm)*
G04 Created by KiCad (PCBNEW (6.0.11)) date 2023-06-03 19:27:43*
%MOMM*%
%LPD*%
G01*
G04 APERTURE LIST*
%ADD10C,0.150000*%
G04 APERTURE END LIST*
D10*
X115524285Y-72400357D02*
X115738571Y-72328928D01*
X116095714Y-72328928D01*
X116238571Y-72400357D01*
X116310000Y-72471785D01*
X116381428Y-72614642D01*
X116381428Y-72757500D01*
X116310000Y-72900357D01*
X116238571Y-72971785D01*
X116095714Y-73043214D01*
X115810000Y-73114642D01*
X115667142Y-73186071D01*
X115595714Y-73257500D01*
X115524285Y-73400357D01*
X115524285Y-73543214D01*
X115595714Y-73686071D01*
X115667142Y-73757500D01*
X115810000Y-73828928D01*
X116167142Y-73828928D01*
X116381428Y-73757500D01*
X116810000Y-73828928D02*
X117667142Y-73828928D01*
X117238571Y-72328928D02*
X117238571Y-73828928D01*
X118167142Y-72328928D02*
X118167142Y-73828928D01*
X118667142Y-72757500D01*
X119167142Y-73828928D01*
X119167142Y-72328928D01*
X119738571Y-73828928D02*
X120667142Y-73828928D01*
X120167142Y-73257500D01*
X120381428Y-73257500D01*
X120524285Y-73186071D01*
X120595714Y-73114642D01*
X120667142Y-72971785D01*
X120667142Y-72614642D01*
X120595714Y-72471785D01*
X120524285Y-72400357D01*
X120381428Y-72328928D01*
X119952857Y-72328928D01*
X119810000Y-72400357D01*
X119738571Y-72471785D01*
X121238571Y-73686071D02*
X121310000Y-73757500D01*
X121452857Y-73828928D01*
X121810000Y-73828928D01*
X121952857Y-73757500D01*
X122024285Y-73686071D01*
X122095714Y-73543214D01*
X122095714Y-73400357D01*
X122024285Y-73186071D01*
X121167142Y-72328928D01*
X122095714Y-72328928D01*
X109345714Y-69913928D02*
X109345714Y-71413928D01*
X109917142Y-71413928D01*
X110060000Y-71342500D01*
X110131428Y-71271071D01*
X110202857Y-71128214D01*
X110202857Y-70913928D01*
X110131428Y-70771071D01*
X110060000Y-70699642D01*
X109917142Y-70628214D01*
X109345714Y-70628214D01*
X111417142Y-69985357D02*
X111274285Y-69913928D01*
X110988571Y-69913928D01*
X110845714Y-69985357D01*
X110774285Y-70128214D01*
X110774285Y-70699642D01*
X110845714Y-70842500D01*
X110988571Y-70913928D01*
X111274285Y-70913928D01*
X111417142Y-70842500D01*
X111488571Y-70699642D01*
X111488571Y-70556785D01*
X110774285Y-70413928D01*
X112131428Y-70913928D02*
X112131428Y-69913928D01*
X112131428Y-70771071D02*
X112202857Y-70842500D01*
X112345714Y-70913928D01*
X112560000Y-70913928D01*
X112702857Y-70842500D01*
X112774285Y-70699642D01*
X112774285Y-69913928D01*
X114131428Y-69913928D02*
X114131428Y-71413928D01*
X114131428Y-69985357D02*
X113988571Y-69913928D01*
X113702857Y-69913928D01*
X113560000Y-69985357D01*
X113488571Y-70056785D01*
X113417142Y-70199642D01*
X113417142Y-70628214D01*
X113488571Y-70771071D01*
X113560000Y-70842500D01*
X113702857Y-70913928D01*
X113988571Y-70913928D01*
X114131428Y-70842500D01*
X114845714Y-70485357D02*
X115988571Y-70485357D01*
X117560000Y-70056785D02*
X117488571Y-69985357D01*
X117274285Y-69913928D01*
X117131428Y-69913928D01*
X116917142Y-69985357D01*
X116774285Y-70128214D01*
X116702857Y-70271071D01*
X116631428Y-70556785D01*
X116631428Y-70771071D01*
X116702857Y-71056785D01*
X116774285Y-71199642D01*
X116917142Y-71342500D01*
X117131428Y-71413928D01*
X117274285Y-71413928D01*
X117488571Y-71342500D01*
X117560000Y-71271071D01*
X118845714Y-69913928D02*
X118845714Y-70699642D01*
X118774285Y-70842500D01*
X118631428Y-70913928D01*
X118345714Y-70913928D01*
X118202857Y-70842500D01*
X118845714Y-69985357D02*
X118702857Y-69913928D01*
X118345714Y-69913928D01*
X118202857Y-69985357D01*
X118131428Y-70128214D01*
X118131428Y-70271071D01*
X118202857Y-70413928D01*
X118345714Y-70485357D01*
X118702857Y-70485357D01*
X118845714Y-70556785D01*
X119560000Y-69913928D02*
X119560000Y-70913928D01*
X119560000Y-70628214D02*
X119631428Y-70771071D01*
X119702857Y-70842500D01*
X119845714Y-70913928D01*
X119988571Y-70913928D01*
X120274285Y-70913928D02*
X120845714Y-70913928D01*
X120488571Y-71413928D02*
X120488571Y-70128214D01*
X120560000Y-69985357D01*
X120702857Y-69913928D01*
X120845714Y-69913928D01*
X122988571Y-70699642D02*
X123202857Y-70628214D01*
X123274285Y-70556785D01*
X123345714Y-70413928D01*
X123345714Y-70199642D01*
X123274285Y-70056785D01*
X123202857Y-69985357D01*
X123060000Y-69913928D01*
X122488571Y-69913928D01*
X122488571Y-71413928D01*
X122988571Y-71413928D01*
X123131428Y-71342500D01*
X123202857Y-71271071D01*
X123274285Y-71128214D01*
X123274285Y-70985357D01*
X123202857Y-70842500D01*
X123131428Y-70771071D01*
X122988571Y-70699642D01*
X122488571Y-70699642D01*
X124202857Y-69913928D02*
X124060000Y-69985357D01*
X123988571Y-70056785D01*
X123917142Y-70199642D01*
X123917142Y-70628214D01*
X123988571Y-70771071D01*
X124060000Y-70842500D01*
X124202857Y-70913928D01*
X124417142Y-70913928D01*
X124560000Y-70842500D01*
X124631428Y-70771071D01*
X124702857Y-70628214D01*
X124702857Y-70199642D01*
X124631428Y-70056785D01*
X124560000Y-69985357D01*
X124417142Y-69913928D01*
X124202857Y-69913928D01*
X125988571Y-69913928D02*
X125988571Y-70699642D01*
X125917142Y-70842500D01*
X125774285Y-70913928D01*
X125488571Y-70913928D01*
X125345714Y-70842500D01*
X125988571Y-69985357D02*
X125845714Y-69913928D01*
X125488571Y-69913928D01*
X125345714Y-69985357D01*
X125274285Y-70128214D01*
X125274285Y-70271071D01*
X125345714Y-70413928D01*
X125488571Y-70485357D01*
X125845714Y-70485357D01*
X125988571Y-70556785D01*
X126702857Y-69913928D02*
X126702857Y-70913928D01*
X126702857Y-70628214D02*
X126774285Y-70771071D01*
X126845714Y-70842500D01*
X126988571Y-70913928D01*
X127131428Y-70913928D01*
X128274285Y-69913928D02*
X128274285Y-71413928D01*
X128274285Y-69985357D02*
X128131428Y-69913928D01*
X127845714Y-69913928D01*
X127702857Y-69985357D01*
X127631428Y-70056785D01*
X127560000Y-70199642D01*
X127560000Y-70628214D01*
X127631428Y-70771071D01*
X127702857Y-70842500D01*
X127845714Y-70913928D01*
X128131428Y-70913928D01*
X128274285Y-70842500D01*
X149072857Y-74547023D02*
X148834761Y-74547023D01*
X148715714Y-74487500D01*
X148656190Y-74427976D01*
X148537142Y-74249404D01*
X148477619Y-74011309D01*
X148477619Y-73535119D01*
X148537142Y-73416071D01*
X148596666Y-73356547D01*
X148715714Y-73297023D01*
X148953809Y-73297023D01*
X149072857Y-73356547D01*
X149132380Y-73416071D01*
X149191904Y-73535119D01*
X149191904Y-73832738D01*
X149132380Y-73951785D01*
X149072857Y-74011309D01*
X148953809Y-74070833D01*
X148715714Y-74070833D01*
X148596666Y-74011309D01*
X148537142Y-73951785D01*
X148477619Y-73832738D01*
X150620476Y-74606547D02*
X149549047Y-72999404D01*
X150918095Y-74547023D02*
X151691904Y-74547023D01*
X151275238Y-74070833D01*
X151453809Y-74070833D01*
X151572857Y-74011309D01*
X151632380Y-73951785D01*
X151691904Y-73832738D01*
X151691904Y-73535119D01*
X151632380Y-73416071D01*
X151572857Y-73356547D01*
X151453809Y-73297023D01*
X151096666Y-73297023D01*
X150977619Y-73356547D01*
X150918095Y-73416071D01*
X153120476Y-74606547D02*
X152049047Y-72999404D01*
X153477619Y-74427976D02*
X153537142Y-74487500D01*
X153656190Y-74547023D01*
X153953809Y-74547023D01*
X154072857Y-74487500D01*
X154132380Y-74427976D01*
X154191904Y-74308928D01*
X154191904Y-74189880D01*
X154132380Y-74011309D01*
X153418095Y-73297023D01*
X154191904Y-73297023D01*
X154608571Y-74547023D02*
X155382380Y-74547023D01*
X154965714Y-74070833D01*
X155144285Y-74070833D01*
X155263333Y-74011309D01*
X155322857Y-73951785D01*
X155382380Y-73832738D01*
X155382380Y-73535119D01*
X155322857Y-73416071D01*
X155263333Y-73356547D01*
X155144285Y-73297023D01*
X154787142Y-73297023D01*
X154668095Y-73356547D01*
X154608571Y-73416071D01*
X149965714Y-72534523D02*
X150382380Y-71284523D01*
X150799047Y-72534523D01*
X151453809Y-72534523D02*
X151691904Y-72534523D01*
X151810952Y-72475000D01*
X151930000Y-72355952D01*
X151989523Y-72117857D01*
X151989523Y-71701190D01*
X151930000Y-71463095D01*
X151810952Y-71344047D01*
X151691904Y-71284523D01*
X151453809Y-71284523D01*
X151334761Y-71344047D01*
X151215714Y-71463095D01*
X151156190Y-71701190D01*
X151156190Y-72117857D01*
X151215714Y-72355952D01*
X151334761Y-72475000D01*
X151453809Y-72534523D01*
X152525238Y-71403571D02*
X152584761Y-71344047D01*
X152525238Y-71284523D01*
X152465714Y-71344047D01*
X152525238Y-71403571D01*
X152525238Y-71284523D01*
X153775238Y-71284523D02*
X153060952Y-71284523D01*
X153418095Y-71284523D02*
X153418095Y-72534523D01*
X153299047Y-72355952D01*
X153180000Y-72236904D01*
X153060952Y-72177380D01*
X148239523Y-70522023D02*
X147644285Y-70522023D01*
X147584761Y-69926785D01*
X147644285Y-69986309D01*
X147763333Y-70045833D01*
X148060952Y-70045833D01*
X148180000Y-69986309D01*
X148239523Y-69926785D01*
X148299047Y-69807738D01*
X148299047Y-69510119D01*
X148239523Y-69391071D01*
X148180000Y-69331547D01*
X148060952Y-69272023D01*
X147763333Y-69272023D01*
X147644285Y-69331547D01*
X147584761Y-69391071D01*
X148715714Y-70522023D02*
X149489523Y-70522023D01*
X149072857Y-70045833D01*
X149251428Y-70045833D01*
X149370476Y-69986309D01*
X149430000Y-69926785D01*
X149489523Y-69807738D01*
X149489523Y-69510119D01*
X149430000Y-69391071D01*
X149370476Y-69331547D01*
X149251428Y-69272023D01*
X148894285Y-69272023D01*
X148775238Y-69331547D01*
X148715714Y-69391071D01*
X150203809Y-69986309D02*
X150084761Y-70045833D01*
X150025238Y-70105357D01*
X149965714Y-70224404D01*
X149965714Y-70283928D01*
X150025238Y-70402976D01*
X150084761Y-70462500D01*
X150203809Y-70522023D01*
X150441904Y-70522023D01*
X150560952Y-70462500D01*
X150620476Y-70402976D01*
X150680000Y-70283928D01*
X150680000Y-70224404D01*
X150620476Y-70105357D01*
X150560952Y-70045833D01*
X150441904Y-69986309D01*
X150203809Y-69986309D01*
X150084761Y-69926785D01*
X150025238Y-69867261D01*
X149965714Y-69748214D01*
X149965714Y-69510119D01*
X150025238Y-69391071D01*
X150084761Y-69331547D01*
X150203809Y-69272023D01*
X150441904Y-69272023D01*
X150560952Y-69331547D01*
X150620476Y-69391071D01*
X150680000Y-69510119D01*
X150680000Y-69748214D01*
X150620476Y-69867261D01*
X150560952Y-69926785D01*
X150441904Y-69986309D01*
X151989523Y-70522023D02*
X152703809Y-70522023D01*
X152346666Y-69272023D02*
X152346666Y-70522023D01*
X153120476Y-69926785D02*
X153537142Y-69926785D01*
X153715714Y-69272023D02*
X153120476Y-69272023D01*
X153120476Y-70522023D01*
X153715714Y-70522023D01*
X154965714Y-69391071D02*
X154906190Y-69331547D01*
X154727619Y-69272023D01*
X154608571Y-69272023D01*
X154430000Y-69331547D01*
X154310952Y-69450595D01*
X154251428Y-69569642D01*
X154191904Y-69807738D01*
X154191904Y-69986309D01*
X154251428Y-70224404D01*
X154310952Y-70343452D01*
X154430000Y-70462500D01*
X154608571Y-70522023D01*
X154727619Y-70522023D01*
X154906190Y-70462500D01*
X154965714Y-70402976D01*
X155501428Y-69272023D02*
X155501428Y-70522023D01*
X155501428Y-69926785D02*
X156215714Y-69926785D01*
X156215714Y-69272023D02*
X156215714Y-70522023D01*
M02*
