%TF.GenerationSoftware,KiCad,Pcbnew,(6.0.11)*%
%TF.CreationDate,2023-06-03T19:27:43-07:00*%
%TF.ProjectId,stm32_PendCartBoard,73746d33-325f-4506-956e-644361727442,rev?*%
%TF.SameCoordinates,Original*%
%TF.FileFunction,Copper,L1,Top*%
%TF.FilePolarity,Positive*%
%FSLAX46Y46*%
G04 Gerber Fmt 4.6, Leading zero omitted, Abs format (unit mm)*
G04 Created by KiCad (PCBNEW (6.0.11)) date 2023-06-03 19:27:43*
%MOMM*%
%LPD*%
G01*
G04 APERTURE LIST*
G04 Aperture macros list*
%AMRoundRect*
0 Rectangle with rounded corners*
0 $1 Rounding radius*
0 $2 $3 $4 $5 $6 $7 $8 $9 X,Y pos of 4 corners*
0 Add a 4 corners polygon primitive as box body*
4,1,4,$2,$3,$4,$5,$6,$7,$8,$9,$2,$3,0*
0 Add four circle primitives for the rounded corners*
1,1,$1+$1,$2,$3*
1,1,$1+$1,$4,$5*
1,1,$1+$1,$6,$7*
1,1,$1+$1,$8,$9*
0 Add four rect primitives between the rounded corners*
20,1,$1+$1,$2,$3,$4,$5,0*
20,1,$1+$1,$4,$5,$6,$7,0*
20,1,$1+$1,$6,$7,$8,$9,0*
20,1,$1+$1,$8,$9,$2,$3,0*%
G04 Aperture macros list end*
%TA.AperFunction,SMDPad,CuDef*%
%ADD10RoundRect,0.218750X0.256250X-0.218750X0.256250X0.218750X-0.256250X0.218750X-0.256250X-0.218750X0*%
%TD*%
%TA.AperFunction,SMDPad,CuDef*%
%ADD11RoundRect,0.135000X0.185000X-0.135000X0.185000X0.135000X-0.185000X0.135000X-0.185000X-0.135000X0*%
%TD*%
%TA.AperFunction,ComponentPad*%
%ADD12R,1.700000X1.700000*%
%TD*%
%TA.AperFunction,ComponentPad*%
%ADD13O,1.700000X1.700000*%
%TD*%
%TA.AperFunction,SMDPad,CuDef*%
%ADD14RoundRect,0.140000X0.140000X0.170000X-0.140000X0.170000X-0.140000X-0.170000X0.140000X-0.170000X0*%
%TD*%
%TA.AperFunction,SMDPad,CuDef*%
%ADD15RoundRect,0.225000X0.250000X-0.225000X0.250000X0.225000X-0.250000X0.225000X-0.250000X-0.225000X0*%
%TD*%
%TA.AperFunction,SMDPad,CuDef*%
%ADD16RoundRect,0.218750X0.218750X0.256250X-0.218750X0.256250X-0.218750X-0.256250X0.218750X-0.256250X0*%
%TD*%
%TA.AperFunction,SMDPad,CuDef*%
%ADD17R,1.300000X0.450000*%
%TD*%
%TA.AperFunction,ComponentPad*%
%ADD18O,2.000000X1.450000*%
%TD*%
%TA.AperFunction,ComponentPad*%
%ADD19O,1.800000X1.150000*%
%TD*%
%TA.AperFunction,SMDPad,CuDef*%
%ADD20RoundRect,0.250000X-0.475000X0.250000X-0.475000X-0.250000X0.475000X-0.250000X0.475000X0.250000X0*%
%TD*%
%TA.AperFunction,SMDPad,CuDef*%
%ADD21RoundRect,0.250000X0.475000X-0.250000X0.475000X0.250000X-0.475000X0.250000X-0.475000X-0.250000X0*%
%TD*%
%TA.AperFunction,SMDPad,CuDef*%
%ADD22R,2.000000X1.500000*%
%TD*%
%TA.AperFunction,SMDPad,CuDef*%
%ADD23R,2.000000X3.800000*%
%TD*%
%TA.AperFunction,SMDPad,CuDef*%
%ADD24RoundRect,0.140000X0.170000X-0.140000X0.170000X0.140000X-0.170000X0.140000X-0.170000X-0.140000X0*%
%TD*%
%TA.AperFunction,SMDPad,CuDef*%
%ADD25RoundRect,0.135000X-0.135000X-0.185000X0.135000X-0.185000X0.135000X0.185000X-0.135000X0.185000X0*%
%TD*%
%TA.AperFunction,SMDPad,CuDef*%
%ADD26RoundRect,0.218750X-0.256250X0.218750X-0.256250X-0.218750X0.256250X-0.218750X0.256250X0.218750X0*%
%TD*%
%TA.AperFunction,SMDPad,CuDef*%
%ADD27R,1.750000X0.450000*%
%TD*%
%TA.AperFunction,SMDPad,CuDef*%
%ADD28R,1.200000X1.400000*%
%TD*%
%TA.AperFunction,SMDPad,CuDef*%
%ADD29RoundRect,0.135000X-0.185000X0.135000X-0.185000X-0.135000X0.185000X-0.135000X0.185000X0.135000X0*%
%TD*%
%TA.AperFunction,SMDPad,CuDef*%
%ADD30RoundRect,0.135000X0.135000X0.185000X-0.135000X0.185000X-0.135000X-0.185000X0.135000X-0.185000X0*%
%TD*%
%TA.AperFunction,SMDPad,CuDef*%
%ADD31R,1.000000X0.800000*%
%TD*%
%TA.AperFunction,SMDPad,CuDef*%
%ADD32R,0.700000X1.500000*%
%TD*%
%TA.AperFunction,SMDPad,CuDef*%
%ADD33RoundRect,0.140000X-0.170000X0.140000X-0.170000X-0.140000X0.170000X-0.140000X0.170000X0.140000X0*%
%TD*%
%TA.AperFunction,SMDPad,CuDef*%
%ADD34RoundRect,0.075000X-0.662500X-0.075000X0.662500X-0.075000X0.662500X0.075000X-0.662500X0.075000X0*%
%TD*%
%TA.AperFunction,SMDPad,CuDef*%
%ADD35RoundRect,0.075000X-0.075000X-0.662500X0.075000X-0.662500X0.075000X0.662500X-0.075000X0.662500X0*%
%TD*%
%TA.AperFunction,ViaPad*%
%ADD36C,0.800000*%
%TD*%
%TA.AperFunction,ViaPad*%
%ADD37C,0.700000*%
%TD*%
%TA.AperFunction,Conductor*%
%ADD38C,0.300000*%
%TD*%
%TA.AperFunction,Conductor*%
%ADD39C,0.500000*%
%TD*%
%TA.AperFunction,Conductor*%
%ADD40C,0.200000*%
%TD*%
G04 APERTURE END LIST*
D10*
%TO.P,D2,1,K*%
%TO.N,Net-(D2-Pad1)*%
X138200000Y-66097500D03*
%TO.P,D2,2,A*%
%TO.N,PB1*%
X138200000Y-64522500D03*
%TD*%
D11*
%TO.P,R6,1*%
%TO.N,GND*%
X138310000Y-68440000D03*
%TO.P,R6,2*%
%TO.N,Net-(D2-Pad1)*%
X138310000Y-67420000D03*
%TD*%
D12*
%TO.P,J7,1,Pin_1*%
%TO.N,Motor+*%
X119160000Y-54705000D03*
D13*
%TO.P,J7,2,Pin_2*%
%TO.N,GND*%
X119160000Y-52165000D03*
%TD*%
D12*
%TO.P,J6,1,Pin_1*%
%TO.N,+5V*%
X157700000Y-65140000D03*
D13*
%TO.P,J6,2,Pin_2*%
%TO.N,GND*%
X157700000Y-67680000D03*
%TD*%
D12*
%TO.P,J5,1,Pin_1*%
%TO.N,/SWCLK*%
X142065000Y-50260000D03*
D13*
%TO.P,J5,2,Pin_2*%
%TO.N,/SWDIO*%
X144605000Y-50260000D03*
%TD*%
D12*
%TO.P,J1,1,Pin_1*%
%TO.N,GND*%
X150895000Y-50260000D03*
D13*
%TO.P,J1,2,Pin_2*%
%TO.N,+3.3V*%
X148355000Y-50260000D03*
%TD*%
D14*
%TO.P,C9,1*%
%TO.N,+3.3VA*%
X131760000Y-61150000D03*
%TO.P,C9,2*%
%TO.N,GND*%
X130800000Y-61150000D03*
%TD*%
D15*
%TO.P,C3,1*%
%TO.N,+3.3V*%
X131750000Y-54455000D03*
%TO.P,C3,2*%
%TO.N,GND*%
X131750000Y-52905000D03*
%TD*%
D16*
%TO.P,D1,1,K*%
%TO.N,/PWR_LED_K*%
X145187500Y-68010000D03*
%TO.P,D1,2,A*%
%TO.N,+3.3V*%
X143612500Y-68010000D03*
%TD*%
D17*
%TO.P,J3,1,VBUS*%
%TO.N,+5V*%
X155830000Y-58400000D03*
%TO.P,J3,2,D-*%
%TO.N,/USB_D-*%
X155830000Y-57750000D03*
%TO.P,J3,3,D+*%
%TO.N,/USB_D+*%
X155830000Y-57100000D03*
%TO.P,J3,4,ID*%
%TO.N,unconnected-(J3-Pad4)*%
X155830000Y-56450000D03*
%TO.P,J3,5,GND*%
%TO.N,GND*%
X155830000Y-55800000D03*
D18*
%TO.P,J3,6,Shield*%
%TO.N,unconnected-(J3-Pad6)*%
X155880000Y-53375000D03*
X155880000Y-60825000D03*
D19*
X159680000Y-60975000D03*
X159680000Y-53225000D03*
%TD*%
D12*
%TO.P,J8,1,Pin_1*%
%TO.N,GND*%
X123970000Y-74220000D03*
D13*
%TO.P,J8,2,Pin_2*%
%TO.N,USART1_TX*%
X126510000Y-74220000D03*
%TO.P,J8,3,Pin_3*%
%TO.N,USART1_RX*%
X129050000Y-74220000D03*
%TO.P,J8,4,Pin_4*%
%TO.N,+3.3V*%
X131590000Y-74220000D03*
%TD*%
D20*
%TO.P,C16,1*%
%TO.N,+3.3V*%
X121070000Y-68340000D03*
%TO.P,C16,2*%
%TO.N,GND*%
X121070000Y-70240000D03*
%TD*%
D12*
%TO.P,J2,1,Pin_1*%
%TO.N,TIM4_CH1*%
X142980000Y-45000000D03*
D13*
%TO.P,J2,2,Pin_2*%
%TO.N,TIM4_CH2*%
X140440000Y-45000000D03*
%TO.P,J2,3,Pin_3*%
%TO.N,GPIO_INPUT1*%
X137900000Y-45000000D03*
%TO.P,J2,4,Pin_4*%
%TO.N,GPIO_INPUT2*%
X135360000Y-45000000D03*
%TD*%
D21*
%TO.P,C15,1*%
%TO.N,Motor+*%
X124670000Y-56320000D03*
%TO.P,C15,2*%
%TO.N,GND*%
X124670000Y-54420000D03*
%TD*%
D22*
%TO.P,U1,1,GND*%
%TO.N,GND*%
X152000000Y-65630000D03*
%TO.P,U1,2,VO*%
%TO.N,+3.3V*%
X152000000Y-63330000D03*
D23*
X145700000Y-63330000D03*
D22*
%TO.P,U1,3,VI*%
%TO.N,+5V*%
X152000000Y-61030000D03*
%TD*%
D24*
%TO.P,C4,1*%
%TO.N,+3.3V*%
X142270000Y-54770000D03*
%TO.P,C4,2*%
%TO.N,GND*%
X142270000Y-53810000D03*
%TD*%
D14*
%TO.P,C8,1*%
%TO.N,+3.3VA*%
X131760000Y-60110000D03*
%TO.P,C8,2*%
%TO.N,GND*%
X130800000Y-60110000D03*
%TD*%
D24*
%TO.P,C11,1*%
%TO.N,/NRST*%
X133050000Y-54570000D03*
%TO.P,C11,2*%
%TO.N,GND*%
X133050000Y-53610000D03*
%TD*%
D25*
%TO.P,R2,1*%
%TO.N,BOOT0*%
X145300000Y-47230000D03*
%TO.P,R2,2*%
%TO.N,Net-(R2-Pad2)*%
X146320000Y-47230000D03*
%TD*%
D24*
%TO.P,C7,1*%
%TO.N,+3.3V*%
X135270000Y-52800000D03*
%TO.P,C7,2*%
%TO.N,GND*%
X135270000Y-51840000D03*
%TD*%
D25*
%TO.P,R1,1*%
%TO.N,/PWR_LED_K*%
X146760000Y-68050000D03*
%TO.P,R1,2*%
%TO.N,GND*%
X147780000Y-68050000D03*
%TD*%
D26*
%TO.P,FB1,1*%
%TO.N,+3.3VA*%
X131450000Y-62552500D03*
%TO.P,FB1,2*%
%TO.N,+3.3V*%
X131450000Y-64127500D03*
%TD*%
D12*
%TO.P,J10,1,Pin_1*%
%TO.N,+5V*%
X123840000Y-45000000D03*
D13*
%TO.P,J10,2,Pin_2*%
X126380000Y-45000000D03*
%TO.P,J10,3,Pin_3*%
%TO.N,GND*%
X128920000Y-45000000D03*
%TO.P,J10,4,Pin_4*%
X131460000Y-45000000D03*
%TD*%
D24*
%TO.P,C12,1*%
%TO.N,/HSE_IN*%
X131690000Y-57100000D03*
%TO.P,C12,2*%
%TO.N,GND*%
X131690000Y-56140000D03*
%TD*%
D14*
%TO.P,C10,1*%
%TO.N,+3.3V*%
X141470000Y-64240000D03*
%TO.P,C10,2*%
%TO.N,GND*%
X140510000Y-64240000D03*
%TD*%
D20*
%TO.P,C17,1*%
%TO.N,+3.3V*%
X118890000Y-68350000D03*
%TO.P,C17,2*%
%TO.N,GND*%
X118890000Y-70250000D03*
%TD*%
D21*
%TO.P,C14,1*%
%TO.N,Motor+*%
X122250000Y-56280000D03*
%TO.P,C14,2*%
%TO.N,GND*%
X122250000Y-54380000D03*
%TD*%
D25*
%TO.P,R4,1*%
%TO.N,+3.3V*%
X137950000Y-69490000D03*
%TO.P,R4,2*%
%TO.N,I2C2_SCL*%
X138970000Y-69490000D03*
%TD*%
D27*
%TO.P,U3,1,AO1*%
%TO.N,Net-(J4-Pad4)*%
X115850000Y-58965000D03*
%TO.P,U3,2,AO1*%
X115850000Y-59615000D03*
%TO.P,U3,3,PGND1*%
%TO.N,GND*%
X115850000Y-60265000D03*
%TO.P,U3,4,PGND1*%
X115850000Y-60915000D03*
%TO.P,U3,5,AO2*%
%TO.N,Net-(J4-Pad3)*%
X115850000Y-61565000D03*
%TO.P,U3,6,AO2*%
X115850000Y-62215000D03*
%TO.P,U3,7,BO2*%
%TO.N,Net-(J4-Pad1)*%
X115850000Y-62865000D03*
%TO.P,U3,8,BO2*%
X115850000Y-63515000D03*
%TO.P,U3,9,PGND2*%
%TO.N,GND*%
X115850000Y-64165000D03*
%TO.P,U3,10,PGND2*%
X115850000Y-64815000D03*
%TO.P,U3,11,BO1*%
%TO.N,Net-(J4-Pad2)*%
X115850000Y-65465000D03*
%TO.P,U3,12,BO1*%
X115850000Y-66115000D03*
%TO.P,U3,13,VM2*%
%TO.N,Motor+*%
X123050000Y-66115000D03*
%TO.P,U3,14,VM3*%
X123050000Y-65465000D03*
%TO.P,U3,15,PWMB*%
%TO.N,PWMB*%
X123050000Y-64815000D03*
%TO.P,U3,16,BIN2*%
%TO.N,BOUT2*%
X123050000Y-64165000D03*
%TO.P,U3,17,BIN1*%
%TO.N,BOUT1*%
X123050000Y-63515000D03*
%TO.P,U3,18,GND*%
%TO.N,GND*%
X123050000Y-62865000D03*
%TO.P,U3,19,STBY*%
%TO.N,+3.3V*%
X123050000Y-62215000D03*
%TO.P,U3,20,VCC*%
X123050000Y-61565000D03*
%TO.P,U3,21,AIN1*%
%TO.N,AOUT1*%
X123050000Y-60915000D03*
%TO.P,U3,22,AIN2*%
%TO.N,AOUT2*%
X123050000Y-60265000D03*
%TO.P,U3,23,PWMA*%
%TO.N,PWMA*%
X123050000Y-59615000D03*
%TO.P,U3,24,VM1*%
%TO.N,Motor+*%
X123050000Y-58965000D03*
%TD*%
D12*
%TO.P,J4,1,Pin_1*%
%TO.N,Net-(J4-Pad1)*%
X112060000Y-66520000D03*
D13*
%TO.P,J4,2,Pin_2*%
%TO.N,Net-(J4-Pad2)*%
X112060000Y-63980000D03*
%TO.P,J4,3,Pin_3*%
%TO.N,Net-(J4-Pad3)*%
X112060000Y-61440000D03*
%TO.P,J4,4,Pin_4*%
%TO.N,Net-(J4-Pad4)*%
X112060000Y-58900000D03*
%TD*%
D21*
%TO.P,C2,1*%
%TO.N,+3.3V*%
X143280000Y-66110000D03*
%TO.P,C2,2*%
%TO.N,GND*%
X143280000Y-64210000D03*
%TD*%
D28*
%TO.P,Y1,1,1*%
%TO.N,/HSE_IN*%
X128540000Y-56280000D03*
%TO.P,Y1,2,2*%
%TO.N,GND*%
X128540000Y-58480000D03*
%TO.P,Y1,3,3*%
%TO.N,/HSE_OUT*%
X130240000Y-58480000D03*
%TO.P,Y1,4,4*%
%TO.N,GND*%
X130240000Y-56280000D03*
%TD*%
D24*
%TO.P,C5,1*%
%TO.N,+3.3V*%
X143350000Y-54780000D03*
%TO.P,C5,2*%
%TO.N,GND*%
X143350000Y-53820000D03*
%TD*%
D29*
%TO.P,R3,1*%
%TO.N,+3.3V*%
X146060000Y-56060000D03*
%TO.P,R3,2*%
%TO.N,/USB_D+*%
X146060000Y-57080000D03*
%TD*%
D30*
%TO.P,R5,1*%
%TO.N,+3.3V*%
X140950000Y-67920000D03*
%TO.P,R5,2*%
%TO.N,I2C2_SDA*%
X139930000Y-67920000D03*
%TD*%
D31*
%TO.P,SW1,*%
%TO.N,*%
X146300000Y-45005000D03*
X146300000Y-42795000D03*
X153600000Y-42795000D03*
X153600000Y-45005000D03*
D32*
%TO.P,SW1,1,A*%
%TO.N,GND*%
X152200000Y-45655000D03*
%TO.P,SW1,2,B*%
%TO.N,Net-(R2-Pad2)*%
X149200000Y-45655000D03*
%TO.P,SW1,3,C*%
%TO.N,+3.3V*%
X147700000Y-45655000D03*
%TD*%
D33*
%TO.P,C13,1*%
%TO.N,/HSE_OUT*%
X131690000Y-58090000D03*
%TO.P,C13,2*%
%TO.N,GND*%
X131690000Y-59050000D03*
%TD*%
D24*
%TO.P,C6,1*%
%TO.N,+3.3V*%
X134240000Y-52830000D03*
%TO.P,C6,2*%
%TO.N,GND*%
X134240000Y-51870000D03*
%TD*%
D12*
%TO.P,J9,1,Pin_1*%
%TO.N,+3.3V*%
X135420000Y-74240000D03*
D13*
%TO.P,J9,2,Pin_2*%
%TO.N,I2C2_SCL*%
X137960000Y-74240000D03*
%TO.P,J9,3,Pin_3*%
%TO.N,I2C2_SDA*%
X140500000Y-74240000D03*
%TO.P,J9,4,Pin_4*%
%TO.N,GND*%
X143040000Y-74240000D03*
%TD*%
D20*
%TO.P,C1,1*%
%TO.N,+5V*%
X154520000Y-64080000D03*
%TO.P,C1,2*%
%TO.N,GND*%
X154520000Y-65980000D03*
%TD*%
D34*
%TO.P,U2,1,VBAT*%
%TO.N,+3.3V*%
X133767500Y-55730000D03*
%TO.P,U2,2,PC13*%
%TO.N,unconnected-(U2-Pad2)*%
X133767500Y-56230000D03*
%TO.P,U2,3,PC14*%
%TO.N,unconnected-(U2-Pad3)*%
X133767500Y-56730000D03*
%TO.P,U2,4,PC15*%
%TO.N,unconnected-(U2-Pad4)*%
X133767500Y-57230000D03*
%TO.P,U2,5,PD0*%
%TO.N,/HSE_IN*%
X133767500Y-57730000D03*
%TO.P,U2,6,PD1*%
%TO.N,/HSE_OUT*%
X133767500Y-58230000D03*
%TO.P,U2,7,NRST*%
%TO.N,/NRST*%
X133767500Y-58730000D03*
%TO.P,U2,8,VSSA*%
%TO.N,GND*%
X133767500Y-59230000D03*
%TO.P,U2,9,VDDA*%
%TO.N,+3.3VA*%
X133767500Y-59730000D03*
%TO.P,U2,10,PA0*%
%TO.N,PWMA*%
X133767500Y-60230000D03*
%TO.P,U2,11,PA1*%
%TO.N,PWMB*%
X133767500Y-60730000D03*
%TO.P,U2,12,PA2*%
%TO.N,USART1_TX*%
X133767500Y-61230000D03*
D35*
%TO.P,U2,13,PA3*%
%TO.N,USART1_RX*%
X135180000Y-62642500D03*
%TO.P,U2,14,PA4*%
%TO.N,AOUT1*%
X135680000Y-62642500D03*
%TO.P,U2,15,PA5*%
%TO.N,AOUT2*%
X136180000Y-62642500D03*
%TO.P,U2,16,PA6*%
%TO.N,BOUT1*%
X136680000Y-62642500D03*
%TO.P,U2,17,PA7*%
%TO.N,BOUT2*%
X137180000Y-62642500D03*
%TO.P,U2,18,PB0*%
%TO.N,unconnected-(U2-Pad18)*%
X137680000Y-62642500D03*
%TO.P,U2,19,PB1*%
%TO.N,PB1*%
X138180000Y-62642500D03*
%TO.P,U2,20,PB2*%
%TO.N,unconnected-(U2-Pad20)*%
X138680000Y-62642500D03*
%TO.P,U2,21,PB10*%
%TO.N,I2C2_SCL*%
X139180000Y-62642500D03*
%TO.P,U2,22,PB11*%
%TO.N,I2C2_SDA*%
X139680000Y-62642500D03*
%TO.P,U2,23,VSS*%
%TO.N,GND*%
X140180000Y-62642500D03*
%TO.P,U2,24,VDD*%
%TO.N,+3.3V*%
X140680000Y-62642500D03*
D34*
%TO.P,U2,25,PB12*%
%TO.N,unconnected-(U2-Pad25)*%
X142092500Y-61230000D03*
%TO.P,U2,26,PB13*%
%TO.N,unconnected-(U2-Pad26)*%
X142092500Y-60730000D03*
%TO.P,U2,27,PB14*%
%TO.N,unconnected-(U2-Pad27)*%
X142092500Y-60230000D03*
%TO.P,U2,28,PB15*%
%TO.N,unconnected-(U2-Pad28)*%
X142092500Y-59730000D03*
%TO.P,U2,29,PA8*%
%TO.N,unconnected-(U2-Pad29)*%
X142092500Y-59230000D03*
%TO.P,U2,30,PA9*%
%TO.N,unconnected-(U2-Pad30)*%
X142092500Y-58730000D03*
%TO.P,U2,31,PA10*%
%TO.N,unconnected-(U2-Pad31)*%
X142092500Y-58230000D03*
%TO.P,U2,32,PA11*%
%TO.N,/USB_D-*%
X142092500Y-57730000D03*
%TO.P,U2,33,PA12*%
%TO.N,/USB_D+*%
X142092500Y-57230000D03*
%TO.P,U2,34,PA13*%
%TO.N,/SWDIO*%
X142092500Y-56730000D03*
%TO.P,U2,35,VSS*%
%TO.N,GND*%
X142092500Y-56230000D03*
%TO.P,U2,36,VDD*%
%TO.N,+3.3V*%
X142092500Y-55730000D03*
D35*
%TO.P,U2,37,PA14*%
%TO.N,/SWCLK*%
X140680000Y-54317500D03*
%TO.P,U2,38,PA15*%
%TO.N,unconnected-(U2-Pad38)*%
X140180000Y-54317500D03*
%TO.P,U2,39,PB3*%
%TO.N,unconnected-(U2-Pad39)*%
X139680000Y-54317500D03*
%TO.P,U2,40,PB4*%
%TO.N,unconnected-(U2-Pad40)*%
X139180000Y-54317500D03*
%TO.P,U2,41,PB5*%
%TO.N,unconnected-(U2-Pad41)*%
X138680000Y-54317500D03*
%TO.P,U2,42,PB6*%
%TO.N,TIM4_CH1*%
X138180000Y-54317500D03*
%TO.P,U2,43,PB7*%
%TO.N,TIM4_CH2*%
X137680000Y-54317500D03*
%TO.P,U2,44,BOOT0*%
%TO.N,BOOT0*%
X137180000Y-54317500D03*
%TO.P,U2,45,PB8*%
%TO.N,GPIO_INPUT1*%
X136680000Y-54317500D03*
%TO.P,U2,46,PB9*%
%TO.N,GPIO_INPUT2*%
X136180000Y-54317500D03*
%TO.P,U2,47,VSS*%
%TO.N,GND*%
X135680000Y-54317500D03*
%TO.P,U2,48,VDD*%
%TO.N,+3.3V*%
X135180000Y-54317500D03*
%TD*%
D36*
%TO.N,GND*%
X137290000Y-68480000D03*
%TO.N,Net-(R2-Pad2)*%
X148449500Y-47760000D03*
X146950500Y-48020000D03*
%TO.N,GND*%
X124670000Y-53190000D03*
X122260000Y-53140000D03*
D37*
X124630000Y-62815500D03*
X117400000Y-64180000D03*
X135260000Y-50940000D03*
X130220000Y-54830000D03*
X135130000Y-59210000D03*
X152720000Y-67460000D03*
X150240000Y-65250000D03*
X117380000Y-64930000D03*
X131760000Y-51720000D03*
X140170000Y-61210000D03*
X121090000Y-71460000D03*
X130539105Y-61931695D03*
X150240000Y-66100000D03*
X135690000Y-55700000D03*
X152200000Y-47100000D03*
X148710000Y-68070000D03*
X134230000Y-50950000D03*
X127240000Y-58440000D03*
X151830000Y-67460000D03*
X154530000Y-67180000D03*
X143330000Y-52930000D03*
X143520000Y-56605499D03*
X133040000Y-52680000D03*
X118880000Y-71490000D03*
X117405000Y-60265000D03*
X142289500Y-52940000D03*
X153930000Y-55790000D03*
X143260000Y-62940000D03*
%TO.N,+3.3V*%
X131410000Y-68919500D03*
X144840000Y-58440000D03*
X144780000Y-56605499D03*
X121160000Y-64470000D03*
X131766728Y-65460500D03*
X121046316Y-66162805D03*
%TO.N,USART1_TX*%
X133630000Y-68359500D03*
X133460058Y-64615432D03*
%TO.N,USART1_RX*%
X134659558Y-65460500D03*
X134659558Y-68359500D03*
%TO.N,BOOT0*%
X140389872Y-47399372D03*
X137910500Y-47370000D03*
%TO.N,PWMB*%
X132910000Y-65460500D03*
X132590000Y-68359500D03*
%TO.N,AOUT2*%
X127500000Y-60215500D03*
X127720000Y-61614500D03*
%TD*%
D38*
%TO.N,I2C2_SCL*%
X139160000Y-69490000D02*
X139180000Y-69470000D01*
X138970000Y-69490000D02*
X139160000Y-69490000D01*
X139180000Y-62642500D02*
X139180000Y-69470000D01*
X139180000Y-69470000D02*
X139180000Y-73020000D01*
%TO.N,I2C2_SDA*%
X139730000Y-67920000D02*
X139680000Y-67870000D01*
X139930000Y-67920000D02*
X139730000Y-67920000D01*
X139680000Y-67870000D02*
X139680000Y-73420000D01*
X139680000Y-62642500D02*
X139680000Y-67870000D01*
%TO.N,GND*%
X137330000Y-68440000D02*
X137290000Y-68480000D01*
X138310000Y-68440000D02*
X137330000Y-68440000D01*
%TO.N,Net-(D2-Pad1)*%
X138200000Y-67310000D02*
X138310000Y-67420000D01*
X138200000Y-66097500D02*
X138200000Y-67310000D01*
%TO.N,PB1*%
X138180000Y-64502500D02*
X138200000Y-64522500D01*
X138180000Y-62642500D02*
X138180000Y-64502500D01*
D39*
%TO.N,+3.3V*%
X135870000Y-73790000D02*
X135420000Y-74240000D01*
X136610000Y-69490000D02*
X135870000Y-70230000D01*
X135870000Y-70230000D02*
X135870000Y-73790000D01*
X137950000Y-69490000D02*
X136610000Y-69490000D01*
D38*
%TO.N,GND*%
X155820000Y-55790000D02*
X155830000Y-55800000D01*
X153930000Y-55790000D02*
X155820000Y-55790000D01*
D39*
%TO.N,+5V*%
X158940000Y-65140000D02*
X157700000Y-65140000D01*
X160230000Y-66430000D02*
X158940000Y-65140000D01*
X160230000Y-71320000D02*
X160230000Y-66430000D01*
X159470000Y-72080000D02*
X160230000Y-71320000D01*
X155150000Y-72080000D02*
X159470000Y-72080000D01*
X149910000Y-77320000D02*
X155150000Y-72080000D01*
X110682744Y-71920000D02*
X115890000Y-71920000D01*
X108920000Y-70157256D02*
X110682744Y-71920000D01*
X121290000Y-77320000D02*
X149910000Y-77320000D01*
X108920000Y-54220000D02*
X108920000Y-70157256D01*
X115890000Y-71920000D02*
X121290000Y-77320000D01*
X118140000Y-45000000D02*
X108920000Y-54220000D01*
X123840000Y-45000000D02*
X118140000Y-45000000D01*
%TO.N,+3.3V*%
X143522500Y-67920000D02*
X143612500Y-68010000D01*
X140950000Y-67920000D02*
X143522500Y-67920000D01*
D38*
%TO.N,Net-(R2-Pad2)*%
X148449500Y-46405500D02*
X149200000Y-45655000D01*
X148449500Y-47760000D02*
X148449500Y-46405500D01*
X146320000Y-47230000D02*
X146320000Y-47389500D01*
X146320000Y-47389500D02*
X146950500Y-48020000D01*
%TO.N,BOOT0*%
X140420500Y-47430000D02*
X140389872Y-47399372D01*
X145100000Y-47430000D02*
X140420500Y-47430000D01*
X145300000Y-47230000D02*
X145100000Y-47430000D01*
%TO.N,+3.3V*%
X147700000Y-49605000D02*
X148355000Y-50260000D01*
X147700000Y-45655000D02*
X147700000Y-49605000D01*
D39*
X146060000Y-52555000D02*
X148355000Y-50260000D01*
X146060000Y-56060000D02*
X146060000Y-52555000D01*
D38*
%TO.N,/SWDIO*%
X142370000Y-51680000D02*
X143185000Y-51680000D01*
X141005000Y-55331041D02*
X141390000Y-54946041D01*
X141390000Y-54946041D02*
X141390000Y-52660000D01*
X143185000Y-51680000D02*
X144605000Y-50260000D01*
X141005000Y-56481041D02*
X141005000Y-55331041D01*
X141253959Y-56730000D02*
X141005000Y-56481041D01*
X142092500Y-56730000D02*
X141253959Y-56730000D01*
X141390000Y-52660000D02*
X142370000Y-51680000D01*
%TO.N,/SWCLK*%
X140680000Y-51645000D02*
X142065000Y-50260000D01*
X140680000Y-54317500D02*
X140680000Y-51645000D01*
D39*
%TO.N,GND*%
X124670000Y-54420000D02*
X124670000Y-53190000D01*
X122250000Y-53150000D02*
X122260000Y-53140000D01*
X122250000Y-54380000D02*
X122250000Y-53150000D01*
%TO.N,+3.3V*%
X118200000Y-48680000D02*
X125975000Y-48680000D01*
X116560000Y-50320000D02*
X118200000Y-48680000D01*
X116560000Y-57770000D02*
X116560000Y-50320000D01*
X118890000Y-60100000D02*
X116560000Y-57770000D01*
X125975000Y-48680000D02*
X129655000Y-52360000D01*
X118890000Y-68350000D02*
X118890000Y-60100000D01*
%TO.N,+5V*%
X126380000Y-45000000D02*
X123840000Y-45000000D01*
%TO.N,GND*%
X131690000Y-56140000D02*
X130380000Y-56140000D01*
X133050000Y-53610000D02*
X133050000Y-52690000D01*
D38*
X143144501Y-56230000D02*
X143520000Y-56605499D01*
X115850000Y-64165000D02*
X117385000Y-64165000D01*
D39*
X143350000Y-52950000D02*
X143330000Y-52930000D01*
D38*
X124580500Y-62865000D02*
X124630000Y-62815500D01*
X115850000Y-60915000D02*
X115850000Y-60265000D01*
D39*
X152200000Y-47100000D02*
X152200000Y-45655000D01*
X133050000Y-52690000D02*
X133040000Y-52680000D01*
X121070000Y-71440000D02*
X121090000Y-71460000D01*
D38*
X117405000Y-60265000D02*
X115850000Y-60265000D01*
D39*
X134240000Y-51870000D02*
X134240000Y-50960000D01*
X121070000Y-70240000D02*
X121070000Y-71440000D01*
X142270000Y-52959500D02*
X142289500Y-52940000D01*
X143350000Y-53820000D02*
X143350000Y-52950000D01*
D38*
X117385000Y-64165000D02*
X117400000Y-64180000D01*
D39*
X142270000Y-53810000D02*
X142270000Y-52959500D01*
X128540000Y-58480000D02*
X127280000Y-58480000D01*
X127280000Y-58480000D02*
X127240000Y-58440000D01*
D38*
X133767500Y-59230000D02*
X131870000Y-59230000D01*
D39*
X154520000Y-67170000D02*
X154530000Y-67180000D01*
D38*
X133767500Y-59230000D02*
X135110000Y-59230000D01*
X123050000Y-62865000D02*
X124580500Y-62865000D01*
X140180000Y-61220000D02*
X140170000Y-61210000D01*
D39*
X148690000Y-68050000D02*
X148710000Y-68070000D01*
D38*
X135110000Y-59230000D02*
X135130000Y-59210000D01*
X142092500Y-56230000D02*
X143144501Y-56230000D01*
D39*
X135270000Y-50950000D02*
X135260000Y-50940000D01*
X143280000Y-64210000D02*
X143280000Y-62960000D01*
D38*
X130800000Y-61150000D02*
X130800000Y-61670800D01*
D39*
X147780000Y-68050000D02*
X148690000Y-68050000D01*
X118890000Y-70250000D02*
X118890000Y-71480000D01*
D38*
X115850000Y-64815000D02*
X117265000Y-64815000D01*
D39*
X143280000Y-62960000D02*
X143260000Y-62940000D01*
X130240000Y-54850000D02*
X130220000Y-54830000D01*
X134240000Y-50960000D02*
X134230000Y-50950000D01*
D38*
X117265000Y-64815000D02*
X117380000Y-64930000D01*
X130800000Y-61670800D02*
X130539105Y-61931695D01*
D39*
X118890000Y-71480000D02*
X118880000Y-71490000D01*
X135270000Y-51840000D02*
X135270000Y-50950000D01*
X131750000Y-52905000D02*
X131750000Y-51730000D01*
X130380000Y-56140000D02*
X130240000Y-56280000D01*
X130240000Y-56280000D02*
X130240000Y-54850000D01*
D38*
X135680000Y-54317500D02*
X135680000Y-55690000D01*
X130800000Y-60110000D02*
X130800000Y-61150000D01*
X140180000Y-62642500D02*
X140180000Y-61220000D01*
X131870000Y-59230000D02*
X131690000Y-59050000D01*
X135680000Y-55690000D02*
X135690000Y-55700000D01*
D39*
X131750000Y-51730000D02*
X131760000Y-51720000D01*
D38*
X140180000Y-62642500D02*
X140180000Y-63910000D01*
X140180000Y-63910000D02*
X140510000Y-64240000D01*
D39*
%TO.N,+3.3V*%
X129719500Y-70610000D02*
X123200000Y-70610000D01*
D38*
X121505000Y-62215000D02*
X121070000Y-62650000D01*
D39*
X135420000Y-74240000D02*
X135420000Y-76610000D01*
X135410000Y-76620000D02*
X122150000Y-76620000D01*
D38*
X123050000Y-62215000D02*
X121505000Y-62215000D01*
D39*
X142630000Y-66110000D02*
X141470000Y-64950000D01*
D38*
X121070000Y-62650000D02*
X121070000Y-64380000D01*
D39*
X144680000Y-54780000D02*
X143350000Y-54780000D01*
X121600000Y-76070000D02*
X121600000Y-72210000D01*
D38*
X121070000Y-64380000D02*
X121160000Y-64470000D01*
D39*
X129655000Y-52360000D02*
X131750000Y-54455000D01*
X135400000Y-74220000D02*
X135420000Y-74240000D01*
X122150000Y-76620000D02*
X121600000Y-76070000D01*
X143612500Y-68010000D02*
X143612500Y-66442500D01*
D38*
X134179950Y-52830000D02*
X132349950Y-51000000D01*
D39*
X143612500Y-66442500D02*
X143280000Y-66110000D01*
X146060000Y-56060000D02*
X145960000Y-56060000D01*
D38*
X133025000Y-55730000D02*
X131750000Y-54455000D01*
D39*
X145380000Y-76130000D02*
X144890000Y-76620000D01*
D38*
X130270000Y-51740000D02*
X130270000Y-51745000D01*
D39*
X143612500Y-68010000D02*
X143612500Y-69702500D01*
D38*
X131010000Y-51000000D02*
X130270000Y-51740000D01*
X142092500Y-54947500D02*
X142270000Y-54770000D01*
X134270000Y-52800000D02*
X134240000Y-52830000D01*
X141470000Y-63432500D02*
X140680000Y-62642500D01*
D39*
X121060000Y-68350000D02*
X121070000Y-68340000D01*
X123200000Y-70610000D02*
X123200000Y-69320000D01*
D38*
X141470000Y-64240000D02*
X141470000Y-63432500D01*
D39*
X145700000Y-59300000D02*
X144840000Y-58440000D01*
X123200000Y-69320000D02*
X122220000Y-68340000D01*
D38*
X132349950Y-51000000D02*
X131010000Y-51000000D01*
D39*
X145380000Y-71490000D02*
X145380000Y-76130000D01*
D38*
X143340000Y-54770000D02*
X143350000Y-54780000D01*
X135180000Y-52890000D02*
X135270000Y-52800000D01*
D39*
X121046316Y-66162805D02*
X121046316Y-68316316D01*
X121046316Y-68316316D02*
X121070000Y-68340000D01*
D38*
X130270000Y-51745000D02*
X129655000Y-52360000D01*
D39*
X135420000Y-76610000D02*
X135410000Y-76620000D01*
X122220000Y-68340000D02*
X121070000Y-68340000D01*
X143612500Y-69702500D02*
X145370000Y-71460000D01*
X145325499Y-56060000D02*
X146060000Y-56060000D01*
X121600000Y-72210000D02*
X123200000Y-70610000D01*
X141470000Y-64950000D02*
X141470000Y-64240000D01*
D38*
X134240000Y-52830000D02*
X134179950Y-52830000D01*
D39*
X118890000Y-68350000D02*
X121060000Y-68350000D01*
X144890000Y-76620000D02*
X135410000Y-76620000D01*
D38*
X135180000Y-54317500D02*
X135180000Y-52890000D01*
X142270000Y-54770000D02*
X143340000Y-54770000D01*
D39*
X131410000Y-68919500D02*
X129719500Y-70610000D01*
X143280000Y-66110000D02*
X142630000Y-66110000D01*
X145700000Y-63330000D02*
X145700000Y-59300000D01*
D38*
X142092500Y-55730000D02*
X142092500Y-54947500D01*
D39*
X131590000Y-74220000D02*
X135400000Y-74220000D01*
D38*
X133767500Y-55730000D02*
X133025000Y-55730000D01*
X135270000Y-52800000D02*
X134270000Y-52800000D01*
D39*
X145960000Y-56060000D02*
X144680000Y-54780000D01*
D38*
X131766728Y-64444228D02*
X131450000Y-64127500D01*
X123050000Y-61565000D02*
X123050000Y-62215000D01*
X131766728Y-65460500D02*
X131766728Y-64444228D01*
D39*
X144780000Y-56605499D02*
X145325499Y-56060000D01*
D38*
%TO.N,+3.3VA*%
X131450000Y-61460000D02*
X131760000Y-61150000D01*
X132140000Y-59730000D02*
X131760000Y-60110000D01*
X131450000Y-62552500D02*
X131450000Y-61460000D01*
X133767500Y-59730000D02*
X132140000Y-59730000D01*
D39*
X131760000Y-61150000D02*
X131760000Y-60110000D01*
D38*
%TO.N,/NRST*%
X133050000Y-54570000D02*
X134093959Y-54570000D01*
X134936041Y-58400000D02*
X134606041Y-58730000D01*
X134093959Y-54570000D02*
X134960000Y-55436041D01*
X134960000Y-55436041D02*
X134960000Y-58400000D01*
X134606041Y-58730000D02*
X133767500Y-58730000D01*
X134960000Y-58400000D02*
X134936041Y-58400000D01*
%TO.N,/HSE_IN*%
X131460000Y-57330000D02*
X131690000Y-57100000D01*
X132298959Y-57100000D02*
X132928959Y-57730000D01*
X128540000Y-56280000D02*
X128540000Y-56580000D01*
X128540000Y-56580000D02*
X129290000Y-57330000D01*
X131690000Y-57100000D02*
X132298959Y-57100000D01*
X132928959Y-57730000D02*
X133767500Y-57730000D01*
X129290000Y-57330000D02*
X131460000Y-57330000D01*
%TO.N,/HSE_OUT*%
X133767500Y-58230000D02*
X131830000Y-58230000D01*
X130240000Y-58480000D02*
X130740000Y-58480000D01*
X130740000Y-58480000D02*
X131130000Y-58090000D01*
X131830000Y-58230000D02*
X131690000Y-58090000D01*
X131130000Y-58090000D02*
X131690000Y-58090000D01*
%TO.N,Motor+*%
X121355000Y-58965000D02*
X123050000Y-58965000D01*
X123050000Y-65465000D02*
X123050000Y-66115000D01*
X120350000Y-64720000D02*
X120350000Y-59970000D01*
X120350000Y-59970000D02*
X121355000Y-58965000D01*
X121095000Y-65465000D02*
X120350000Y-64720000D01*
X123050000Y-65465000D02*
X121095000Y-65465000D01*
%TO.N,/PWR_LED_K*%
X145187500Y-68010000D02*
X146720000Y-68010000D01*
X146720000Y-68010000D02*
X146760000Y-68050000D01*
%TO.N,TIM4_CH1*%
X139350000Y-47450000D02*
X140140000Y-46660000D01*
X138180000Y-52474212D02*
X139350000Y-51304212D01*
X139350000Y-51304212D02*
X139350000Y-47450000D01*
X138180000Y-54317500D02*
X138180000Y-52474212D01*
X142980000Y-45190000D02*
X142980000Y-45000000D01*
X141510000Y-46660000D02*
X142980000Y-45190000D01*
X140140000Y-46660000D02*
X141510000Y-46660000D01*
%TO.N,TIM4_CH2*%
X138610000Y-46830000D02*
X140440000Y-45000000D01*
X138610000Y-51337106D02*
X138610000Y-46830000D01*
X137680000Y-54317500D02*
X137680000Y-52267106D01*
X137680000Y-52267106D02*
X138610000Y-51337106D01*
%TO.N,GPIO_INPUT1*%
X136680000Y-51840000D02*
X136680000Y-54317500D01*
X137900000Y-45000000D02*
X137100000Y-45800000D01*
X137100000Y-51420000D02*
X136680000Y-51840000D01*
X137100000Y-45800000D02*
X137100000Y-51420000D01*
%TO.N,GPIO_INPUT2*%
X136180000Y-54317500D02*
X136180000Y-45820000D01*
X136180000Y-45820000D02*
X135360000Y-45000000D01*
D40*
%TO.N,/USB_D-*%
X142092500Y-57730000D02*
X142117499Y-57705001D01*
X142117499Y-57705001D02*
X155785001Y-57705001D01*
X155785001Y-57705001D02*
X155830000Y-57750000D01*
%TO.N,/USB_D+*%
X155035000Y-57100000D02*
X155830000Y-57100000D01*
X154880000Y-57255000D02*
X155035000Y-57100000D01*
X142117499Y-57254999D02*
X154880000Y-57255000D01*
X142092500Y-57230000D02*
X142117499Y-57254999D01*
D38*
%TO.N,USART1_TX*%
X133630000Y-68490000D02*
X129880000Y-72240000D01*
X128490000Y-72240000D02*
X126510000Y-74220000D01*
X133630000Y-68359500D02*
X133630000Y-68490000D01*
X133460058Y-61537442D02*
X133767500Y-61230000D01*
X133460058Y-64615432D02*
X133460058Y-61537442D01*
X129880000Y-72240000D02*
X128490000Y-72240000D01*
%TO.N,USART1_RX*%
X134659558Y-63162942D02*
X135180000Y-62642500D01*
X134620500Y-68359500D02*
X129050000Y-73930000D01*
X129050000Y-73930000D02*
X129050000Y-74220000D01*
X134659558Y-65460500D02*
X134659558Y-63162942D01*
X134659558Y-68359500D02*
X134620500Y-68359500D01*
%TO.N,I2C2_SCL*%
X139180000Y-73020000D02*
X137960000Y-74240000D01*
%TO.N,I2C2_SDA*%
X139680000Y-73420000D02*
X140500000Y-74240000D01*
%TO.N,BOOT0*%
X137180000Y-52060000D02*
X137180000Y-54317500D01*
X137910500Y-47370000D02*
X137620000Y-47660500D01*
X137620000Y-47660500D02*
X137620000Y-51620000D01*
X137620000Y-51620000D02*
X137180000Y-52060000D01*
%TO.N,PWMA*%
X132680000Y-60460000D02*
X132910000Y-60230000D01*
X132680000Y-62601834D02*
X132680000Y-60460000D01*
X127110550Y-59615000D02*
X127210050Y-59515500D01*
X129839105Y-61641745D02*
X129839105Y-62220939D01*
X129839105Y-62220939D02*
X130958166Y-63340000D01*
X127210050Y-59515500D02*
X127789950Y-59515500D01*
X131941834Y-63340000D02*
X132680000Y-62601834D01*
X129900000Y-61580850D02*
X129839105Y-61641745D01*
X130958166Y-63340000D02*
X131941834Y-63340000D01*
X132910000Y-60230000D02*
X133767500Y-60230000D01*
X127994450Y-59720000D02*
X129900000Y-59720000D01*
X127789950Y-59515500D02*
X127994450Y-59720000D01*
X129900000Y-59720000D02*
X129900000Y-61580850D01*
X123050000Y-59615000D02*
X127110550Y-59615000D01*
%TO.N,PWMB*%
X127155000Y-64815000D02*
X123050000Y-64815000D01*
X133140000Y-65650000D02*
X132950500Y-65460500D01*
X132450500Y-68220000D02*
X130560000Y-68220000D01*
X132950500Y-65460500D02*
X132910000Y-65460500D01*
X134159558Y-62955836D02*
X134530000Y-62585394D01*
X133140000Y-65650000D02*
X133480108Y-65650000D01*
X134606041Y-60730000D02*
X133767500Y-60730000D01*
X134866980Y-61616980D02*
X134866980Y-60990939D01*
X130560000Y-68220000D02*
X127155000Y-64815000D01*
X134159558Y-64970550D02*
X134159558Y-62955836D01*
X132590000Y-68359500D02*
X132450500Y-68220000D01*
X134530000Y-61953960D02*
X134866980Y-61616980D01*
X133480108Y-65650000D02*
X134159558Y-64970550D01*
X134530000Y-62585394D02*
X134530000Y-61953960D01*
X134866980Y-60990939D02*
X134606041Y-60730000D01*
%TO.N,AOUT1*%
X135680000Y-65968682D02*
X135488682Y-66160000D01*
X135488682Y-66160000D02*
X131394212Y-66160000D01*
X128850000Y-61200000D02*
X128565000Y-60915000D01*
X135680000Y-62642500D02*
X135680000Y-65968682D01*
X128850000Y-63615788D02*
X128850000Y-61200000D01*
X128565000Y-60915000D02*
X123050000Y-60915000D01*
X131394212Y-66160000D02*
X128850000Y-63615788D01*
%TO.N,AOUT2*%
X127720000Y-63192894D02*
X127720000Y-61614500D01*
X127500000Y-60215500D02*
X127450500Y-60265000D01*
X127450500Y-60265000D02*
X123050000Y-60265000D01*
X131187106Y-66660000D02*
X127720000Y-63192894D01*
X135695788Y-66660000D02*
X131187106Y-66660000D01*
X136180000Y-66175788D02*
X135695788Y-66660000D01*
X136180000Y-62642500D02*
X136180000Y-66175788D01*
%TO.N,BOUT1*%
X136680000Y-62642500D02*
X136680000Y-66382894D01*
X136680000Y-66382894D02*
X135902894Y-67160000D01*
X130980000Y-67160000D02*
X127335000Y-63515000D01*
X127335000Y-63515000D02*
X123050000Y-63515000D01*
X135902894Y-67160000D02*
X130980000Y-67160000D01*
%TO.N,BOUT2*%
X137180000Y-66590000D02*
X136110000Y-67660000D01*
X137180000Y-62642500D02*
X137180000Y-66590000D01*
X136110000Y-67660000D02*
X130772894Y-67660000D01*
X130772894Y-67660000D02*
X127277894Y-64165000D01*
X127277894Y-64165000D02*
X123050000Y-64165000D01*
%TO.N,Net-(J4-Pad1)*%
X118200000Y-65410000D02*
X116780000Y-66830000D01*
X116780000Y-66830000D02*
X112370000Y-66830000D01*
X115850000Y-62865000D02*
X115850000Y-63515000D01*
X112370000Y-66830000D02*
X112060000Y-66520000D01*
X117305000Y-62865000D02*
X118200000Y-63760000D01*
X115850000Y-62865000D02*
X117305000Y-62865000D01*
X118200000Y-63760000D02*
X118200000Y-65410000D01*
%TO.N,Net-(J4-Pad2)*%
X114370000Y-64180000D02*
X114170000Y-63980000D01*
X114370000Y-64980000D02*
X114370000Y-64180000D01*
X115850000Y-65465000D02*
X115850000Y-66115000D01*
X114170000Y-63980000D02*
X112060000Y-63980000D01*
X115850000Y-65465000D02*
X114855000Y-65465000D01*
X114855000Y-65465000D02*
X114370000Y-64980000D01*
%TO.N,Net-(J4-Pad3)*%
X115850000Y-62215000D02*
X115850000Y-61565000D01*
X112185000Y-61565000D02*
X112060000Y-61440000D01*
X115850000Y-61565000D02*
X112185000Y-61565000D01*
%TO.N,Net-(J4-Pad4)*%
X112125000Y-58965000D02*
X112060000Y-58900000D01*
X115850000Y-59615000D02*
X115850000Y-58965000D01*
X115850000Y-58965000D02*
X112125000Y-58965000D01*
%TD*%
%TA.AperFunction,Conductor*%
%TO.N,+5V*%
G36*
X155054169Y-58247968D02*
G01*
X155101141Y-58268735D01*
X155101147Y-58268737D01*
X155109673Y-58272506D01*
X155118935Y-58273586D01*
X155118936Y-58273586D01*
X155121959Y-58273938D01*
X155135354Y-58275500D01*
X156524646Y-58275500D01*
X156528300Y-58275065D01*
X156528302Y-58275065D01*
X156541605Y-58273482D01*
X156541607Y-58273482D01*
X156550846Y-58272382D01*
X156550853Y-58272442D01*
X156615570Y-58273564D01*
X156673685Y-58312352D01*
X156701603Y-58376401D01*
X156702514Y-58387921D01*
X156708595Y-58576457D01*
X156691081Y-58644096D01*
X156683859Y-58654854D01*
X156566670Y-58811106D01*
X156510699Y-58852927D01*
X156468887Y-58860698D01*
X154793435Y-58879846D01*
X154793433Y-58879846D01*
X154780000Y-58880000D01*
X154190000Y-59160000D01*
X154190141Y-59177615D01*
X154190141Y-59177616D01*
X154210620Y-61730612D01*
X154220000Y-62900000D01*
X154500000Y-63300000D01*
X154510981Y-63300388D01*
X154510983Y-63300388D01*
X155288857Y-63327842D01*
X155355160Y-63349879D01*
X155385489Y-63379836D01*
X155820000Y-63990000D01*
X158371852Y-63990000D01*
X158438891Y-64009685D01*
X158483717Y-64060499D01*
X158658329Y-64425596D01*
X158670447Y-64477048D01*
X158689373Y-65622074D01*
X158669302Y-65691786D01*
X158446146Y-66034490D01*
X158393069Y-66079928D01*
X158343766Y-66090818D01*
X156876191Y-66108936D01*
X156808913Y-66090080D01*
X156762510Y-66037845D01*
X156758972Y-66029580D01*
X156306418Y-64856634D01*
X156300000Y-64840000D01*
X156281423Y-64839329D01*
X156281421Y-64839328D01*
X155470729Y-64810026D01*
X155470700Y-64810025D01*
X155470000Y-64810000D01*
X155469286Y-64809991D01*
X155469265Y-64809991D01*
X154785623Y-64801853D01*
X153841546Y-64790614D01*
X153774747Y-64770133D01*
X153754080Y-64753024D01*
X153485989Y-64477048D01*
X153484110Y-64475113D01*
X153451519Y-64413314D01*
X153449076Y-64391053D01*
X153442840Y-64060499D01*
X153410000Y-62320000D01*
X153100000Y-62000000D01*
X151113321Y-62009787D01*
X151046186Y-61990433D01*
X151035980Y-61983197D01*
X150787676Y-61787563D01*
X150747199Y-61730612D01*
X150740419Y-61689307D01*
X150749634Y-60353069D01*
X150769780Y-60286167D01*
X150788646Y-60263627D01*
X151054191Y-60013703D01*
X151116500Y-59982091D01*
X151139176Y-59980000D01*
X153110000Y-59980000D01*
X153380757Y-59758974D01*
X153586190Y-59591274D01*
X153586191Y-59591273D01*
X153600000Y-59580000D01*
X153581719Y-58638541D01*
X153600099Y-58571133D01*
X153652004Y-58524362D01*
X153663186Y-58519650D01*
X154409369Y-58247411D01*
X154451299Y-58239901D01*
X155003466Y-58237380D01*
X155054169Y-58247968D01*
G37*
%TD.AperFunction*%
%TD*%
%TA.AperFunction,Conductor*%
%TO.N,GND*%
G36*
X152995740Y-64569685D02*
G01*
X153035868Y-64611620D01*
X153381030Y-65204592D01*
X153381033Y-65204594D01*
X153390000Y-65220000D01*
X153403982Y-65220324D01*
X153403983Y-65220324D01*
X155490288Y-65268618D01*
X155556854Y-65289849D01*
X155586142Y-65317555D01*
X155714724Y-65486742D01*
X155739616Y-65552027D01*
X155740000Y-65561772D01*
X155740000Y-66952061D01*
X155720315Y-67019100D01*
X155707753Y-67035472D01*
X155276899Y-67509411D01*
X155217238Y-67545775D01*
X155185146Y-67550000D01*
X153190000Y-67550000D01*
X152936502Y-67864687D01*
X152879119Y-67904543D01*
X152841821Y-67910882D01*
X151937522Y-67924583D01*
X151636090Y-67929150D01*
X151568760Y-67910483D01*
X151542329Y-67888432D01*
X151321116Y-67644335D01*
X151290683Y-67581442D01*
X151289025Y-67563677D01*
X151270375Y-66677824D01*
X151270000Y-66660000D01*
X151260685Y-66658794D01*
X149965860Y-66491197D01*
X149901902Y-66463070D01*
X149863303Y-66404829D01*
X149857799Y-66370577D01*
X149841018Y-65486742D01*
X149830656Y-64941031D01*
X149849065Y-64873630D01*
X149856430Y-64862968D01*
X150053309Y-64607592D01*
X150109830Y-64566517D01*
X150150086Y-64559309D01*
X150959304Y-64550008D01*
X150960729Y-64550000D01*
X152928701Y-64550000D01*
X152995740Y-64569685D01*
G37*
%TD.AperFunction*%
%TD*%
%TA.AperFunction,Conductor*%
%TO.N,+3.3V*%
G36*
X146822491Y-61209685D02*
G01*
X146846859Y-61230210D01*
X147023133Y-61422508D01*
X147108171Y-61515277D01*
X147138961Y-61577997D01*
X147140748Y-61597094D01*
X147150000Y-62180000D01*
X147420000Y-62370000D01*
X147439101Y-62370035D01*
X147439102Y-62370035D01*
X152853795Y-62379898D01*
X152920798Y-62399705D01*
X152956743Y-62435115D01*
X153019429Y-62529144D01*
X153040252Y-62597083D01*
X153049818Y-64003244D01*
X153039134Y-64054449D01*
X153002792Y-64136219D01*
X152957577Y-64189486D01*
X152889261Y-64209858D01*
X147297827Y-64200031D01*
X147297826Y-64200031D01*
X147280000Y-64200000D01*
X146990000Y-64560000D01*
X146990154Y-64572759D01*
X146999147Y-65319238D01*
X146980271Y-65386510D01*
X146939509Y-65426726D01*
X146749375Y-65542165D01*
X146685633Y-65560169D01*
X144707829Y-65569912D01*
X144707828Y-65569912D01*
X144690000Y-65570000D01*
X144683897Y-65577067D01*
X144683896Y-65577067D01*
X144511652Y-65776508D01*
X144500000Y-65790000D01*
X144500000Y-66202456D01*
X144479174Y-66271239D01*
X144378260Y-66422611D01*
X144296555Y-66545168D01*
X144242990Y-66590029D01*
X144194102Y-66600383D01*
X142603597Y-66609630D01*
X142536444Y-66590335D01*
X142502593Y-66558565D01*
X142403717Y-66422611D01*
X142380206Y-66356816D01*
X142380000Y-66349678D01*
X142380000Y-65760136D01*
X142399685Y-65693097D01*
X142414846Y-65673953D01*
X142633445Y-65447817D01*
X142694192Y-65413298D01*
X142722599Y-65410000D01*
X144270000Y-65410000D01*
X144510000Y-65090000D01*
X144504301Y-64572759D01*
X144470618Y-61516042D01*
X144489562Y-61448790D01*
X144511658Y-61422508D01*
X144734631Y-61221832D01*
X144797630Y-61191616D01*
X144817583Y-61190000D01*
X146755452Y-61190000D01*
X146822491Y-61209685D01*
G37*
%TD.AperFunction*%
%TD*%
%TA.AperFunction,Conductor*%
%TO.N,Motor+*%
G36*
X119934890Y-53849601D02*
G01*
X120002887Y-53870021D01*
X120037340Y-53903343D01*
X120117801Y-54018287D01*
X120140565Y-54088704D01*
X120159661Y-55396768D01*
X120160000Y-55420000D01*
X120167080Y-55433275D01*
X120311473Y-55704013D01*
X120311474Y-55704014D01*
X120320000Y-55720000D01*
X120336073Y-55720033D01*
X120336075Y-55720033D01*
X124553056Y-55728586D01*
X125205167Y-55729909D01*
X125273247Y-55750049D01*
X125284699Y-55758390D01*
X125423788Y-55872190D01*
X125463844Y-55930808D01*
X125470000Y-55969709D01*
X125470000Y-56593541D01*
X125450532Y-56660824D01*
X125387084Y-56761283D01*
X125333796Y-56808198D01*
X125280552Y-56820000D01*
X124170000Y-56820000D01*
X123910000Y-57000000D01*
X123910000Y-58963500D01*
X123889998Y-59031621D01*
X123836342Y-59078114D01*
X123784000Y-59089500D01*
X122187790Y-59089500D01*
X122119669Y-59069498D01*
X122073176Y-59015842D01*
X122061796Y-58962294D01*
X122079827Y-57078114D01*
X122079827Y-57078113D01*
X122080000Y-57060000D01*
X121316477Y-56830943D01*
X119890418Y-56403125D01*
X119870275Y-56395137D01*
X118525563Y-55722781D01*
X118482454Y-55687440D01*
X118316542Y-55474125D01*
X118290508Y-55408073D01*
X118290000Y-55396768D01*
X118290000Y-54100447D01*
X118296466Y-54060603D01*
X118341095Y-53926715D01*
X118381612Y-53868415D01*
X118447216Y-53841275D01*
X118461402Y-53840561D01*
X119934890Y-53849601D01*
G37*
%TD.AperFunction*%
%TD*%
M02*
