%TF.GenerationSoftware,KiCad,Pcbnew,(6.0.11)*%
%TF.CreationDate,2023-06-03T19:27:43-07:00*%
%TF.ProjectId,stm32_PendCartBoard,73746d33-325f-4506-956e-644361727442,rev?*%
%TF.SameCoordinates,Original*%
%TF.FileFunction,Legend,Top*%
%TF.FilePolarity,Positive*%
%FSLAX46Y46*%
G04 Gerber Fmt 4.6, Leading zero omitted, Abs format (unit mm)*
G04 Created by KiCad (PCBNEW (6.0.11)) date 2023-06-03 19:27:43*
%MOMM*%
%LPD*%
G01*
G04 APERTURE LIST*
%ADD10C,0.125000*%
%ADD11C,0.150000*%
%ADD12C,0.120000*%
G04 APERTURE END LIST*
D10*
X155070000Y-47109285D02*
X154641428Y-47109285D01*
X154855714Y-47109285D02*
X154855714Y-46359285D01*
X154784285Y-46466428D01*
X154712857Y-46537857D01*
X154641428Y-46573571D01*
X155962857Y-46823571D02*
X155391428Y-46823571D01*
X155534285Y-46966428D02*
X155391428Y-46823571D01*
X155534285Y-46680714D01*
D11*
X155171428Y-42992857D02*
X155123809Y-43135714D01*
X155076190Y-43183333D01*
X154980952Y-43230952D01*
X154838095Y-43230952D01*
X154742857Y-43183333D01*
X154695238Y-43135714D01*
X154647619Y-43040476D01*
X154647619Y-42659523D01*
X155647619Y-42659523D01*
X155647619Y-42992857D01*
X155600000Y-43088095D01*
X155552380Y-43135714D01*
X155457142Y-43183333D01*
X155361904Y-43183333D01*
X155266666Y-43135714D01*
X155219047Y-43088095D01*
X155171428Y-42992857D01*
X155171428Y-42659523D01*
X155647619Y-43850000D02*
X155647619Y-44040476D01*
X155600000Y-44135714D01*
X155504761Y-44230952D01*
X155314285Y-44278571D01*
X154980952Y-44278571D01*
X154790476Y-44230952D01*
X154695238Y-44135714D01*
X154647619Y-44040476D01*
X154647619Y-43850000D01*
X154695238Y-43754761D01*
X154790476Y-43659523D01*
X154980952Y-43611904D01*
X155314285Y-43611904D01*
X155504761Y-43659523D01*
X155600000Y-43754761D01*
X155647619Y-43850000D01*
X155647619Y-44897619D02*
X155647619Y-45088095D01*
X155600000Y-45183333D01*
X155504761Y-45278571D01*
X155314285Y-45326190D01*
X154980952Y-45326190D01*
X154790476Y-45278571D01*
X154695238Y-45183333D01*
X154647619Y-45088095D01*
X154647619Y-44897619D01*
X154695238Y-44802380D01*
X154790476Y-44707142D01*
X154980952Y-44659523D01*
X155314285Y-44659523D01*
X155504761Y-44707142D01*
X155600000Y-44802380D01*
X155647619Y-44897619D01*
X155647619Y-45611904D02*
X155647619Y-46183333D01*
X154647619Y-45897619D02*
X155647619Y-45897619D01*
D10*
X147230000Y-52575714D02*
X147610952Y-52575714D01*
X147420476Y-52766190D02*
X147420476Y-52385238D01*
X147801428Y-52266190D02*
X148110952Y-52266190D01*
X147944285Y-52456666D01*
X148015714Y-52456666D01*
X148063333Y-52480476D01*
X148087142Y-52504285D01*
X148110952Y-52551904D01*
X148110952Y-52670952D01*
X148087142Y-52718571D01*
X148063333Y-52742380D01*
X148015714Y-52766190D01*
X147872857Y-52766190D01*
X147825238Y-52742380D01*
X147801428Y-52718571D01*
X148325238Y-52718571D02*
X148349047Y-52742380D01*
X148325238Y-52766190D01*
X148301428Y-52742380D01*
X148325238Y-52718571D01*
X148325238Y-52766190D01*
X148515714Y-52266190D02*
X148825238Y-52266190D01*
X148658571Y-52456666D01*
X148730000Y-52456666D01*
X148777619Y-52480476D01*
X148801428Y-52504285D01*
X148825238Y-52551904D01*
X148825238Y-52670952D01*
X148801428Y-52718571D01*
X148777619Y-52742380D01*
X148730000Y-52766190D01*
X148587142Y-52766190D01*
X148539523Y-52742380D01*
X148515714Y-52718571D01*
X148968095Y-52266190D02*
X149134761Y-52766190D01*
X149301428Y-52266190D01*
D11*
X136877142Y-71853571D02*
X136984285Y-71889285D01*
X137162857Y-71889285D01*
X137234285Y-71853571D01*
X137270000Y-71817857D01*
X137305714Y-71746428D01*
X137305714Y-71675000D01*
X137270000Y-71603571D01*
X137234285Y-71567857D01*
X137162857Y-71532142D01*
X137020000Y-71496428D01*
X136948571Y-71460714D01*
X136912857Y-71425000D01*
X136877142Y-71353571D01*
X136877142Y-71282142D01*
X136912857Y-71210714D01*
X136948571Y-71175000D01*
X137020000Y-71139285D01*
X137198571Y-71139285D01*
X137305714Y-71175000D01*
X138055714Y-71817857D02*
X138020000Y-71853571D01*
X137912857Y-71889285D01*
X137841428Y-71889285D01*
X137734285Y-71853571D01*
X137662857Y-71782142D01*
X137627142Y-71710714D01*
X137591428Y-71567857D01*
X137591428Y-71460714D01*
X137627142Y-71317857D01*
X137662857Y-71246428D01*
X137734285Y-71175000D01*
X137841428Y-71139285D01*
X137912857Y-71139285D01*
X138020000Y-71175000D01*
X138055714Y-71210714D01*
X138734285Y-71889285D02*
X138377142Y-71889285D01*
X138377142Y-71139285D01*
X155994761Y-69755000D02*
X155932857Y-69724047D01*
X155840000Y-69724047D01*
X155747142Y-69755000D01*
X155685238Y-69816904D01*
X155654285Y-69878809D01*
X155623333Y-70002619D01*
X155623333Y-70095476D01*
X155654285Y-70219285D01*
X155685238Y-70281190D01*
X155747142Y-70343095D01*
X155840000Y-70374047D01*
X155901904Y-70374047D01*
X155994761Y-70343095D01*
X156025714Y-70312142D01*
X156025714Y-70095476D01*
X155901904Y-70095476D01*
X156304285Y-70374047D02*
X156304285Y-69724047D01*
X156675714Y-70374047D01*
X156675714Y-69724047D01*
X156985238Y-70374047D02*
X156985238Y-69724047D01*
X157140000Y-69724047D01*
X157232857Y-69755000D01*
X157294761Y-69816904D01*
X157325714Y-69878809D01*
X157356666Y-70002619D01*
X157356666Y-70095476D01*
X157325714Y-70219285D01*
X157294761Y-70281190D01*
X157232857Y-70343095D01*
X157140000Y-70374047D01*
X156985238Y-70374047D01*
X155755714Y-62773571D02*
X156327142Y-62773571D01*
X156041428Y-63059285D02*
X156041428Y-62487857D01*
X157041428Y-62309285D02*
X156684285Y-62309285D01*
X156648571Y-62666428D01*
X156684285Y-62630714D01*
X156755714Y-62595000D01*
X156934285Y-62595000D01*
X157005714Y-62630714D01*
X157041428Y-62666428D01*
X157077142Y-62737857D01*
X157077142Y-62916428D01*
X157041428Y-62987857D01*
X157005714Y-63023571D01*
X156934285Y-63059285D01*
X156755714Y-63059285D01*
X156684285Y-63023571D01*
X156648571Y-62987857D01*
X157291428Y-62309285D02*
X157541428Y-63059285D01*
X157791428Y-62309285D01*
X126118571Y-71139285D02*
X126547142Y-71139285D01*
X126332857Y-71889285D02*
X126332857Y-71139285D01*
X126725714Y-71139285D02*
X127225714Y-71889285D01*
X127225714Y-71139285D02*
X126725714Y-71889285D01*
X134071428Y-42989285D02*
X134071428Y-42239285D01*
X134357142Y-42239285D01*
X134428571Y-42275000D01*
X134464285Y-42310714D01*
X134500000Y-42382142D01*
X134500000Y-42489285D01*
X134464285Y-42560714D01*
X134428571Y-42596428D01*
X134357142Y-42632142D01*
X134071428Y-42632142D01*
X135071428Y-42596428D02*
X135178571Y-42632142D01*
X135214285Y-42667857D01*
X135250000Y-42739285D01*
X135250000Y-42846428D01*
X135214285Y-42917857D01*
X135178571Y-42953571D01*
X135107142Y-42989285D01*
X134821428Y-42989285D01*
X134821428Y-42239285D01*
X135071428Y-42239285D01*
X135142857Y-42275000D01*
X135178571Y-42310714D01*
X135214285Y-42382142D01*
X135214285Y-42453571D01*
X135178571Y-42525000D01*
X135142857Y-42560714D01*
X135071428Y-42596428D01*
X134821428Y-42596428D01*
X135607142Y-42989285D02*
X135750000Y-42989285D01*
X135821428Y-42953571D01*
X135857142Y-42917857D01*
X135928571Y-42810714D01*
X135964285Y-42667857D01*
X135964285Y-42382142D01*
X135928571Y-42310714D01*
X135892857Y-42275000D01*
X135821428Y-42239285D01*
X135678571Y-42239285D01*
X135607142Y-42275000D01*
X135571428Y-42310714D01*
X135535714Y-42382142D01*
X135535714Y-42560714D01*
X135571428Y-42632142D01*
X135607142Y-42667857D01*
X135678571Y-42703571D01*
X135821428Y-42703571D01*
X135892857Y-42667857D01*
X135928571Y-42632142D01*
X135964285Y-42560714D01*
X142928571Y-71175000D02*
X142857142Y-71139285D01*
X142750000Y-71139285D01*
X142642857Y-71175000D01*
X142571428Y-71246428D01*
X142535714Y-71317857D01*
X142500000Y-71460714D01*
X142500000Y-71567857D01*
X142535714Y-71710714D01*
X142571428Y-71782142D01*
X142642857Y-71853571D01*
X142750000Y-71889285D01*
X142821428Y-71889285D01*
X142928571Y-71853571D01*
X142964285Y-71817857D01*
X142964285Y-71567857D01*
X142821428Y-71567857D01*
X143285714Y-71889285D02*
X143285714Y-71139285D01*
X143714285Y-71889285D01*
X143714285Y-71139285D01*
X144071428Y-71889285D02*
X144071428Y-71139285D01*
X144250000Y-71139285D01*
X144357142Y-71175000D01*
X144428571Y-71246428D01*
X144464285Y-71317857D01*
X144500000Y-71460714D01*
X144500000Y-71567857D01*
X144464285Y-71710714D01*
X144428571Y-71782142D01*
X144357142Y-71853571D01*
X144250000Y-71889285D01*
X144071428Y-71889285D01*
D10*
X144048095Y-48316190D02*
X144048095Y-47816190D01*
X144167142Y-47816190D01*
X144238571Y-47840000D01*
X144286190Y-47887619D01*
X144310000Y-47935238D01*
X144333809Y-48030476D01*
X144333809Y-48101904D01*
X144310000Y-48197142D01*
X144286190Y-48244761D01*
X144238571Y-48292380D01*
X144167142Y-48316190D01*
X144048095Y-48316190D01*
X144548095Y-48316190D02*
X144548095Y-47816190D01*
X144881428Y-47816190D02*
X144976666Y-47816190D01*
X145024285Y-47840000D01*
X145071904Y-47887619D01*
X145095714Y-47982857D01*
X145095714Y-48149523D01*
X145071904Y-48244761D01*
X145024285Y-48292380D01*
X144976666Y-48316190D01*
X144881428Y-48316190D01*
X144833809Y-48292380D01*
X144786190Y-48244761D01*
X144762380Y-48149523D01*
X144762380Y-47982857D01*
X144786190Y-47887619D01*
X144833809Y-47840000D01*
X144881428Y-47816190D01*
D11*
X118558571Y-49425000D02*
X118487142Y-49389285D01*
X118380000Y-49389285D01*
X118272857Y-49425000D01*
X118201428Y-49496428D01*
X118165714Y-49567857D01*
X118130000Y-49710714D01*
X118130000Y-49817857D01*
X118165714Y-49960714D01*
X118201428Y-50032142D01*
X118272857Y-50103571D01*
X118380000Y-50139285D01*
X118451428Y-50139285D01*
X118558571Y-50103571D01*
X118594285Y-50067857D01*
X118594285Y-49817857D01*
X118451428Y-49817857D01*
X118915714Y-50139285D02*
X118915714Y-49389285D01*
X119344285Y-50139285D01*
X119344285Y-49389285D01*
X119701428Y-50139285D02*
X119701428Y-49389285D01*
X119880000Y-49389285D01*
X119987142Y-49425000D01*
X120058571Y-49496428D01*
X120094285Y-49567857D01*
X120130000Y-49710714D01*
X120130000Y-49817857D01*
X120094285Y-49960714D01*
X120058571Y-50032142D01*
X119987142Y-50103571D01*
X119880000Y-50139285D01*
X119701428Y-50139285D01*
X142035714Y-42989285D02*
X142035714Y-42239285D01*
X142321428Y-42239285D01*
X142392857Y-42275000D01*
X142428571Y-42310714D01*
X142464285Y-42382142D01*
X142464285Y-42489285D01*
X142428571Y-42560714D01*
X142392857Y-42596428D01*
X142321428Y-42632142D01*
X142035714Y-42632142D01*
X143035714Y-42596428D02*
X143142857Y-42632142D01*
X143178571Y-42667857D01*
X143214285Y-42739285D01*
X143214285Y-42846428D01*
X143178571Y-42917857D01*
X143142857Y-42953571D01*
X143071428Y-42989285D01*
X142785714Y-42989285D01*
X142785714Y-42239285D01*
X143035714Y-42239285D01*
X143107142Y-42275000D01*
X143142857Y-42310714D01*
X143178571Y-42382142D01*
X143178571Y-42453571D01*
X143142857Y-42525000D01*
X143107142Y-42560714D01*
X143035714Y-42596428D01*
X142785714Y-42596428D01*
X143857142Y-42239285D02*
X143714285Y-42239285D01*
X143642857Y-42275000D01*
X143607142Y-42310714D01*
X143535714Y-42417857D01*
X143500000Y-42560714D01*
X143500000Y-42846428D01*
X143535714Y-42917857D01*
X143571428Y-42953571D01*
X143642857Y-42989285D01*
X143785714Y-42989285D01*
X143857142Y-42953571D01*
X143892857Y-42917857D01*
X143928571Y-42846428D01*
X143928571Y-42667857D01*
X143892857Y-42596428D01*
X143857142Y-42560714D01*
X143785714Y-42525000D01*
X143642857Y-42525000D01*
X143571428Y-42560714D01*
X143535714Y-42596428D01*
X143500000Y-42667857D01*
X144357142Y-42239285D02*
X144357142Y-42417857D01*
X144178571Y-42346428D02*
X144357142Y-42417857D01*
X144535714Y-42346428D01*
X144250000Y-42560714D02*
X144357142Y-42417857D01*
X144464285Y-42560714D01*
X132030000Y-71603571D02*
X132601428Y-71603571D01*
X132315714Y-71889285D02*
X132315714Y-71317857D01*
X132887142Y-71139285D02*
X133351428Y-71139285D01*
X133101428Y-71425000D01*
X133208571Y-71425000D01*
X133280000Y-71460714D01*
X133315714Y-71496428D01*
X133351428Y-71567857D01*
X133351428Y-71746428D01*
X133315714Y-71817857D01*
X133280000Y-71853571D01*
X133208571Y-71889285D01*
X132994285Y-71889285D01*
X132922857Y-71853571D01*
X132887142Y-71817857D01*
X133672857Y-71817857D02*
X133708571Y-71853571D01*
X133672857Y-71889285D01*
X133637142Y-71853571D01*
X133672857Y-71817857D01*
X133672857Y-71889285D01*
X133958571Y-71139285D02*
X134422857Y-71139285D01*
X134172857Y-71425000D01*
X134280000Y-71425000D01*
X134351428Y-71460714D01*
X134387142Y-71496428D01*
X134422857Y-71567857D01*
X134422857Y-71746428D01*
X134387142Y-71817857D01*
X134351428Y-71853571D01*
X134280000Y-71889285D01*
X134065714Y-71889285D01*
X133994285Y-71853571D01*
X133958571Y-71817857D01*
X134637142Y-71139285D02*
X134887142Y-71889285D01*
X135137142Y-71139285D01*
D10*
X150609047Y-52230000D02*
X150561428Y-52206190D01*
X150490000Y-52206190D01*
X150418571Y-52230000D01*
X150370952Y-52277619D01*
X150347142Y-52325238D01*
X150323333Y-52420476D01*
X150323333Y-52491904D01*
X150347142Y-52587142D01*
X150370952Y-52634761D01*
X150418571Y-52682380D01*
X150490000Y-52706190D01*
X150537619Y-52706190D01*
X150609047Y-52682380D01*
X150632857Y-52658571D01*
X150632857Y-52491904D01*
X150537619Y-52491904D01*
X150847142Y-52706190D02*
X150847142Y-52206190D01*
X151132857Y-52706190D01*
X151132857Y-52206190D01*
X151370952Y-52706190D02*
X151370952Y-52206190D01*
X151490000Y-52206190D01*
X151561428Y-52230000D01*
X151609047Y-52277619D01*
X151632857Y-52325238D01*
X151656666Y-52420476D01*
X151656666Y-52491904D01*
X151632857Y-52587142D01*
X151609047Y-52634761D01*
X151561428Y-52682380D01*
X151490000Y-52706190D01*
X151370952Y-52706190D01*
D11*
X129638571Y-42305000D02*
X129567142Y-42269285D01*
X129460000Y-42269285D01*
X129352857Y-42305000D01*
X129281428Y-42376428D01*
X129245714Y-42447857D01*
X129210000Y-42590714D01*
X129210000Y-42697857D01*
X129245714Y-42840714D01*
X129281428Y-42912142D01*
X129352857Y-42983571D01*
X129460000Y-43019285D01*
X129531428Y-43019285D01*
X129638571Y-42983571D01*
X129674285Y-42947857D01*
X129674285Y-42697857D01*
X129531428Y-42697857D01*
X129995714Y-43019285D02*
X129995714Y-42269285D01*
X130424285Y-43019285D01*
X130424285Y-42269285D01*
X130781428Y-43019285D02*
X130781428Y-42269285D01*
X130960000Y-42269285D01*
X131067142Y-42305000D01*
X131138571Y-42376428D01*
X131174285Y-42447857D01*
X131210000Y-42590714D01*
X131210000Y-42697857D01*
X131174285Y-42840714D01*
X131138571Y-42912142D01*
X131067142Y-42983571D01*
X130960000Y-43019285D01*
X130781428Y-43019285D01*
X109696428Y-64640714D02*
X109732142Y-64533571D01*
X109767857Y-64497857D01*
X109839285Y-64462142D01*
X109946428Y-64462142D01*
X110017857Y-64497857D01*
X110053571Y-64533571D01*
X110089285Y-64605000D01*
X110089285Y-64890714D01*
X109339285Y-64890714D01*
X109339285Y-64640714D01*
X109375000Y-64569285D01*
X109410714Y-64533571D01*
X109482142Y-64497857D01*
X109553571Y-64497857D01*
X109625000Y-64533571D01*
X109660714Y-64569285D01*
X109696428Y-64640714D01*
X109696428Y-64890714D01*
X109339285Y-63997857D02*
X109339285Y-63926428D01*
X109375000Y-63855000D01*
X109410714Y-63819285D01*
X109482142Y-63783571D01*
X109625000Y-63747857D01*
X109803571Y-63747857D01*
X109946428Y-63783571D01*
X110017857Y-63819285D01*
X110053571Y-63855000D01*
X110089285Y-63926428D01*
X110089285Y-63997857D01*
X110053571Y-64069285D01*
X110017857Y-64105000D01*
X109946428Y-64140714D01*
X109803571Y-64176428D01*
X109625000Y-64176428D01*
X109482142Y-64140714D01*
X109410714Y-64105000D01*
X109375000Y-64069285D01*
X109339285Y-63997857D01*
X110089285Y-63033571D02*
X110089285Y-63462142D01*
X110089285Y-63247857D02*
X109339285Y-63247857D01*
X109446428Y-63319285D01*
X109517857Y-63390714D01*
X109553571Y-63462142D01*
X123678571Y-71175000D02*
X123607142Y-71139285D01*
X123500000Y-71139285D01*
X123392857Y-71175000D01*
X123321428Y-71246428D01*
X123285714Y-71317857D01*
X123250000Y-71460714D01*
X123250000Y-71567857D01*
X123285714Y-71710714D01*
X123321428Y-71782142D01*
X123392857Y-71853571D01*
X123500000Y-71889285D01*
X123571428Y-71889285D01*
X123678571Y-71853571D01*
X123714285Y-71817857D01*
X123714285Y-71567857D01*
X123571428Y-71567857D01*
X124035714Y-71889285D02*
X124035714Y-71139285D01*
X124464285Y-71889285D01*
X124464285Y-71139285D01*
X124821428Y-71889285D02*
X124821428Y-71139285D01*
X125000000Y-71139285D01*
X125107142Y-71175000D01*
X125178571Y-71246428D01*
X125214285Y-71317857D01*
X125250000Y-71460714D01*
X125250000Y-71567857D01*
X125214285Y-71710714D01*
X125178571Y-71782142D01*
X125107142Y-71853571D01*
X125000000Y-71889285D01*
X124821428Y-71889285D01*
X139285714Y-42989285D02*
X139285714Y-42239285D01*
X139571428Y-42239285D01*
X139642857Y-42275000D01*
X139678571Y-42310714D01*
X139714285Y-42382142D01*
X139714285Y-42489285D01*
X139678571Y-42560714D01*
X139642857Y-42596428D01*
X139571428Y-42632142D01*
X139285714Y-42632142D01*
X140285714Y-42596428D02*
X140392857Y-42632142D01*
X140428571Y-42667857D01*
X140464285Y-42739285D01*
X140464285Y-42846428D01*
X140428571Y-42917857D01*
X140392857Y-42953571D01*
X140321428Y-42989285D01*
X140035714Y-42989285D01*
X140035714Y-42239285D01*
X140285714Y-42239285D01*
X140357142Y-42275000D01*
X140392857Y-42310714D01*
X140428571Y-42382142D01*
X140428571Y-42453571D01*
X140392857Y-42525000D01*
X140357142Y-42560714D01*
X140285714Y-42596428D01*
X140035714Y-42596428D01*
X140714285Y-42239285D02*
X141214285Y-42239285D01*
X140892857Y-42989285D01*
X141607142Y-42239285D02*
X141607142Y-42417857D01*
X141428571Y-42346428D02*
X141607142Y-42417857D01*
X141785714Y-42346428D01*
X141500000Y-42560714D02*
X141607142Y-42417857D01*
X141714285Y-42560714D01*
X123785714Y-42743571D02*
X124357142Y-42743571D01*
X124071428Y-43029285D02*
X124071428Y-42457857D01*
X125071428Y-42279285D02*
X124714285Y-42279285D01*
X124678571Y-42636428D01*
X124714285Y-42600714D01*
X124785714Y-42565000D01*
X124964285Y-42565000D01*
X125035714Y-42600714D01*
X125071428Y-42636428D01*
X125107142Y-42707857D01*
X125107142Y-42886428D01*
X125071428Y-42957857D01*
X125035714Y-42993571D01*
X124964285Y-43029285D01*
X124785714Y-43029285D01*
X124714285Y-42993571D01*
X124678571Y-42957857D01*
X125321428Y-42279285D02*
X125571428Y-43029285D01*
X125821428Y-42279285D01*
X109875000Y-62302857D02*
X109875000Y-61945714D01*
X110089285Y-62374285D02*
X109339285Y-62124285D01*
X110089285Y-61874285D01*
X109339285Y-61481428D02*
X109339285Y-61410000D01*
X109375000Y-61338571D01*
X109410714Y-61302857D01*
X109482142Y-61267142D01*
X109625000Y-61231428D01*
X109803571Y-61231428D01*
X109946428Y-61267142D01*
X110017857Y-61302857D01*
X110053571Y-61338571D01*
X110089285Y-61410000D01*
X110089285Y-61481428D01*
X110053571Y-61552857D01*
X110017857Y-61588571D01*
X109946428Y-61624285D01*
X109803571Y-61660000D01*
X109625000Y-61660000D01*
X109482142Y-61624285D01*
X109410714Y-61588571D01*
X109375000Y-61552857D01*
X109339285Y-61481428D01*
X109410714Y-60945714D02*
X109375000Y-60910000D01*
X109339285Y-60838571D01*
X109339285Y-60660000D01*
X109375000Y-60588571D01*
X109410714Y-60552857D01*
X109482142Y-60517142D01*
X109553571Y-60517142D01*
X109660714Y-60552857D01*
X110089285Y-60981428D01*
X110089285Y-60517142D01*
X128925000Y-71889285D02*
X128675000Y-71532142D01*
X128496428Y-71889285D02*
X128496428Y-71139285D01*
X128782142Y-71139285D01*
X128853571Y-71175000D01*
X128889285Y-71210714D01*
X128925000Y-71282142D01*
X128925000Y-71389285D01*
X128889285Y-71460714D01*
X128853571Y-71496428D01*
X128782142Y-71532142D01*
X128496428Y-71532142D01*
X129175000Y-71139285D02*
X129675000Y-71889285D01*
X129675000Y-71139285D02*
X129175000Y-71889285D01*
X140059285Y-71853571D02*
X140166428Y-71889285D01*
X140345000Y-71889285D01*
X140416428Y-71853571D01*
X140452142Y-71817857D01*
X140487857Y-71746428D01*
X140487857Y-71675000D01*
X140452142Y-71603571D01*
X140416428Y-71567857D01*
X140345000Y-71532142D01*
X140202142Y-71496428D01*
X140130714Y-71460714D01*
X140095000Y-71425000D01*
X140059285Y-71353571D01*
X140059285Y-71282142D01*
X140095000Y-71210714D01*
X140130714Y-71175000D01*
X140202142Y-71139285D01*
X140380714Y-71139285D01*
X140487857Y-71175000D01*
X140809285Y-71889285D02*
X140809285Y-71139285D01*
X140987857Y-71139285D01*
X141095000Y-71175000D01*
X141166428Y-71246428D01*
X141202142Y-71317857D01*
X141237857Y-71460714D01*
X141237857Y-71567857D01*
X141202142Y-71710714D01*
X141166428Y-71782142D01*
X141095000Y-71853571D01*
X140987857Y-71889285D01*
X140809285Y-71889285D01*
X141523571Y-71675000D02*
X141880714Y-71675000D01*
X141452142Y-71889285D02*
X141702142Y-71139285D01*
X141952142Y-71889285D01*
X136821428Y-42989285D02*
X136821428Y-42239285D01*
X137107142Y-42239285D01*
X137178571Y-42275000D01*
X137214285Y-42310714D01*
X137250000Y-42382142D01*
X137250000Y-42489285D01*
X137214285Y-42560714D01*
X137178571Y-42596428D01*
X137107142Y-42632142D01*
X136821428Y-42632142D01*
X137821428Y-42596428D02*
X137928571Y-42632142D01*
X137964285Y-42667857D01*
X138000000Y-42739285D01*
X138000000Y-42846428D01*
X137964285Y-42917857D01*
X137928571Y-42953571D01*
X137857142Y-42989285D01*
X137571428Y-42989285D01*
X137571428Y-42239285D01*
X137821428Y-42239285D01*
X137892857Y-42275000D01*
X137928571Y-42310714D01*
X137964285Y-42382142D01*
X137964285Y-42453571D01*
X137928571Y-42525000D01*
X137892857Y-42560714D01*
X137821428Y-42596428D01*
X137571428Y-42596428D01*
X138428571Y-42560714D02*
X138357142Y-42525000D01*
X138321428Y-42489285D01*
X138285714Y-42417857D01*
X138285714Y-42382142D01*
X138321428Y-42310714D01*
X138357142Y-42275000D01*
X138428571Y-42239285D01*
X138571428Y-42239285D01*
X138642857Y-42275000D01*
X138678571Y-42310714D01*
X138714285Y-42382142D01*
X138714285Y-42417857D01*
X138678571Y-42489285D01*
X138642857Y-42525000D01*
X138571428Y-42560714D01*
X138428571Y-42560714D01*
X138357142Y-42596428D01*
X138321428Y-42632142D01*
X138285714Y-42703571D01*
X138285714Y-42846428D01*
X138321428Y-42917857D01*
X138357142Y-42953571D01*
X138428571Y-42989285D01*
X138571428Y-42989285D01*
X138642857Y-42953571D01*
X138678571Y-42917857D01*
X138714285Y-42846428D01*
X138714285Y-42703571D01*
X138678571Y-42632142D01*
X138642857Y-42596428D01*
X138571428Y-42560714D01*
X118715714Y-56829285D02*
X118965714Y-57579285D01*
X119215714Y-56829285D01*
X119465714Y-57293571D02*
X120037142Y-57293571D01*
X119751428Y-57579285D02*
X119751428Y-57007857D01*
D10*
X141532380Y-48248571D02*
X141508571Y-48272380D01*
X141437142Y-48296190D01*
X141389523Y-48296190D01*
X141318095Y-48272380D01*
X141270476Y-48224761D01*
X141246666Y-48177142D01*
X141222857Y-48081904D01*
X141222857Y-48010476D01*
X141246666Y-47915238D01*
X141270476Y-47867619D01*
X141318095Y-47820000D01*
X141389523Y-47796190D01*
X141437142Y-47796190D01*
X141508571Y-47820000D01*
X141532380Y-47843809D01*
X141984761Y-48296190D02*
X141746666Y-48296190D01*
X141746666Y-47796190D01*
X142151428Y-48296190D02*
X142151428Y-47796190D01*
X142437142Y-48296190D02*
X142222857Y-48010476D01*
X142437142Y-47796190D02*
X142151428Y-48081904D01*
D11*
X109845000Y-59682857D02*
X109845000Y-59325714D01*
X110059285Y-59754285D02*
X109309285Y-59504285D01*
X110059285Y-59254285D01*
X109309285Y-58861428D02*
X109309285Y-58790000D01*
X109345000Y-58718571D01*
X109380714Y-58682857D01*
X109452142Y-58647142D01*
X109595000Y-58611428D01*
X109773571Y-58611428D01*
X109916428Y-58647142D01*
X109987857Y-58682857D01*
X110023571Y-58718571D01*
X110059285Y-58790000D01*
X110059285Y-58861428D01*
X110023571Y-58932857D01*
X109987857Y-58968571D01*
X109916428Y-59004285D01*
X109773571Y-59040000D01*
X109595000Y-59040000D01*
X109452142Y-59004285D01*
X109380714Y-58968571D01*
X109345000Y-58932857D01*
X109309285Y-58861428D01*
X110059285Y-57897142D02*
X110059285Y-58325714D01*
X110059285Y-58111428D02*
X109309285Y-58111428D01*
X109416428Y-58182857D01*
X109487857Y-58254285D01*
X109523571Y-58325714D01*
X109686428Y-67150714D02*
X109722142Y-67043571D01*
X109757857Y-67007857D01*
X109829285Y-66972142D01*
X109936428Y-66972142D01*
X110007857Y-67007857D01*
X110043571Y-67043571D01*
X110079285Y-67115000D01*
X110079285Y-67400714D01*
X109329285Y-67400714D01*
X109329285Y-67150714D01*
X109365000Y-67079285D01*
X109400714Y-67043571D01*
X109472142Y-67007857D01*
X109543571Y-67007857D01*
X109615000Y-67043571D01*
X109650714Y-67079285D01*
X109686428Y-67150714D01*
X109686428Y-67400714D01*
X109329285Y-66507857D02*
X109329285Y-66436428D01*
X109365000Y-66365000D01*
X109400714Y-66329285D01*
X109472142Y-66293571D01*
X109615000Y-66257857D01*
X109793571Y-66257857D01*
X109936428Y-66293571D01*
X110007857Y-66329285D01*
X110043571Y-66365000D01*
X110079285Y-66436428D01*
X110079285Y-66507857D01*
X110043571Y-66579285D01*
X110007857Y-66615000D01*
X109936428Y-66650714D01*
X109793571Y-66686428D01*
X109615000Y-66686428D01*
X109472142Y-66650714D01*
X109400714Y-66615000D01*
X109365000Y-66579285D01*
X109329285Y-66507857D01*
X109400714Y-65972142D02*
X109365000Y-65936428D01*
X109329285Y-65865000D01*
X109329285Y-65686428D01*
X109365000Y-65615000D01*
X109400714Y-65579285D01*
X109472142Y-65543571D01*
X109543571Y-65543571D01*
X109650714Y-65579285D01*
X110079285Y-66007857D01*
X110079285Y-65543571D01*
D10*
%TO.C,D2*%
X136870952Y-67826190D02*
X136870952Y-67326190D01*
X136990000Y-67326190D01*
X137061428Y-67350000D01*
X137109047Y-67397619D01*
X137132857Y-67445238D01*
X137156666Y-67540476D01*
X137156666Y-67611904D01*
X137132857Y-67707142D01*
X137109047Y-67754761D01*
X137061428Y-67802380D01*
X136990000Y-67826190D01*
X136870952Y-67826190D01*
X137347142Y-67373809D02*
X137370952Y-67350000D01*
X137418571Y-67326190D01*
X137537619Y-67326190D01*
X137585238Y-67350000D01*
X137609047Y-67373809D01*
X137632857Y-67421428D01*
X137632857Y-67469047D01*
X137609047Y-67540476D01*
X137323333Y-67826190D01*
X137632857Y-67826190D01*
%TO.C,R6*%
X136226666Y-68746190D02*
X136060000Y-68508095D01*
X135940952Y-68746190D02*
X135940952Y-68246190D01*
X136131428Y-68246190D01*
X136179047Y-68270000D01*
X136202857Y-68293809D01*
X136226666Y-68341428D01*
X136226666Y-68412857D01*
X136202857Y-68460476D01*
X136179047Y-68484285D01*
X136131428Y-68508095D01*
X135940952Y-68508095D01*
X136655238Y-68246190D02*
X136560000Y-68246190D01*
X136512380Y-68270000D01*
X136488571Y-68293809D01*
X136440952Y-68365238D01*
X136417142Y-68460476D01*
X136417142Y-68650952D01*
X136440952Y-68698571D01*
X136464761Y-68722380D01*
X136512380Y-68746190D01*
X136607619Y-68746190D01*
X136655238Y-68722380D01*
X136679047Y-68698571D01*
X136702857Y-68650952D01*
X136702857Y-68531904D01*
X136679047Y-68484285D01*
X136655238Y-68460476D01*
X136607619Y-68436666D01*
X136512380Y-68436666D01*
X136464761Y-68460476D01*
X136440952Y-68484285D01*
X136417142Y-68531904D01*
D11*
%TO.C,J7*%
X115230000Y-53389285D02*
X115230000Y-53925000D01*
X115194285Y-54032142D01*
X115122857Y-54103571D01*
X115015714Y-54139285D01*
X114944285Y-54139285D01*
X115515714Y-53389285D02*
X116015714Y-53389285D01*
X115694285Y-54139285D01*
%TO.C,J6*%
X160040000Y-62459285D02*
X160040000Y-62995000D01*
X160004285Y-63102142D01*
X159932857Y-63173571D01*
X159825714Y-63209285D01*
X159754285Y-63209285D01*
X160718571Y-62459285D02*
X160575714Y-62459285D01*
X160504285Y-62495000D01*
X160468571Y-62530714D01*
X160397142Y-62637857D01*
X160361428Y-62780714D01*
X160361428Y-63066428D01*
X160397142Y-63137857D01*
X160432857Y-63173571D01*
X160504285Y-63209285D01*
X160647142Y-63209285D01*
X160718571Y-63173571D01*
X160754285Y-63137857D01*
X160790000Y-63066428D01*
X160790000Y-62887857D01*
X160754285Y-62816428D01*
X160718571Y-62780714D01*
X160647142Y-62745000D01*
X160504285Y-62745000D01*
X160432857Y-62780714D01*
X160397142Y-62816428D01*
X160361428Y-62887857D01*
%TO.C,J5*%
X139010000Y-52229285D02*
X139010000Y-52765000D01*
X138974285Y-52872142D01*
X138902857Y-52943571D01*
X138795714Y-52979285D01*
X138724285Y-52979285D01*
X139724285Y-52229285D02*
X139367142Y-52229285D01*
X139331428Y-52586428D01*
X139367142Y-52550714D01*
X139438571Y-52515000D01*
X139617142Y-52515000D01*
X139688571Y-52550714D01*
X139724285Y-52586428D01*
X139760000Y-52657857D01*
X139760000Y-52836428D01*
X139724285Y-52907857D01*
X139688571Y-52943571D01*
X139617142Y-52979285D01*
X139438571Y-52979285D01*
X139367142Y-52943571D01*
X139331428Y-52907857D01*
%TO.C,J1*%
X153145000Y-52084285D02*
X153145000Y-52620000D01*
X153109285Y-52727142D01*
X153037857Y-52798571D01*
X152930714Y-52834285D01*
X152859285Y-52834285D01*
X153895000Y-52834285D02*
X153466428Y-52834285D01*
X153680714Y-52834285D02*
X153680714Y-52084285D01*
X153609285Y-52191428D01*
X153537857Y-52262857D01*
X153466428Y-52298571D01*
D10*
%TO.C,C9*%
X129568571Y-61213333D02*
X129592380Y-61237142D01*
X129616190Y-61308571D01*
X129616190Y-61356190D01*
X129592380Y-61427619D01*
X129544761Y-61475238D01*
X129497142Y-61499047D01*
X129401904Y-61522857D01*
X129330476Y-61522857D01*
X129235238Y-61499047D01*
X129187619Y-61475238D01*
X129140000Y-61427619D01*
X129116190Y-61356190D01*
X129116190Y-61308571D01*
X129140000Y-61237142D01*
X129163809Y-61213333D01*
X129616190Y-60975238D02*
X129616190Y-60880000D01*
X129592380Y-60832380D01*
X129568571Y-60808571D01*
X129497142Y-60760952D01*
X129401904Y-60737142D01*
X129211428Y-60737142D01*
X129163809Y-60760952D01*
X129140000Y-60784761D01*
X129116190Y-60832380D01*
X129116190Y-60927619D01*
X129140000Y-60975238D01*
X129163809Y-60999047D01*
X129211428Y-61022857D01*
X129330476Y-61022857D01*
X129378095Y-60999047D01*
X129401904Y-60975238D01*
X129425714Y-60927619D01*
X129425714Y-60832380D01*
X129401904Y-60784761D01*
X129378095Y-60760952D01*
X129330476Y-60737142D01*
D11*
%TO.C,C3*%
X132157142Y-50016666D02*
X132204761Y-50064285D01*
X132252380Y-50207142D01*
X132252380Y-50302380D01*
X132204761Y-50445238D01*
X132109523Y-50540476D01*
X132014285Y-50588095D01*
X131823809Y-50635714D01*
X131680952Y-50635714D01*
X131490476Y-50588095D01*
X131395238Y-50540476D01*
X131300000Y-50445238D01*
X131252380Y-50302380D01*
X131252380Y-50207142D01*
X131300000Y-50064285D01*
X131347619Y-50016666D01*
X131252380Y-49683333D02*
X131252380Y-49064285D01*
X131633333Y-49397619D01*
X131633333Y-49254761D01*
X131680952Y-49159523D01*
X131728571Y-49111904D01*
X131823809Y-49064285D01*
X132061904Y-49064285D01*
X132157142Y-49111904D01*
X132204761Y-49159523D01*
X132252380Y-49254761D01*
X132252380Y-49540476D01*
X132204761Y-49635714D01*
X132157142Y-49683333D01*
%TO.C,D1*%
X144531904Y-70012380D02*
X144531904Y-69012380D01*
X144770000Y-69012380D01*
X144912857Y-69060000D01*
X145008095Y-69155238D01*
X145055714Y-69250476D01*
X145103333Y-69440952D01*
X145103333Y-69583809D01*
X145055714Y-69774285D01*
X145008095Y-69869523D01*
X144912857Y-69964761D01*
X144770000Y-70012380D01*
X144531904Y-70012380D01*
X146055714Y-70012380D02*
X145484285Y-70012380D01*
X145770000Y-70012380D02*
X145770000Y-69012380D01*
X145674761Y-69155238D01*
X145579523Y-69250476D01*
X145484285Y-69298095D01*
%TO.C,J3*%
X158156666Y-50822380D02*
X158156666Y-51536666D01*
X158109047Y-51679523D01*
X158013809Y-51774761D01*
X157870952Y-51822380D01*
X157775714Y-51822380D01*
X158537619Y-50822380D02*
X159156666Y-50822380D01*
X158823333Y-51203333D01*
X158966190Y-51203333D01*
X159061428Y-51250952D01*
X159109047Y-51298571D01*
X159156666Y-51393809D01*
X159156666Y-51631904D01*
X159109047Y-51727142D01*
X159061428Y-51774761D01*
X158966190Y-51822380D01*
X158680476Y-51822380D01*
X158585238Y-51774761D01*
X158537619Y-51727142D01*
%TO.C,J8*%
X119956666Y-73452380D02*
X119956666Y-74166666D01*
X119909047Y-74309523D01*
X119813809Y-74404761D01*
X119670952Y-74452380D01*
X119575714Y-74452380D01*
X120575714Y-73880952D02*
X120480476Y-73833333D01*
X120432857Y-73785714D01*
X120385238Y-73690476D01*
X120385238Y-73642857D01*
X120432857Y-73547619D01*
X120480476Y-73500000D01*
X120575714Y-73452380D01*
X120766190Y-73452380D01*
X120861428Y-73500000D01*
X120909047Y-73547619D01*
X120956666Y-73642857D01*
X120956666Y-73690476D01*
X120909047Y-73785714D01*
X120861428Y-73833333D01*
X120766190Y-73880952D01*
X120575714Y-73880952D01*
X120480476Y-73928571D01*
X120432857Y-73976190D01*
X120385238Y-74071428D01*
X120385238Y-74261904D01*
X120432857Y-74357142D01*
X120480476Y-74404761D01*
X120575714Y-74452380D01*
X120766190Y-74452380D01*
X120861428Y-74404761D01*
X120909047Y-74357142D01*
X120956666Y-74261904D01*
X120956666Y-74071428D01*
X120909047Y-73976190D01*
X120861428Y-73928571D01*
X120766190Y-73880952D01*
%TO.C,H2*%
X157788095Y-49502380D02*
X157788095Y-48502380D01*
X157788095Y-48978571D02*
X158359523Y-48978571D01*
X158359523Y-49502380D02*
X158359523Y-48502380D01*
X158788095Y-48597619D02*
X158835714Y-48550000D01*
X158930952Y-48502380D01*
X159169047Y-48502380D01*
X159264285Y-48550000D01*
X159311904Y-48597619D01*
X159359523Y-48692857D01*
X159359523Y-48788095D01*
X159311904Y-48930952D01*
X158740476Y-49502380D01*
X159359523Y-49502380D01*
%TO.C,C16*%
X123327142Y-68177142D02*
X123279523Y-68224761D01*
X123136666Y-68272380D01*
X123041428Y-68272380D01*
X122898571Y-68224761D01*
X122803333Y-68129523D01*
X122755714Y-68034285D01*
X122708095Y-67843809D01*
X122708095Y-67700952D01*
X122755714Y-67510476D01*
X122803333Y-67415238D01*
X122898571Y-67320000D01*
X123041428Y-67272380D01*
X123136666Y-67272380D01*
X123279523Y-67320000D01*
X123327142Y-67367619D01*
X124279523Y-68272380D02*
X123708095Y-68272380D01*
X123993809Y-68272380D02*
X123993809Y-67272380D01*
X123898571Y-67415238D01*
X123803333Y-67510476D01*
X123708095Y-67558095D01*
X125136666Y-67272380D02*
X124946190Y-67272380D01*
X124850952Y-67320000D01*
X124803333Y-67367619D01*
X124708095Y-67510476D01*
X124660476Y-67700952D01*
X124660476Y-68081904D01*
X124708095Y-68177142D01*
X124755714Y-68224761D01*
X124850952Y-68272380D01*
X125041428Y-68272380D01*
X125136666Y-68224761D01*
X125184285Y-68177142D01*
X125231904Y-68081904D01*
X125231904Y-67843809D01*
X125184285Y-67748571D01*
X125136666Y-67700952D01*
X125041428Y-67653333D01*
X124850952Y-67653333D01*
X124755714Y-67700952D01*
X124708095Y-67748571D01*
X124660476Y-67843809D01*
%TO.C,H1*%
X110738095Y-49502380D02*
X110738095Y-48502380D01*
X110738095Y-48978571D02*
X111309523Y-48978571D01*
X111309523Y-49502380D02*
X111309523Y-48502380D01*
X112309523Y-49502380D02*
X111738095Y-49502380D01*
X112023809Y-49502380D02*
X112023809Y-48502380D01*
X111928571Y-48645238D01*
X111833333Y-48740476D01*
X111738095Y-48788095D01*
%TO.C,J2*%
X133946666Y-47082380D02*
X133946666Y-47796666D01*
X133899047Y-47939523D01*
X133803809Y-48034761D01*
X133660952Y-48082380D01*
X133565714Y-48082380D01*
X134375238Y-47177619D02*
X134422857Y-47130000D01*
X134518095Y-47082380D01*
X134756190Y-47082380D01*
X134851428Y-47130000D01*
X134899047Y-47177619D01*
X134946666Y-47272857D01*
X134946666Y-47368095D01*
X134899047Y-47510952D01*
X134327619Y-48082380D01*
X134946666Y-48082380D01*
%TO.C,C15*%
X125067142Y-51832857D02*
X125114761Y-51880476D01*
X125162380Y-52023333D01*
X125162380Y-52118571D01*
X125114761Y-52261428D01*
X125019523Y-52356666D01*
X124924285Y-52404285D01*
X124733809Y-52451904D01*
X124590952Y-52451904D01*
X124400476Y-52404285D01*
X124305238Y-52356666D01*
X124210000Y-52261428D01*
X124162380Y-52118571D01*
X124162380Y-52023333D01*
X124210000Y-51880476D01*
X124257619Y-51832857D01*
X125162380Y-50880476D02*
X125162380Y-51451904D01*
X125162380Y-51166190D02*
X124162380Y-51166190D01*
X124305238Y-51261428D01*
X124400476Y-51356666D01*
X124448095Y-51451904D01*
X124162380Y-49975714D02*
X124162380Y-50451904D01*
X124638571Y-50499523D01*
X124590952Y-50451904D01*
X124543333Y-50356666D01*
X124543333Y-50118571D01*
X124590952Y-50023333D01*
X124638571Y-49975714D01*
X124733809Y-49928095D01*
X124971904Y-49928095D01*
X125067142Y-49975714D01*
X125114761Y-50023333D01*
X125162380Y-50118571D01*
X125162380Y-50356666D01*
X125114761Y-50451904D01*
X125067142Y-50499523D01*
%TO.C,U1*%
X146348095Y-58462380D02*
X146348095Y-59271904D01*
X146395714Y-59367142D01*
X146443333Y-59414761D01*
X146538571Y-59462380D01*
X146729047Y-59462380D01*
X146824285Y-59414761D01*
X146871904Y-59367142D01*
X146919523Y-59271904D01*
X146919523Y-58462380D01*
X147919523Y-59462380D02*
X147348095Y-59462380D01*
X147633809Y-59462380D02*
X147633809Y-58462380D01*
X147538571Y-58605238D01*
X147443333Y-58700476D01*
X147348095Y-58748095D01*
%TO.C,C4*%
X144505000Y-53277857D02*
X144469285Y-53313571D01*
X144362142Y-53349285D01*
X144290714Y-53349285D01*
X144183571Y-53313571D01*
X144112142Y-53242142D01*
X144076428Y-53170714D01*
X144040714Y-53027857D01*
X144040714Y-52920714D01*
X144076428Y-52777857D01*
X144112142Y-52706428D01*
X144183571Y-52635000D01*
X144290714Y-52599285D01*
X144362142Y-52599285D01*
X144469285Y-52635000D01*
X144505000Y-52670714D01*
X145147857Y-52849285D02*
X145147857Y-53349285D01*
X144969285Y-52563571D02*
X144790714Y-53099285D01*
X145255000Y-53099285D01*
D10*
%TO.C,C8*%
X129116666Y-60458571D02*
X129092857Y-60482380D01*
X129021428Y-60506190D01*
X128973809Y-60506190D01*
X128902380Y-60482380D01*
X128854761Y-60434761D01*
X128830952Y-60387142D01*
X128807142Y-60291904D01*
X128807142Y-60220476D01*
X128830952Y-60125238D01*
X128854761Y-60077619D01*
X128902380Y-60030000D01*
X128973809Y-60006190D01*
X129021428Y-60006190D01*
X129092857Y-60030000D01*
X129116666Y-60053809D01*
X129402380Y-60220476D02*
X129354761Y-60196666D01*
X129330952Y-60172857D01*
X129307142Y-60125238D01*
X129307142Y-60101428D01*
X129330952Y-60053809D01*
X129354761Y-60030000D01*
X129402380Y-60006190D01*
X129497619Y-60006190D01*
X129545238Y-60030000D01*
X129569047Y-60053809D01*
X129592857Y-60101428D01*
X129592857Y-60125238D01*
X129569047Y-60172857D01*
X129545238Y-60196666D01*
X129497619Y-60220476D01*
X129402380Y-60220476D01*
X129354761Y-60244285D01*
X129330952Y-60268095D01*
X129307142Y-60315714D01*
X129307142Y-60410952D01*
X129330952Y-60458571D01*
X129354761Y-60482380D01*
X129402380Y-60506190D01*
X129497619Y-60506190D01*
X129545238Y-60482380D01*
X129569047Y-60458571D01*
X129592857Y-60410952D01*
X129592857Y-60315714D01*
X129569047Y-60268095D01*
X129545238Y-60244285D01*
X129497619Y-60220476D01*
D11*
%TO.C,C11*%
X133347857Y-50492142D02*
X133383571Y-50527857D01*
X133419285Y-50635000D01*
X133419285Y-50706428D01*
X133383571Y-50813571D01*
X133312142Y-50885000D01*
X133240714Y-50920714D01*
X133097857Y-50956428D01*
X132990714Y-50956428D01*
X132847857Y-50920714D01*
X132776428Y-50885000D01*
X132705000Y-50813571D01*
X132669285Y-50706428D01*
X132669285Y-50635000D01*
X132705000Y-50527857D01*
X132740714Y-50492142D01*
X133419285Y-49777857D02*
X133419285Y-50206428D01*
X133419285Y-49992142D02*
X132669285Y-49992142D01*
X132776428Y-50063571D01*
X132847857Y-50135000D01*
X132883571Y-50206428D01*
X133419285Y-49063571D02*
X133419285Y-49492142D01*
X133419285Y-49277857D02*
X132669285Y-49277857D01*
X132776428Y-49349285D01*
X132847857Y-49420714D01*
X132883571Y-49492142D01*
%TO.C,H4*%
X157738095Y-71402380D02*
X157738095Y-70402380D01*
X157738095Y-70878571D02*
X158309523Y-70878571D01*
X158309523Y-71402380D02*
X158309523Y-70402380D01*
X159214285Y-70735714D02*
X159214285Y-71402380D01*
X158976190Y-70354761D02*
X158738095Y-71069047D01*
X159357142Y-71069047D01*
%TO.C,R2*%
X149755000Y-47619285D02*
X149505000Y-47262142D01*
X149326428Y-47619285D02*
X149326428Y-46869285D01*
X149612142Y-46869285D01*
X149683571Y-46905000D01*
X149719285Y-46940714D01*
X149755000Y-47012142D01*
X149755000Y-47119285D01*
X149719285Y-47190714D01*
X149683571Y-47226428D01*
X149612142Y-47262142D01*
X149326428Y-47262142D01*
X150040714Y-46940714D02*
X150076428Y-46905000D01*
X150147857Y-46869285D01*
X150326428Y-46869285D01*
X150397857Y-46905000D01*
X150433571Y-46940714D01*
X150469285Y-47012142D01*
X150469285Y-47083571D01*
X150433571Y-47190714D01*
X150005000Y-47619285D01*
X150469285Y-47619285D01*
%TO.C,C7*%
X135587857Y-49905000D02*
X135623571Y-49940714D01*
X135659285Y-50047857D01*
X135659285Y-50119285D01*
X135623571Y-50226428D01*
X135552142Y-50297857D01*
X135480714Y-50333571D01*
X135337857Y-50369285D01*
X135230714Y-50369285D01*
X135087857Y-50333571D01*
X135016428Y-50297857D01*
X134945000Y-50226428D01*
X134909285Y-50119285D01*
X134909285Y-50047857D01*
X134945000Y-49940714D01*
X134980714Y-49905000D01*
X134909285Y-49655000D02*
X134909285Y-49155000D01*
X135659285Y-49476428D01*
%TO.C,R1*%
X147393333Y-70042380D02*
X147060000Y-69566190D01*
X146821904Y-70042380D02*
X146821904Y-69042380D01*
X147202857Y-69042380D01*
X147298095Y-69090000D01*
X147345714Y-69137619D01*
X147393333Y-69232857D01*
X147393333Y-69375714D01*
X147345714Y-69470952D01*
X147298095Y-69518571D01*
X147202857Y-69566190D01*
X146821904Y-69566190D01*
X148345714Y-70042380D02*
X147774285Y-70042380D01*
X148060000Y-70042380D02*
X148060000Y-69042380D01*
X147964761Y-69185238D01*
X147869523Y-69280476D01*
X147774285Y-69328095D01*
%TO.C,FB1*%
X125795000Y-62526428D02*
X125545000Y-62526428D01*
X125545000Y-62919285D02*
X125545000Y-62169285D01*
X125902142Y-62169285D01*
X126437857Y-62526428D02*
X126545000Y-62562142D01*
X126580714Y-62597857D01*
X126616428Y-62669285D01*
X126616428Y-62776428D01*
X126580714Y-62847857D01*
X126545000Y-62883571D01*
X126473571Y-62919285D01*
X126187857Y-62919285D01*
X126187857Y-62169285D01*
X126437857Y-62169285D01*
X126509285Y-62205000D01*
X126545000Y-62240714D01*
X126580714Y-62312142D01*
X126580714Y-62383571D01*
X126545000Y-62455000D01*
X126509285Y-62490714D01*
X126437857Y-62526428D01*
X126187857Y-62526428D01*
X127330714Y-62919285D02*
X126902142Y-62919285D01*
X127116428Y-62919285D02*
X127116428Y-62169285D01*
X127045000Y-62276428D01*
X126973571Y-62347857D01*
X126902142Y-62383571D01*
%TO.C,J10*%
X121940476Y-47072380D02*
X121940476Y-47786666D01*
X121892857Y-47929523D01*
X121797619Y-48024761D01*
X121654761Y-48072380D01*
X121559523Y-48072380D01*
X122940476Y-48072380D02*
X122369047Y-48072380D01*
X122654761Y-48072380D02*
X122654761Y-47072380D01*
X122559523Y-47215238D01*
X122464285Y-47310476D01*
X122369047Y-47358095D01*
X123559523Y-47072380D02*
X123654761Y-47072380D01*
X123750000Y-47120000D01*
X123797619Y-47167619D01*
X123845238Y-47262857D01*
X123892857Y-47453333D01*
X123892857Y-47691428D01*
X123845238Y-47881904D01*
X123797619Y-47977142D01*
X123750000Y-48024761D01*
X123654761Y-48072380D01*
X123559523Y-48072380D01*
X123464285Y-48024761D01*
X123416666Y-47977142D01*
X123369047Y-47881904D01*
X123321428Y-47691428D01*
X123321428Y-47453333D01*
X123369047Y-47262857D01*
X123416666Y-47167619D01*
X123464285Y-47120000D01*
X123559523Y-47072380D01*
%TO.C,C12*%
X127687142Y-54807142D02*
X127639523Y-54854761D01*
X127496666Y-54902380D01*
X127401428Y-54902380D01*
X127258571Y-54854761D01*
X127163333Y-54759523D01*
X127115714Y-54664285D01*
X127068095Y-54473809D01*
X127068095Y-54330952D01*
X127115714Y-54140476D01*
X127163333Y-54045238D01*
X127258571Y-53950000D01*
X127401428Y-53902380D01*
X127496666Y-53902380D01*
X127639523Y-53950000D01*
X127687142Y-53997619D01*
X128639523Y-54902380D02*
X128068095Y-54902380D01*
X128353809Y-54902380D02*
X128353809Y-53902380D01*
X128258571Y-54045238D01*
X128163333Y-54140476D01*
X128068095Y-54188095D01*
X129020476Y-53997619D02*
X129068095Y-53950000D01*
X129163333Y-53902380D01*
X129401428Y-53902380D01*
X129496666Y-53950000D01*
X129544285Y-53997619D01*
X129591904Y-54092857D01*
X129591904Y-54188095D01*
X129544285Y-54330952D01*
X128972857Y-54902380D01*
X129591904Y-54902380D01*
%TO.C,H3*%
X110758095Y-71402380D02*
X110758095Y-70402380D01*
X110758095Y-70878571D02*
X111329523Y-70878571D01*
X111329523Y-71402380D02*
X111329523Y-70402380D01*
X111710476Y-70402380D02*
X112329523Y-70402380D01*
X111996190Y-70783333D01*
X112139047Y-70783333D01*
X112234285Y-70830952D01*
X112281904Y-70878571D01*
X112329523Y-70973809D01*
X112329523Y-71211904D01*
X112281904Y-71307142D01*
X112234285Y-71354761D01*
X112139047Y-71402380D01*
X111853333Y-71402380D01*
X111758095Y-71354761D01*
X111710476Y-71307142D01*
%TO.C,C10*%
X140897857Y-66582142D02*
X140933571Y-66617857D01*
X140969285Y-66725000D01*
X140969285Y-66796428D01*
X140933571Y-66903571D01*
X140862142Y-66975000D01*
X140790714Y-67010714D01*
X140647857Y-67046428D01*
X140540714Y-67046428D01*
X140397857Y-67010714D01*
X140326428Y-66975000D01*
X140255000Y-66903571D01*
X140219285Y-66796428D01*
X140219285Y-66725000D01*
X140255000Y-66617857D01*
X140290714Y-66582142D01*
X140969285Y-65867857D02*
X140969285Y-66296428D01*
X140969285Y-66082142D02*
X140219285Y-66082142D01*
X140326428Y-66153571D01*
X140397857Y-66225000D01*
X140433571Y-66296428D01*
X140219285Y-65403571D02*
X140219285Y-65332142D01*
X140255000Y-65260714D01*
X140290714Y-65225000D01*
X140362142Y-65189285D01*
X140505000Y-65153571D01*
X140683571Y-65153571D01*
X140826428Y-65189285D01*
X140897857Y-65225000D01*
X140933571Y-65260714D01*
X140969285Y-65332142D01*
X140969285Y-65403571D01*
X140933571Y-65475000D01*
X140897857Y-65510714D01*
X140826428Y-65546428D01*
X140683571Y-65582142D01*
X140505000Y-65582142D01*
X140362142Y-65546428D01*
X140290714Y-65510714D01*
X140255000Y-65475000D01*
X140219285Y-65403571D01*
%TO.C,C17*%
X115547142Y-68257142D02*
X115499523Y-68304761D01*
X115356666Y-68352380D01*
X115261428Y-68352380D01*
X115118571Y-68304761D01*
X115023333Y-68209523D01*
X114975714Y-68114285D01*
X114928095Y-67923809D01*
X114928095Y-67780952D01*
X114975714Y-67590476D01*
X115023333Y-67495238D01*
X115118571Y-67400000D01*
X115261428Y-67352380D01*
X115356666Y-67352380D01*
X115499523Y-67400000D01*
X115547142Y-67447619D01*
X116499523Y-68352380D02*
X115928095Y-68352380D01*
X116213809Y-68352380D02*
X116213809Y-67352380D01*
X116118571Y-67495238D01*
X116023333Y-67590476D01*
X115928095Y-67638095D01*
X116832857Y-67352380D02*
X117499523Y-67352380D01*
X117070952Y-68352380D01*
%TO.C,C14*%
X122617142Y-51832857D02*
X122664761Y-51880476D01*
X122712380Y-52023333D01*
X122712380Y-52118571D01*
X122664761Y-52261428D01*
X122569523Y-52356666D01*
X122474285Y-52404285D01*
X122283809Y-52451904D01*
X122140952Y-52451904D01*
X121950476Y-52404285D01*
X121855238Y-52356666D01*
X121760000Y-52261428D01*
X121712380Y-52118571D01*
X121712380Y-52023333D01*
X121760000Y-51880476D01*
X121807619Y-51832857D01*
X122712380Y-50880476D02*
X122712380Y-51451904D01*
X122712380Y-51166190D02*
X121712380Y-51166190D01*
X121855238Y-51261428D01*
X121950476Y-51356666D01*
X121998095Y-51451904D01*
X122045714Y-50023333D02*
X122712380Y-50023333D01*
X121664761Y-50261428D02*
X122379047Y-50499523D01*
X122379047Y-49880476D01*
%TO.C,R4*%
X138115000Y-70899285D02*
X137865000Y-70542142D01*
X137686428Y-70899285D02*
X137686428Y-70149285D01*
X137972142Y-70149285D01*
X138043571Y-70185000D01*
X138079285Y-70220714D01*
X138115000Y-70292142D01*
X138115000Y-70399285D01*
X138079285Y-70470714D01*
X138043571Y-70506428D01*
X137972142Y-70542142D01*
X137686428Y-70542142D01*
X138757857Y-70399285D02*
X138757857Y-70899285D01*
X138579285Y-70113571D02*
X138400714Y-70649285D01*
X138865000Y-70649285D01*
%TO.C,U3*%
X124628095Y-65582380D02*
X124628095Y-66391904D01*
X124675714Y-66487142D01*
X124723333Y-66534761D01*
X124818571Y-66582380D01*
X125009047Y-66582380D01*
X125104285Y-66534761D01*
X125151904Y-66487142D01*
X125199523Y-66391904D01*
X125199523Y-65582380D01*
X125580476Y-65582380D02*
X126199523Y-65582380D01*
X125866190Y-65963333D01*
X126009047Y-65963333D01*
X126104285Y-66010952D01*
X126151904Y-66058571D01*
X126199523Y-66153809D01*
X126199523Y-66391904D01*
X126151904Y-66487142D01*
X126104285Y-66534761D01*
X126009047Y-66582380D01*
X125723333Y-66582380D01*
X125628095Y-66534761D01*
X125580476Y-66487142D01*
%TO.C,J4*%
X111626666Y-55622380D02*
X111626666Y-56336666D01*
X111579047Y-56479523D01*
X111483809Y-56574761D01*
X111340952Y-56622380D01*
X111245714Y-56622380D01*
X112531428Y-55955714D02*
X112531428Y-56622380D01*
X112293333Y-55574761D02*
X112055238Y-56289047D01*
X112674285Y-56289047D01*
%TO.C,C2*%
X142065000Y-63157857D02*
X142029285Y-63193571D01*
X141922142Y-63229285D01*
X141850714Y-63229285D01*
X141743571Y-63193571D01*
X141672142Y-63122142D01*
X141636428Y-63050714D01*
X141600714Y-62907857D01*
X141600714Y-62800714D01*
X141636428Y-62657857D01*
X141672142Y-62586428D01*
X141743571Y-62515000D01*
X141850714Y-62479285D01*
X141922142Y-62479285D01*
X142029285Y-62515000D01*
X142065000Y-62550714D01*
X142350714Y-62550714D02*
X142386428Y-62515000D01*
X142457857Y-62479285D01*
X142636428Y-62479285D01*
X142707857Y-62515000D01*
X142743571Y-62550714D01*
X142779285Y-62622142D01*
X142779285Y-62693571D01*
X142743571Y-62800714D01*
X142315000Y-63229285D01*
X142779285Y-63229285D01*
%TO.C,Y1*%
X126263809Y-57186190D02*
X126263809Y-57662380D01*
X125930476Y-56662380D02*
X126263809Y-57186190D01*
X126597142Y-56662380D01*
X127454285Y-57662380D02*
X126882857Y-57662380D01*
X127168571Y-57662380D02*
X127168571Y-56662380D01*
X127073333Y-56805238D01*
X126978095Y-56900476D01*
X126882857Y-56948095D01*
%TO.C,C5*%
X144485000Y-54297857D02*
X144449285Y-54333571D01*
X144342142Y-54369285D01*
X144270714Y-54369285D01*
X144163571Y-54333571D01*
X144092142Y-54262142D01*
X144056428Y-54190714D01*
X144020714Y-54047857D01*
X144020714Y-53940714D01*
X144056428Y-53797857D01*
X144092142Y-53726428D01*
X144163571Y-53655000D01*
X144270714Y-53619285D01*
X144342142Y-53619285D01*
X144449285Y-53655000D01*
X144485000Y-53690714D01*
X145163571Y-53619285D02*
X144806428Y-53619285D01*
X144770714Y-53976428D01*
X144806428Y-53940714D01*
X144877857Y-53905000D01*
X145056428Y-53905000D01*
X145127857Y-53940714D01*
X145163571Y-53976428D01*
X145199285Y-54047857D01*
X145199285Y-54226428D01*
X145163571Y-54297857D01*
X145127857Y-54333571D01*
X145056428Y-54369285D01*
X144877857Y-54369285D01*
X144806428Y-54333571D01*
X144770714Y-54297857D01*
%TO.C,R3*%
X147463333Y-56792380D02*
X147130000Y-56316190D01*
X146891904Y-56792380D02*
X146891904Y-55792380D01*
X147272857Y-55792380D01*
X147368095Y-55840000D01*
X147415714Y-55887619D01*
X147463333Y-55982857D01*
X147463333Y-56125714D01*
X147415714Y-56220952D01*
X147368095Y-56268571D01*
X147272857Y-56316190D01*
X146891904Y-56316190D01*
X147796666Y-55792380D02*
X148415714Y-55792380D01*
X148082380Y-56173333D01*
X148225238Y-56173333D01*
X148320476Y-56220952D01*
X148368095Y-56268571D01*
X148415714Y-56363809D01*
X148415714Y-56601904D01*
X148368095Y-56697142D01*
X148320476Y-56744761D01*
X148225238Y-56792380D01*
X147939523Y-56792380D01*
X147844285Y-56744761D01*
X147796666Y-56697142D01*
%TO.C,R5*%
X140495000Y-69359285D02*
X140245000Y-69002142D01*
X140066428Y-69359285D02*
X140066428Y-68609285D01*
X140352142Y-68609285D01*
X140423571Y-68645000D01*
X140459285Y-68680714D01*
X140495000Y-68752142D01*
X140495000Y-68859285D01*
X140459285Y-68930714D01*
X140423571Y-68966428D01*
X140352142Y-69002142D01*
X140066428Y-69002142D01*
X141173571Y-68609285D02*
X140816428Y-68609285D01*
X140780714Y-68966428D01*
X140816428Y-68930714D01*
X140887857Y-68895000D01*
X141066428Y-68895000D01*
X141137857Y-68930714D01*
X141173571Y-68966428D01*
X141209285Y-69037857D01*
X141209285Y-69216428D01*
X141173571Y-69287857D01*
X141137857Y-69323571D01*
X141066428Y-69359285D01*
X140887857Y-69359285D01*
X140816428Y-69323571D01*
X140780714Y-69287857D01*
%TO.C,SW1*%
X153753571Y-48840000D02*
X153789285Y-48732857D01*
X153789285Y-48554285D01*
X153753571Y-48482857D01*
X153717857Y-48447142D01*
X153646428Y-48411428D01*
X153575000Y-48411428D01*
X153503571Y-48447142D01*
X153467857Y-48482857D01*
X153432142Y-48554285D01*
X153396428Y-48697142D01*
X153360714Y-48768571D01*
X153325000Y-48804285D01*
X153253571Y-48840000D01*
X153182142Y-48840000D01*
X153110714Y-48804285D01*
X153075000Y-48768571D01*
X153039285Y-48697142D01*
X153039285Y-48518571D01*
X153075000Y-48411428D01*
X153039285Y-48161428D02*
X153789285Y-47982857D01*
X153253571Y-47840000D01*
X153789285Y-47697142D01*
X153039285Y-47518571D01*
X153789285Y-46840000D02*
X153789285Y-47268571D01*
X153789285Y-47054285D02*
X153039285Y-47054285D01*
X153146428Y-47125714D01*
X153217857Y-47197142D01*
X153253571Y-47268571D01*
%TO.C,C13*%
X125177857Y-59017857D02*
X125142142Y-59053571D01*
X125035000Y-59089285D01*
X124963571Y-59089285D01*
X124856428Y-59053571D01*
X124785000Y-58982142D01*
X124749285Y-58910714D01*
X124713571Y-58767857D01*
X124713571Y-58660714D01*
X124749285Y-58517857D01*
X124785000Y-58446428D01*
X124856428Y-58375000D01*
X124963571Y-58339285D01*
X125035000Y-58339285D01*
X125142142Y-58375000D01*
X125177857Y-58410714D01*
X125892142Y-59089285D02*
X125463571Y-59089285D01*
X125677857Y-59089285D02*
X125677857Y-58339285D01*
X125606428Y-58446428D01*
X125535000Y-58517857D01*
X125463571Y-58553571D01*
X126142142Y-58339285D02*
X126606428Y-58339285D01*
X126356428Y-58625000D01*
X126463571Y-58625000D01*
X126535000Y-58660714D01*
X126570714Y-58696428D01*
X126606428Y-58767857D01*
X126606428Y-58946428D01*
X126570714Y-59017857D01*
X126535000Y-59053571D01*
X126463571Y-59089285D01*
X126249285Y-59089285D01*
X126177857Y-59053571D01*
X126142142Y-59017857D01*
%TO.C,C6*%
X134507857Y-49995000D02*
X134543571Y-50030714D01*
X134579285Y-50137857D01*
X134579285Y-50209285D01*
X134543571Y-50316428D01*
X134472142Y-50387857D01*
X134400714Y-50423571D01*
X134257857Y-50459285D01*
X134150714Y-50459285D01*
X134007857Y-50423571D01*
X133936428Y-50387857D01*
X133865000Y-50316428D01*
X133829285Y-50209285D01*
X133829285Y-50137857D01*
X133865000Y-50030714D01*
X133900714Y-49995000D01*
X133829285Y-49352142D02*
X133829285Y-49495000D01*
X133865000Y-49566428D01*
X133900714Y-49602142D01*
X134007857Y-49673571D01*
X134150714Y-49709285D01*
X134436428Y-49709285D01*
X134507857Y-49673571D01*
X134543571Y-49637857D01*
X134579285Y-49566428D01*
X134579285Y-49423571D01*
X134543571Y-49352142D01*
X134507857Y-49316428D01*
X134436428Y-49280714D01*
X134257857Y-49280714D01*
X134186428Y-49316428D01*
X134150714Y-49352142D01*
X134115000Y-49423571D01*
X134115000Y-49566428D01*
X134150714Y-49637857D01*
X134186428Y-49673571D01*
X134257857Y-49709285D01*
%TO.C,J9*%
X146386666Y-73452380D02*
X146386666Y-74166666D01*
X146339047Y-74309523D01*
X146243809Y-74404761D01*
X146100952Y-74452380D01*
X146005714Y-74452380D01*
X146910476Y-74452380D02*
X147100952Y-74452380D01*
X147196190Y-74404761D01*
X147243809Y-74357142D01*
X147339047Y-74214285D01*
X147386666Y-74023809D01*
X147386666Y-73642857D01*
X147339047Y-73547619D01*
X147291428Y-73500000D01*
X147196190Y-73452380D01*
X147005714Y-73452380D01*
X146910476Y-73500000D01*
X146862857Y-73547619D01*
X146815238Y-73642857D01*
X146815238Y-73880952D01*
X146862857Y-73976190D01*
X146910476Y-74023809D01*
X147005714Y-74071428D01*
X147196190Y-74071428D01*
X147291428Y-74023809D01*
X147339047Y-73976190D01*
X147386666Y-73880952D01*
%TO.C,C1*%
X154393333Y-68647142D02*
X154345714Y-68694761D01*
X154202857Y-68742380D01*
X154107619Y-68742380D01*
X153964761Y-68694761D01*
X153869523Y-68599523D01*
X153821904Y-68504285D01*
X153774285Y-68313809D01*
X153774285Y-68170952D01*
X153821904Y-67980476D01*
X153869523Y-67885238D01*
X153964761Y-67790000D01*
X154107619Y-67742380D01*
X154202857Y-67742380D01*
X154345714Y-67790000D01*
X154393333Y-67837619D01*
X155345714Y-68742380D02*
X154774285Y-68742380D01*
X155060000Y-68742380D02*
X155060000Y-67742380D01*
X154964761Y-67885238D01*
X154869523Y-67980476D01*
X154774285Y-68028095D01*
%TO.C,U2*%
X143328571Y-58749285D02*
X143328571Y-59356428D01*
X143364285Y-59427857D01*
X143400000Y-59463571D01*
X143471428Y-59499285D01*
X143614285Y-59499285D01*
X143685714Y-59463571D01*
X143721428Y-59427857D01*
X143757142Y-59356428D01*
X143757142Y-58749285D01*
X144078571Y-58820714D02*
X144114285Y-58785000D01*
X144185714Y-58749285D01*
X144364285Y-58749285D01*
X144435714Y-58785000D01*
X144471428Y-58820714D01*
X144507142Y-58892142D01*
X144507142Y-58963571D01*
X144471428Y-59070714D01*
X144042857Y-59499285D01*
X144507142Y-59499285D01*
D12*
%TO.C,D2*%
X138935000Y-66795000D02*
X138935000Y-64510000D01*
X137465000Y-66795000D02*
X138935000Y-66795000D01*
X137465000Y-64510000D02*
X137465000Y-66795000D01*
%TO.C,R6*%
X137930000Y-68083641D02*
X137930000Y-67776359D01*
X138690000Y-68083641D02*
X138690000Y-67776359D01*
%TO.C,J7*%
X120490000Y-54705000D02*
X120490000Y-56035000D01*
X120490000Y-50835000D02*
X117830000Y-50835000D01*
X120490000Y-53435000D02*
X120490000Y-50835000D01*
X120490000Y-53435000D02*
X117830000Y-53435000D01*
X120490000Y-56035000D02*
X119160000Y-56035000D01*
X117830000Y-53435000D02*
X117830000Y-50835000D01*
%TO.C,J6*%
X156370000Y-65140000D02*
X156370000Y-63810000D01*
X156370000Y-69010000D02*
X159030000Y-69010000D01*
X156370000Y-66410000D02*
X156370000Y-69010000D01*
X156370000Y-66410000D02*
X159030000Y-66410000D01*
X156370000Y-63810000D02*
X157700000Y-63810000D01*
X159030000Y-66410000D02*
X159030000Y-69010000D01*
%TO.C,J5*%
X142065000Y-51590000D02*
X140735000Y-51590000D01*
X145935000Y-51590000D02*
X145935000Y-48930000D01*
X143335000Y-51590000D02*
X145935000Y-51590000D01*
X143335000Y-51590000D02*
X143335000Y-48930000D01*
X140735000Y-51590000D02*
X140735000Y-50260000D01*
X143335000Y-48930000D02*
X145935000Y-48930000D01*
%TO.C,J1*%
X150895000Y-48930000D02*
X152225000Y-48930000D01*
X147025000Y-48930000D02*
X147025000Y-51590000D01*
X149625000Y-48930000D02*
X147025000Y-48930000D01*
X149625000Y-48930000D02*
X149625000Y-51590000D01*
X152225000Y-48930000D02*
X152225000Y-50260000D01*
X149625000Y-51590000D02*
X147025000Y-51590000D01*
%TO.C,C9*%
X131387836Y-61510000D02*
X131172164Y-61510000D01*
X131387836Y-60790000D02*
X131172164Y-60790000D01*
%TO.C,C3*%
X131240000Y-53820580D02*
X131240000Y-53539420D01*
X132260000Y-53820580D02*
X132260000Y-53539420D01*
%TO.C,D1*%
X145885000Y-67275000D02*
X143600000Y-67275000D01*
X143600000Y-68745000D02*
X145885000Y-68745000D01*
X145885000Y-68745000D02*
X145885000Y-67275000D01*
D11*
%TO.C,J3*%
X155330000Y-55300000D02*
X155330000Y-54300000D01*
X155330000Y-58900000D02*
X155330000Y-59900000D01*
X161030000Y-61250000D02*
X161030000Y-60950000D01*
X158480000Y-52950000D02*
X157080000Y-52950000D01*
X160880000Y-61250000D02*
X161030000Y-61250000D01*
X161030000Y-52950000D02*
X160880000Y-52950000D01*
X154905000Y-58900000D02*
X155330000Y-58900000D01*
X157080000Y-61250000D02*
X158480000Y-61250000D01*
X154905000Y-58175000D02*
X154905000Y-58900000D01*
X161030000Y-53250000D02*
X161030000Y-52950000D01*
D12*
%TO.C,J8*%
X125240000Y-72890000D02*
X132920000Y-72890000D01*
X122640000Y-75550000D02*
X122640000Y-74220000D01*
X125240000Y-75550000D02*
X132920000Y-75550000D01*
X123970000Y-75550000D02*
X122640000Y-75550000D01*
X132920000Y-75550000D02*
X132920000Y-72890000D01*
X125240000Y-75550000D02*
X125240000Y-72890000D01*
%TO.C,C16*%
X120335000Y-69028748D02*
X120335000Y-69551252D01*
X121805000Y-69028748D02*
X121805000Y-69551252D01*
%TO.C,J2*%
X141710000Y-46330000D02*
X134030000Y-46330000D01*
X142980000Y-43670000D02*
X144310000Y-43670000D01*
X141710000Y-43670000D02*
X134030000Y-43670000D01*
X134030000Y-43670000D02*
X134030000Y-46330000D01*
X141710000Y-43670000D02*
X141710000Y-46330000D01*
X144310000Y-43670000D02*
X144310000Y-45000000D01*
%TO.C,C15*%
X123935000Y-55631252D02*
X123935000Y-55108748D01*
X125405000Y-55631252D02*
X125405000Y-55108748D01*
%TO.C,U1*%
X146940000Y-59920000D02*
X146940000Y-61180000D01*
X146940000Y-66740000D02*
X146940000Y-65480000D01*
X152950000Y-66740000D02*
X146940000Y-66740000D01*
X150700000Y-59920000D02*
X146940000Y-59920000D01*
%TO.C,C4*%
X142630000Y-54397836D02*
X142630000Y-54182164D01*
X141910000Y-54397836D02*
X141910000Y-54182164D01*
%TO.C,C8*%
X131387836Y-59750000D02*
X131172164Y-59750000D01*
X131387836Y-60470000D02*
X131172164Y-60470000D01*
%TO.C,C11*%
X133410000Y-54197836D02*
X133410000Y-53982164D01*
X132690000Y-54197836D02*
X132690000Y-53982164D01*
%TO.C,R2*%
X145656359Y-47610000D02*
X145963641Y-47610000D01*
X145656359Y-46850000D02*
X145963641Y-46850000D01*
%TO.C,C7*%
X134910000Y-52427836D02*
X134910000Y-52212164D01*
X135630000Y-52427836D02*
X135630000Y-52212164D01*
%TO.C,R1*%
X147116359Y-67670000D02*
X147423641Y-67670000D01*
X147116359Y-68430000D02*
X147423641Y-68430000D01*
%TO.C,FB1*%
X130940000Y-63177221D02*
X130940000Y-63502779D01*
X131960000Y-63177221D02*
X131960000Y-63502779D01*
%TO.C,J10*%
X123840000Y-46330000D02*
X122510000Y-46330000D01*
X132790000Y-46330000D02*
X132790000Y-43670000D01*
X125110000Y-46330000D02*
X132790000Y-46330000D01*
X125110000Y-46330000D02*
X125110000Y-43670000D01*
X125110000Y-43670000D02*
X132790000Y-43670000D01*
X122510000Y-46330000D02*
X122510000Y-45000000D01*
%TO.C,C12*%
X132050000Y-56727836D02*
X132050000Y-56512164D01*
X131330000Y-56727836D02*
X131330000Y-56512164D01*
%TO.C,C10*%
X141097836Y-63880000D02*
X140882164Y-63880000D01*
X141097836Y-64600000D02*
X140882164Y-64600000D01*
%TO.C,C17*%
X118155000Y-69038748D02*
X118155000Y-69561252D01*
X119625000Y-69038748D02*
X119625000Y-69561252D01*
%TO.C,C14*%
X122985000Y-55591252D02*
X122985000Y-55068748D01*
X121515000Y-55591252D02*
X121515000Y-55068748D01*
%TO.C,R4*%
X138306359Y-69870000D02*
X138613641Y-69870000D01*
X138306359Y-69110000D02*
X138613641Y-69110000D01*
D11*
%TO.C,U3*%
X122325000Y-66865000D02*
X122325000Y-66565000D01*
X116575000Y-66865000D02*
X122325000Y-66865000D01*
X116575000Y-58215000D02*
X116575000Y-58440000D01*
X116575000Y-58440000D02*
X114975000Y-58440000D01*
X116575000Y-66865000D02*
X116575000Y-66565000D01*
X116575000Y-58215000D02*
X122325000Y-58215000D01*
X122325000Y-58215000D02*
X122325000Y-58515000D01*
D12*
%TO.C,J4*%
X113390000Y-67850000D02*
X112060000Y-67850000D01*
X110730000Y-65250000D02*
X110730000Y-57570000D01*
X113390000Y-57570000D02*
X110730000Y-57570000D01*
X113390000Y-66520000D02*
X113390000Y-67850000D01*
X113390000Y-65250000D02*
X110730000Y-65250000D01*
X113390000Y-65250000D02*
X113390000Y-57570000D01*
%TO.C,C2*%
X142545000Y-65421252D02*
X142545000Y-64898748D01*
X144015000Y-65421252D02*
X144015000Y-64898748D01*
%TO.C,Y1*%
X127740000Y-55380000D02*
X127740000Y-59380000D01*
X131040000Y-55380000D02*
X127740000Y-55380000D01*
%TO.C,C5*%
X143710000Y-54407836D02*
X143710000Y-54192164D01*
X142990000Y-54407836D02*
X142990000Y-54192164D01*
%TO.C,R3*%
X146440000Y-56416359D02*
X146440000Y-56723641D01*
X145680000Y-56416359D02*
X145680000Y-56723641D01*
%TO.C,R5*%
X140593641Y-68300000D02*
X140286359Y-68300000D01*
X140593641Y-67540000D02*
X140286359Y-67540000D01*
%TO.C,SW1*%
X153400000Y-44295000D02*
X153400000Y-43505000D01*
X148550000Y-45345000D02*
X148350000Y-45345000D01*
X146500000Y-43505000D02*
X146500000Y-44295000D01*
X151550000Y-45345000D02*
X149850000Y-45345000D01*
X152800000Y-42495000D02*
X147100000Y-42495000D01*
%TO.C,C13*%
X132050000Y-58462164D02*
X132050000Y-58677836D01*
X131330000Y-58462164D02*
X131330000Y-58677836D01*
%TO.C,C6*%
X133880000Y-52457836D02*
X133880000Y-52242164D01*
X134600000Y-52457836D02*
X134600000Y-52242164D01*
%TO.C,J9*%
X135420000Y-75570000D02*
X134090000Y-75570000D01*
X136690000Y-75570000D02*
X144370000Y-75570000D01*
X136690000Y-75570000D02*
X136690000Y-72910000D01*
X144370000Y-75570000D02*
X144370000Y-72910000D01*
X134090000Y-75570000D02*
X134090000Y-74240000D01*
X136690000Y-72910000D02*
X144370000Y-72910000D01*
%TO.C,C1*%
X153785000Y-64768748D02*
X153785000Y-65291252D01*
X155255000Y-64768748D02*
X155255000Y-65291252D01*
%TO.C,U2*%
X141090000Y-54870000D02*
X141540000Y-54870000D01*
X134770000Y-62090000D02*
X134320000Y-62090000D01*
X134320000Y-55320000D02*
X133030000Y-55320000D01*
X141540000Y-54870000D02*
X141540000Y-55320000D01*
X141540000Y-62090000D02*
X141540000Y-61640000D01*
X134320000Y-62090000D02*
X134320000Y-61640000D01*
X141090000Y-62090000D02*
X141540000Y-62090000D01*
X134320000Y-54870000D02*
X134320000Y-55320000D01*
X134770000Y-54870000D02*
X134320000Y-54870000D01*
%TD*%
M02*
