%TF.GenerationSoftware,KiCad,Pcbnew,(6.0.11)*%
%TF.CreationDate,2023-06-03T19:27:43-07:00*%
%TF.ProjectId,stm32_PendCartBoard,73746d33-325f-4506-956e-644361727442,rev?*%
%TF.SameCoordinates,Original*%
%TF.FileFunction,Soldermask,Bot*%
%TF.FilePolarity,Negative*%
%FSLAX46Y46*%
G04 Gerber Fmt 4.6, Leading zero omitted, Abs format (unit mm)*
G04 Created by KiCad (PCBNEW (6.0.11)) date 2023-06-03 19:27:43*
%MOMM*%
%LPD*%
G01*
G04 APERTURE LIST*
%ADD10R,1.700000X1.700000*%
%ADD11O,1.700000X1.700000*%
%ADD12O,0.800000X0.800000*%
%ADD13O,2.000000X1.450000*%
%ADD14O,1.800000X1.150000*%
%ADD15C,2.200000*%
%ADD16C,0.900000*%
G04 APERTURE END LIST*
D10*
%TO.C,J7*%
X119160000Y-54705000D03*
D11*
X119160000Y-52165000D03*
%TD*%
D10*
%TO.C,J6*%
X157700000Y-65140000D03*
D11*
X157700000Y-67680000D03*
%TD*%
D10*
%TO.C,J5*%
X142065000Y-50260000D03*
D11*
X144605000Y-50260000D03*
%TD*%
D10*
%TO.C,J1*%
X150895000Y-50260000D03*
D11*
X148355000Y-50260000D03*
%TD*%
D12*
%TO.C,J3*%
X156930000Y-54600000D03*
X156930000Y-59600000D03*
D13*
X155880000Y-53375000D03*
X155880000Y-60825000D03*
D14*
X159680000Y-60975000D03*
X159680000Y-53225000D03*
%TD*%
D10*
%TO.C,J8*%
X123970000Y-74220000D03*
D11*
X126510000Y-74220000D03*
X129050000Y-74220000D03*
X131590000Y-74220000D03*
%TD*%
D15*
%TO.C,H2*%
X158500000Y-45000000D03*
%TD*%
%TO.C,H1*%
X111500000Y-45000000D03*
%TD*%
D10*
%TO.C,J2*%
X142980000Y-45000000D03*
D11*
X140440000Y-45000000D03*
X137900000Y-45000000D03*
X135360000Y-45000000D03*
%TD*%
D15*
%TO.C,H4*%
X158500000Y-75000000D03*
%TD*%
D10*
%TO.C,J10*%
X123840000Y-45000000D03*
D11*
X126380000Y-45000000D03*
X128920000Y-45000000D03*
X131460000Y-45000000D03*
%TD*%
D15*
%TO.C,H3*%
X111500000Y-75000000D03*
%TD*%
D10*
%TO.C,J4*%
X112060000Y-66520000D03*
D11*
X112060000Y-63980000D03*
X112060000Y-61440000D03*
X112060000Y-58900000D03*
%TD*%
D16*
%TO.C,SW1*%
X151450000Y-43895000D03*
X148450000Y-43895000D03*
%TD*%
D10*
%TO.C,J9*%
X135420000Y-74240000D03*
D11*
X137960000Y-74240000D03*
X140500000Y-74240000D03*
X143040000Y-74240000D03*
%TD*%
M02*
