M48
; DRILL file {KiCad (6.0.11)} date Sat Jun  3 19:27:41 2023
; FORMAT={-:-/ absolute / metric / decimal}
; #@! TF.CreationDate,2023-06-03T19:27:41-07:00
; #@! TF.GenerationSoftware,Kicad,Pcbnew,(6.0.11)
; #@! TF.FileFunction,MixedPlating,1,2
FMAT,2
METRIC
; #@! TA.AperFunction,Plated,PTH,ViaDrill
T1C0.300
; #@! TA.AperFunction,Plated,PTH,ViaDrill
T2C0.400
; #@! TA.AperFunction,Plated,PTH,ComponentDrill
T3C0.550
; #@! TA.AperFunction,Plated,PTH,ComponentDrill
T4C0.850
; #@! TA.AperFunction,Plated,PTH,ComponentDrill
T5C1.000
; #@! TA.AperFunction,NonPlated,NPTH,ComponentDrill
T6C0.800
; #@! TA.AperFunction,NonPlated,NPTH,ComponentDrill
T7C0.900
; #@! TA.AperFunction,NonPlated,NPTH,ComponentDrill
T8C2.200
%
G90
G05
T1
X117.38Y-64.93
X117.4Y-64.18
X117.405Y-60.265
X118.88Y-71.49
X121.046Y-66.163
X121.09Y-71.46
X121.16Y-64.47
X124.63Y-62.816
X127.24Y-58.44
X127.5Y-60.215
X127.72Y-61.614
X130.22Y-54.83
X130.539Y-61.932
X131.41Y-68.919
X131.76Y-51.72
X131.767Y-65.46
X132.59Y-68.359
X132.91Y-65.46
X133.04Y-52.68
X133.46Y-64.615
X133.63Y-68.359
X134.23Y-50.95
X134.66Y-65.46
X134.66Y-68.359
X135.13Y-59.21
X135.26Y-50.94
X135.69Y-55.7
X137.91Y-47.37
X140.17Y-61.21
X140.39Y-47.399
X142.29Y-52.94
X143.26Y-62.94
X143.33Y-52.93
X143.52Y-56.605
X144.78Y-56.605
X144.84Y-58.44
X148.71Y-68.07
X150.24Y-65.25
X150.24Y-66.1
X151.83Y-67.46
X152.2Y-47.1
X152.72Y-67.46
X153.93Y-55.79
X154.53Y-67.18
T2
X122.26Y-53.14
X124.67Y-53.19
X137.29Y-68.48
X146.951Y-48.02
X148.45Y-47.76
T5
X112.06Y-58.9
X112.06Y-61.44
X112.06Y-63.98
X112.06Y-66.52
X119.16Y-52.165
X119.16Y-54.705
X123.84Y-45.0
X123.97Y-74.22
X126.38Y-45.0
X126.51Y-74.22
X128.92Y-45.0
X129.05Y-74.22
X131.46Y-45.0
X131.59Y-74.22
X135.36Y-45.0
X135.42Y-74.24
X137.9Y-45.0
X137.96Y-74.24
X140.44Y-45.0
X140.5Y-74.24
X142.065Y-50.26
X142.98Y-45.0
X143.04Y-74.24
X144.605Y-50.26
X148.355Y-50.26
X150.895Y-50.26
X157.7Y-65.14
X157.7Y-67.68
T6
X156.93Y-54.6
X156.93Y-59.6
T7
X148.45Y-43.895
X151.45Y-43.895
T8
X111.5Y-45.0
X111.5Y-75.0
X158.5Y-45.0
X158.5Y-75.0
T3
G00X159.355Y-53.225
M15
G01X160.005Y-53.225
M16
G05
G00X159.355Y-60.975
M15
G01X160.005Y-60.975
M16
G05
T4
G00X155.605Y-53.375
M15
G01X156.155Y-53.375
M16
G05
G00X155.605Y-60.825
M15
G01X156.155Y-60.825
M16
G05
T0
M30
