%TF.GenerationSoftware,KiCad,Pcbnew,(6.0.11)*%
%TF.CreationDate,2023-06-03T19:27:43-07:00*%
%TF.ProjectId,stm32_PendCartBoard,73746d33-325f-4506-956e-644361727442,rev?*%
%TF.SameCoordinates,Original*%
%TF.FileFunction,Paste,Top*%
%TF.FilePolarity,Positive*%
%FSLAX46Y46*%
G04 Gerber Fmt 4.6, Leading zero omitted, Abs format (unit mm)*
G04 Created by KiCad (PCBNEW (6.0.11)) date 2023-06-03 19:27:43*
%MOMM*%
%LPD*%
G01*
G04 APERTURE LIST*
G04 Aperture macros list*
%AMRoundRect*
0 Rectangle with rounded corners*
0 $1 Rounding radius*
0 $2 $3 $4 $5 $6 $7 $8 $9 X,Y pos of 4 corners*
0 Add a 4 corners polygon primitive as box body*
4,1,4,$2,$3,$4,$5,$6,$7,$8,$9,$2,$3,0*
0 Add four circle primitives for the rounded corners*
1,1,$1+$1,$2,$3*
1,1,$1+$1,$4,$5*
1,1,$1+$1,$6,$7*
1,1,$1+$1,$8,$9*
0 Add four rect primitives between the rounded corners*
20,1,$1+$1,$2,$3,$4,$5,0*
20,1,$1+$1,$4,$5,$6,$7,0*
20,1,$1+$1,$6,$7,$8,$9,0*
20,1,$1+$1,$8,$9,$2,$3,0*%
G04 Aperture macros list end*
%ADD10RoundRect,0.218750X0.256250X-0.218750X0.256250X0.218750X-0.256250X0.218750X-0.256250X-0.218750X0*%
%ADD11RoundRect,0.135000X0.185000X-0.135000X0.185000X0.135000X-0.185000X0.135000X-0.185000X-0.135000X0*%
%ADD12RoundRect,0.140000X0.140000X0.170000X-0.140000X0.170000X-0.140000X-0.170000X0.140000X-0.170000X0*%
%ADD13RoundRect,0.225000X0.250000X-0.225000X0.250000X0.225000X-0.250000X0.225000X-0.250000X-0.225000X0*%
%ADD14RoundRect,0.218750X0.218750X0.256250X-0.218750X0.256250X-0.218750X-0.256250X0.218750X-0.256250X0*%
%ADD15R,1.300000X0.450000*%
%ADD16RoundRect,0.250000X-0.475000X0.250000X-0.475000X-0.250000X0.475000X-0.250000X0.475000X0.250000X0*%
%ADD17RoundRect,0.250000X0.475000X-0.250000X0.475000X0.250000X-0.475000X0.250000X-0.475000X-0.250000X0*%
%ADD18R,2.000000X1.500000*%
%ADD19R,2.000000X3.800000*%
%ADD20RoundRect,0.140000X0.170000X-0.140000X0.170000X0.140000X-0.170000X0.140000X-0.170000X-0.140000X0*%
%ADD21RoundRect,0.135000X-0.135000X-0.185000X0.135000X-0.185000X0.135000X0.185000X-0.135000X0.185000X0*%
%ADD22RoundRect,0.218750X-0.256250X0.218750X-0.256250X-0.218750X0.256250X-0.218750X0.256250X0.218750X0*%
%ADD23R,1.750000X0.450000*%
%ADD24R,1.200000X1.400000*%
%ADD25RoundRect,0.135000X-0.185000X0.135000X-0.185000X-0.135000X0.185000X-0.135000X0.185000X0.135000X0*%
%ADD26RoundRect,0.135000X0.135000X0.185000X-0.135000X0.185000X-0.135000X-0.185000X0.135000X-0.185000X0*%
%ADD27R,1.000000X0.800000*%
%ADD28R,0.700000X1.500000*%
%ADD29RoundRect,0.140000X-0.170000X0.140000X-0.170000X-0.140000X0.170000X-0.140000X0.170000X0.140000X0*%
%ADD30RoundRect,0.075000X-0.662500X-0.075000X0.662500X-0.075000X0.662500X0.075000X-0.662500X0.075000X0*%
%ADD31RoundRect,0.075000X-0.075000X-0.662500X0.075000X-0.662500X0.075000X0.662500X-0.075000X0.662500X0*%
G04 APERTURE END LIST*
D10*
%TO.C,D2*%
X138200000Y-66097500D03*
X138200000Y-64522500D03*
%TD*%
D11*
%TO.C,R6*%
X138310000Y-68440000D03*
X138310000Y-67420000D03*
%TD*%
D12*
%TO.C,C9*%
X131760000Y-61150000D03*
X130800000Y-61150000D03*
%TD*%
D13*
%TO.C,C3*%
X131750000Y-54455000D03*
X131750000Y-52905000D03*
%TD*%
D14*
%TO.C,D1*%
X145187500Y-68010000D03*
X143612500Y-68010000D03*
%TD*%
D15*
%TO.C,J3*%
X155830000Y-58400000D03*
X155830000Y-57750000D03*
X155830000Y-57100000D03*
X155830000Y-56450000D03*
X155830000Y-55800000D03*
%TD*%
D16*
%TO.C,C16*%
X121070000Y-68340000D03*
X121070000Y-70240000D03*
%TD*%
D17*
%TO.C,C15*%
X124670000Y-56320000D03*
X124670000Y-54420000D03*
%TD*%
D18*
%TO.C,U1*%
X152000000Y-65630000D03*
X152000000Y-63330000D03*
D19*
X145700000Y-63330000D03*
D18*
X152000000Y-61030000D03*
%TD*%
D20*
%TO.C,C4*%
X142270000Y-54770000D03*
X142270000Y-53810000D03*
%TD*%
D12*
%TO.C,C8*%
X131760000Y-60110000D03*
X130800000Y-60110000D03*
%TD*%
D20*
%TO.C,C11*%
X133050000Y-54570000D03*
X133050000Y-53610000D03*
%TD*%
D21*
%TO.C,R2*%
X145300000Y-47230000D03*
X146320000Y-47230000D03*
%TD*%
D20*
%TO.C,C7*%
X135270000Y-52800000D03*
X135270000Y-51840000D03*
%TD*%
D21*
%TO.C,R1*%
X146760000Y-68050000D03*
X147780000Y-68050000D03*
%TD*%
D22*
%TO.C,FB1*%
X131450000Y-62552500D03*
X131450000Y-64127500D03*
%TD*%
D20*
%TO.C,C12*%
X131690000Y-57100000D03*
X131690000Y-56140000D03*
%TD*%
D12*
%TO.C,C10*%
X141470000Y-64240000D03*
X140510000Y-64240000D03*
%TD*%
D16*
%TO.C,C17*%
X118890000Y-68350000D03*
X118890000Y-70250000D03*
%TD*%
D17*
%TO.C,C14*%
X122250000Y-56280000D03*
X122250000Y-54380000D03*
%TD*%
D21*
%TO.C,R4*%
X137950000Y-69490000D03*
X138970000Y-69490000D03*
%TD*%
D23*
%TO.C,U3*%
X115850000Y-58965000D03*
X115850000Y-59615000D03*
X115850000Y-60265000D03*
X115850000Y-60915000D03*
X115850000Y-61565000D03*
X115850000Y-62215000D03*
X115850000Y-62865000D03*
X115850000Y-63515000D03*
X115850000Y-64165000D03*
X115850000Y-64815000D03*
X115850000Y-65465000D03*
X115850000Y-66115000D03*
X123050000Y-66115000D03*
X123050000Y-65465000D03*
X123050000Y-64815000D03*
X123050000Y-64165000D03*
X123050000Y-63515000D03*
X123050000Y-62865000D03*
X123050000Y-62215000D03*
X123050000Y-61565000D03*
X123050000Y-60915000D03*
X123050000Y-60265000D03*
X123050000Y-59615000D03*
X123050000Y-58965000D03*
%TD*%
D17*
%TO.C,C2*%
X143280000Y-66110000D03*
X143280000Y-64210000D03*
%TD*%
D24*
%TO.C,Y1*%
X128540000Y-56280000D03*
X128540000Y-58480000D03*
X130240000Y-58480000D03*
X130240000Y-56280000D03*
%TD*%
D20*
%TO.C,C5*%
X143350000Y-54780000D03*
X143350000Y-53820000D03*
%TD*%
D25*
%TO.C,R3*%
X146060000Y-56060000D03*
X146060000Y-57080000D03*
%TD*%
D26*
%TO.C,R5*%
X140950000Y-67920000D03*
X139930000Y-67920000D03*
%TD*%
D27*
%TO.C,SW1*%
X146300000Y-45005000D03*
X146300000Y-42795000D03*
X153600000Y-42795000D03*
X153600000Y-45005000D03*
D28*
X152200000Y-45655000D03*
X149200000Y-45655000D03*
X147700000Y-45655000D03*
%TD*%
D29*
%TO.C,C13*%
X131690000Y-58090000D03*
X131690000Y-59050000D03*
%TD*%
D20*
%TO.C,C6*%
X134240000Y-52830000D03*
X134240000Y-51870000D03*
%TD*%
D16*
%TO.C,C1*%
X154520000Y-64080000D03*
X154520000Y-65980000D03*
%TD*%
D30*
%TO.C,U2*%
X133767500Y-55730000D03*
X133767500Y-56230000D03*
X133767500Y-56730000D03*
X133767500Y-57230000D03*
X133767500Y-57730000D03*
X133767500Y-58230000D03*
X133767500Y-58730000D03*
X133767500Y-59230000D03*
X133767500Y-59730000D03*
X133767500Y-60230000D03*
X133767500Y-60730000D03*
X133767500Y-61230000D03*
D31*
X135180000Y-62642500D03*
X135680000Y-62642500D03*
X136180000Y-62642500D03*
X136680000Y-62642500D03*
X137180000Y-62642500D03*
X137680000Y-62642500D03*
X138180000Y-62642500D03*
X138680000Y-62642500D03*
X139180000Y-62642500D03*
X139680000Y-62642500D03*
X140180000Y-62642500D03*
X140680000Y-62642500D03*
D30*
X142092500Y-61230000D03*
X142092500Y-60730000D03*
X142092500Y-60230000D03*
X142092500Y-59730000D03*
X142092500Y-59230000D03*
X142092500Y-58730000D03*
X142092500Y-58230000D03*
X142092500Y-57730000D03*
X142092500Y-57230000D03*
X142092500Y-56730000D03*
X142092500Y-56230000D03*
X142092500Y-55730000D03*
D31*
X140680000Y-54317500D03*
X140180000Y-54317500D03*
X139680000Y-54317500D03*
X139180000Y-54317500D03*
X138680000Y-54317500D03*
X138180000Y-54317500D03*
X137680000Y-54317500D03*
X137180000Y-54317500D03*
X136680000Y-54317500D03*
X136180000Y-54317500D03*
X135680000Y-54317500D03*
X135180000Y-54317500D03*
%TD*%
M02*
